<svg xmlns="http://www.w3.org/2000/svg" width="1206.978" height="932.911" viewBox="0 0 1206.978 932.911">
  <g id="blogging" transform="translate(-143.299 -137.393)">
    <g id="background" transform="translate(710.554 137.393)">
      <g id="Group_2" data-name="Group 2" transform="translate(283.653 131.544)">
        <g id="Group_1" data-name="Group 1">
          <path id="Path_1" data-name="Path 1" d="M1084.8,284.261c.181,2.8.271,5.6.452,8.314,0,.542.361,1.265.994,1.265,76.087,10.482,152.807,1.627,229.165,1.807,21.6,0,43.1.813,64.611,2.892a1.257,1.257,0,0,0,1.265-.994c.723-3.7,1.536-7.41,2.259-11.115.361-1.717-2.259-2.44-2.621-.723-.723,3.7-1.536,7.41-2.259,11.115a15.455,15.455,0,0,0,1.265-.994c-75.635-7.41-151.542,1.9-227.358.271a570.746,570.746,0,0,1-65.7-4.88,15.449,15.449,0,0,0,.994,1.265c-.181-2.8-.271-5.6-.452-8.314,0-1.627-2.711-1.627-2.621.09Z" transform="translate(-1084.798 -282.962)" fill="#e8e8e8"/>
        </g>
      </g>
      <g id="Group_4" data-name="Group 4" transform="translate(284.626 131.487)">
        <g id="Group_3" data-name="Group 3">
          <path id="Path_2" data-name="Path 2" d="M1087.163,285.611h294.5a1.357,1.357,0,0,0,0-2.711h-294.5a1.357,1.357,0,0,0,0,2.711Z" transform="translate(-1085.875 -282.9)" fill="#e8e8e8"/>
        </g>
      </g>
      <g id="Group_6" data-name="Group 6" transform="translate(299.731 10.062)">
        <g id="Group_5" data-name="Group 5">
          <path id="Path_3" data-name="Path 3" d="M1105.22,270.5c2.259-32.441,4.157-64.972,6.958-97.323.361-4.247.813-8.4,1.536-12.561.271-1.536.361-4.7,1.265-5.964,1.175-1.627,3.7-1.627,5.512-1.9,4.157-.723,11.115-3.253,14.006.994.813,1.265.994,3.886,1.265,5.422.542,2.711.9,5.422,1.175,8.133,1.446,15.9-.632,32.079-1.807,47.984l-4.066,55.3c-.09,1.717,2.621,1.717,2.711,0,1.988-26.386,4.157-52.683,5.783-79.069.723-12.109,1.084-24.489-1.9-36.417-.813-3.343-2.078-6.145-5.874-6.506-5.783-.452-12.47,1.536-18.073,2.711a1.3,1.3,0,0,0-.9.9c-4.789,18.705-4.609,38.857-5.964,58.014-1.446,20.061-2.8,40.212-4.247,60.273-.181,1.717,2.53,1.717,2.62,0Z" transform="translate(-1102.591 -148.527)" fill="#e8e8e8"/>
        </g>
      </g>
      <g id="Group_8" data-name="Group 8" transform="translate(335.878 48.79)">
        <g id="Group_7" data-name="Group 7">
          <path id="Path_4" data-name="Path 4" d="M1142.69,193.025q16.537,41.613,34.881,82.413c.723,1.627,3.072.181,2.349-1.355q-18.163-40.529-34.61-81.78c-.632-1.627-3.253-.9-2.62.723Z" transform="translate(-1142.592 -191.385)" fill="#e8e8e8"/>
        </g>
      </g>
      <g id="Group_10" data-name="Group 10" transform="translate(335.632 24.546)">
        <g id="Group_9" data-name="Group 9">
          <path id="Path_5" data-name="Path 5" d="M1145.013,175.891a13.022,13.022,0,0,1,15.724-8.133,1.36,1.36,0,0,0,.723-2.621,15.793,15.793,0,0,0-19.067,10.03c-.542,1.717,2.078,2.349,2.62.723Z" transform="translate(-1142.319 -164.556)" fill="#e8e8e8"/>
        </g>
      </g>
      <g id="Group_12" data-name="Group 12" transform="translate(353.88 26.201)">
        <g id="Group_11" data-name="Group 11">
          <path id="Path_6" data-name="Path 6" d="M1162.682,168.477q26.839,52.05,53.586,104.191c.813,1.536,3.163.181,2.349-1.355q-26.838-52.05-53.586-104.191c-.813-1.627-3.163-.271-2.349,1.355Z" transform="translate(-1162.513 -166.387)" fill="#e8e8e8"/>
        </g>
      </g>
      <g id="Group_14" data-name="Group 14" transform="translate(401.127 3.689)">
        <g id="Group_13" data-name="Group 13">
          <path id="Path_7" data-name="Path 7" d="M1214.8,142.763q4.338,63.029,8.585,126.059c.09,1.717,2.8,1.717,2.711,0q-4.337-63.029-8.585-126.059c-.09-1.717-2.8-1.717-2.711,0Z" transform="translate(-1214.798 -141.475)" fill="#e8e8e8"/>
        </g>
      </g>
      <g id="Group_16" data-name="Group 16" transform="translate(401.204)">
        <g id="Group_15" data-name="Group 15">
          <path id="Path_8" data-name="Path 8" d="M1217.157,143.815c4.609-4.157,10.844-4.157,16.627-3.163a38.884,38.884,0,0,1,7.139,1.627c4.157,1.536,3.524,5.332,3.7,9.036.542,12.922.994,25.844,1.536,38.766.994,26.115,2.078,52.321,3.072,78.437.09,1.717,2.8,1.717,2.711,0-1.265-31.266-2.44-62.532-3.7-93.708-.271-7.771-.633-15.633-.9-23.4-.181-3.976.361-8.856-3.8-11.024-4.338-2.259-11.024-3.072-15.9-2.982-4.7.09-8.856,1.355-12.29,4.518-1.356,1.084.542,3.072,1.807,1.9Z" transform="translate(-1214.883 -137.393)" fill="#e8e8e8"/>
        </g>
      </g>
      <g id="Group_18" data-name="Group 18" transform="translate(354.851 24.035)">
        <g id="Group_17" data-name="Group 17">
          <path id="Path_9" data-name="Path 9" d="M1164.954,166.71c8.585.542,16.989,3.072,25.212,5.422,7.591,2.169,15,4.88,21.416,9.579,1.446.994,2.8-1.355,1.355-2.349-6.687-4.789-14.278-7.591-22.139-9.85-8.494-2.44-17.079-4.88-25.935-5.512-1.717-.181-1.717,2.53.09,2.711Z" transform="translate(-1163.587 -163.99)" fill="#e8e8e8"/>
        </g>
      </g>
      <g id="Group_20" data-name="Group 20" transform="translate(432.427 17.733)">
        <g id="Group_19" data-name="Group 19">
          <path id="Path_10" data-name="Path 10" d="M1251.12,161.249c3.976-.994,8.4-1.988,12.561-1.175,6.145,1.265,7.41,6.687,7.681,12.2.452,11.115.633,22.139.9,33.254q.813,32.8.9,65.6a1.357,1.357,0,0,0,2.711,0q-.135-39.173-1.175-78.165c-.181-6.326-.361-12.561-.542-18.886-.181-4.157-.09-8.765-2.621-12.29-4.7-6.6-14.368-4.97-21.055-3.253a1.392,1.392,0,0,0,.633,2.711Z" transform="translate(-1249.435 -157.016)" fill="#e8e8e8"/>
        </g>
      </g>
      <g id="Group_22" data-name="Group 22" transform="translate(453.902 6.4)">
        <g id="Group_21" data-name="Group 21">
          <path id="Path_11" data-name="Path 11" d="M1273.2,145.763v24.308a1.357,1.357,0,0,0,2.711,0V145.763a1.357,1.357,0,0,0-2.711,0Z" transform="translate(-1273.2 -144.475)" fill="#e8e8e8"/>
        </g>
      </g>
      <g id="Group_24" data-name="Group 24" transform="translate(455.418 5.254)">
        <g id="Group_23" data-name="Group 23">
          <path id="Path_12" data-name="Path 12" d="M1277.338,146.635c.723.271,1.536.542,2.259.813.09.633.181,1.265.271,1.988.181,1.446.181,2.982.361,4.518.181,2.349.362,4.789.542,7.139.361,5.06.632,10.211.9,15.272.633,10.482,1.084,20.965,1.446,31.447.813,20.694,1.084,41.387,1.084,62.081a1.357,1.357,0,0,0,2.711,0c0-25.754-.542-51.6-1.717-77.352-.632-12.561-1.355-25.121-2.259-37.682-.181-3.072.362-8.675-2.44-10.844a3.56,3.56,0,0,0-5.512,1.265c-.632,1.627,1.627,2.982,2.349,1.356Z" transform="translate(-1274.878 -143.207)" fill="#e8e8e8"/>
        </g>
      </g>
      <g id="Group_26" data-name="Group 26" transform="translate(324.477 144.065)">
        <g id="Group_25" data-name="Group 25">
          <path id="Path_13" data-name="Path 13" d="M1130.178,298.88c2.8,4.7,5.512,11.747,10.031,15.091,4.428,3.344,9.85.361,14.729,2.078,1.627.542,2.349-2.078.723-2.621-4.338-1.536-9.4.9-13.284-1.536-4.428-2.711-7.229-10.03-9.85-14.458a1.381,1.381,0,0,0-2.35,1.446Z" transform="translate(-1129.975 -296.819)" fill="#e8e8e8"/>
        </g>
      </g>
      <g id="Group_28" data-name="Group 28" transform="translate(348.695 146.014)">
        <g id="Group_27" data-name="Group 27">
          <path id="Path_14" data-name="Path 14" d="M1161.135,300.263a29.451,29.451,0,0,1-4.157,12.922,1.356,1.356,0,0,0,2.349,1.355,31.207,31.207,0,0,0,4.518-14.278c.181-1.717-2.53-1.717-2.711,0Z" transform="translate(-1156.775 -298.975)" fill="#e8e8e8"/>
        </g>
      </g>
      <g id="Group_30" data-name="Group 30" transform="translate(345.34 147.856)">
        <g id="Group_29" data-name="Group 29">
          <path id="Path_15" data-name="Path 15" d="M1153.1,302.718c.813,4.157,1.627,8.314,2.53,12.47.361,1.717,2.982.994,2.62-.723-.813-4.157-1.627-8.314-2.53-12.47-.362-1.717-2.982-.994-2.621.723Z" transform="translate(-1153.062 -301.014)" fill="#e8e8e8"/>
        </g>
      </g>
      <g id="Group_32" data-name="Group 32" transform="translate(346.062 146.851)">
        <g id="Group_31" data-name="Group 31">
          <path id="Path_16" data-name="Path 16" d="M1156.427,302.521a1.285,1.285,0,0,1,.542.181,2.553,2.553,0,0,1,.181,1.627,14.965,14.965,0,0,1-.542,1.9,6.468,6.468,0,0,0-.09,3.7,1.36,1.36,0,0,0,2.621-.723,12.119,12.119,0,0,1,.9-7.139c-.9-.09-1.807-.271-2.621-.361-.271,2.8-.452,5.693-.723,8.494-.181,1.717,2.53,1.717,2.711,0,.271-2.8.452-5.693.723-8.494.181-1.627-2.169-1.627-2.621-.361a15.568,15.568,0,0,0-.9,8.585c.9-.271,1.717-.452,2.621-.723-.813-2.711,2.349-6.054-.362-8.494a2.98,2.98,0,0,0-4.88,1.175c-.723,1.627,1.9,2.349,2.44.633Z" transform="translate(-1153.861 -299.902)" fill="#e8e8e8"/>
        </g>
      </g>
      <g id="Group_34" data-name="Group 34" transform="translate(486.562 115.998)">
        <g id="Group_33" data-name="Group 33">
          <path id="Path_17" data-name="Path 17" d="M1313.009,279.441a31.276,31.276,0,0,1-.9-10.03l-1.355,1.355c15.995-.813,31.989-1.807,47.984-2.169q12.064-.271,24.127,0c1.807,0,3.615.09,5.332.09,1.807.09,5.512-.542,7.139.271,3.615,1.717,2.078,8.675,2.078,11.838a1.357,1.357,0,0,0,2.711,0c0-4.247,2.169-13.284-3.615-14.458-3.976-.813-8.675-.361-12.741-.452-5.06-.09-10.121-.181-15.181-.09-19.248.09-38.5,1.265-57.833,2.259a1.39,1.39,0,0,0-1.355,1.355,33.028,33.028,0,0,0,1.084,10.753c.271,1.717,2.892.994,2.53-.723Z" transform="translate(-1309.342 -265.759)" fill="#e8e8e8"/>
        </g>
      </g>
      <g id="Group_36" data-name="Group 36" transform="translate(500.225 100.841)">
        <g id="Group_35" data-name="Group 35">
          <path id="Path_18" data-name="Path 18" d="M1324.5,250.625a105.46,105.46,0,0,1,2.259,15c.09,1.717,2.8,1.717,2.711,0a101.537,101.537,0,0,0-2.35-15.723c-.361-1.627-2.982-.9-2.621.723Z" transform="translate(-1324.462 -248.985)" fill="#e8e8e8"/>
        </g>
      </g>
      <g id="Group_38" data-name="Group 38" transform="translate(500.779 99.928)">
        <g id="Group_37" data-name="Group 37">
          <path id="Path_19" data-name="Path 19" d="M1326.363,252.245c10.934-.9,21.868-1.9,32.8-1.446,10.3.452,20.693,3.8,31,2.711l-1.355-1.355a34.749,34.749,0,0,0,1.717,13.916c.542,1.627,3.163.9,2.621-.723a32.587,32.587,0,0,1-1.627-13.193,1.281,1.281,0,0,0-1.355-1.355c-10.3.994-20.693-2.349-31-2.711-10.934-.452-21.959.542-32.8,1.446-1.717.09-1.717,2.8,0,2.711Z" transform="translate(-1325.075 -247.975)" fill="#e8e8e8"/>
        </g>
      </g>
      <g id="Group_40" data-name="Group 40" transform="translate(410.075 383.311)">
        <g id="Group_39" data-name="Group 39" transform="translate(0 0)">
          <path id="Path_20" data-name="Path 20" d="M1224.7,562.863v11.3a1.357,1.357,0,0,0,2.711,0v-11.3a1.357,1.357,0,0,0-2.711,0Z" transform="translate(-1224.7 -561.575)" fill="#e8e8e8"/>
        </g>
      </g>
      <g id="Group_42" data-name="Group 42" transform="translate(410.075 380.984)">
        <g id="Group_41" data-name="Group 41" transform="translate(0 0)">
          <path id="Path_21" data-name="Path 21" d="M1226.055,561.711h210.911a1.357,1.357,0,0,0,0-2.711H1226.055a1.355,1.355,0,0,0,0,2.711Z" transform="translate(-1224.7 -559)" fill="#e8e8e8"/>
        </g>
      </g>
      <g id="Group_44" data-name="Group 44" transform="translate(412.312 393.455)">
        <g id="Group_43" data-name="Group 43">
          <path id="Path_22" data-name="Path 22" d="M1228.463,575.511h207.568a1.357,1.357,0,0,0,0-2.711H1228.463a1.357,1.357,0,0,0,0,2.711Z" transform="translate(-1227.175 -572.8)" fill="#e8e8e8"/>
        </g>
      </g>
      <g id="Group_46" data-name="Group 46" transform="translate(620.986 383.311)">
        <g id="Group_45" data-name="Group 45" transform="translate(0 0)">
          <path id="Path_23" data-name="Path 23" d="M1458.1,562.863v7.862a1.357,1.357,0,0,0,2.711,0v-7.862a1.357,1.357,0,0,0-2.711,0Z" transform="translate(-1458.1 -561.575)" fill="#e8e8e8"/>
        </g>
      </g>
      <g id="Group_48" data-name="Group 48" transform="translate(430.897 352.441)">
        <g id="Group_47" data-name="Group 47">
          <path id="Path_24" data-name="Path 24" d="M1247.795,529.118c2.349,9.308,4.518,18.706,6.326,28.1.361,1.717,2.982.994,2.621-.723-1.807-9.4-3.886-18.8-6.326-28.1a1.36,1.36,0,0,0-2.621.723Z" transform="translate(-1247.742 -527.414)" fill="#e8e8e8"/>
        </g>
      </g>
      <g id="Group_50" data-name="Group 50" transform="translate(472.588 352.351)">
        <g id="Group_49" data-name="Group 49">
          <path id="Path_25" data-name="Path 25" d="M1299.229,528.3c-2.169,9.308-3.976,18.615-5.332,28.013-.271,1.717,2.349,2.44,2.621.723,1.355-9.4,3.163-18.8,5.332-28.013.361-1.717-2.259-2.44-2.621-.723Z" transform="translate(-1293.878 -527.314)" fill="#e8e8e8"/>
        </g>
      </g>
      <g id="Group_52" data-name="Group 52" transform="translate(423.539 345.305)">
        <g id="Group_51" data-name="Group 51" transform="translate(0 0)">
          <path id="Path_26" data-name="Path 26" d="M1239.6,523.3c.181,4.7,7.229,4.338,10.663,4.518,7.771.361,15.633-.813,23.4-1.265a71.732,71.732,0,0,1,11.657,0c3.163.271,6.6,1.355,9.669.723,3.434-.723,5.6-3.976,3.615-7.139-.9-1.446-3.253-.09-2.349,1.355,2.53,4.247-6.054,2.892-6.868,2.8-1.9-.271-3.886-.452-5.783-.542a94.475,94.475,0,0,0-13.374.361c-2.892.181-27.832,3.163-27.923-.813a1.355,1.355,0,0,0-2.711,0Z" transform="translate(-1239.6 -519.516)" fill="#e8e8e8"/>
        </g>
      </g>
      <g id="Group_54" data-name="Group 54" transform="translate(423.792 340.03)">
        <g id="Group_53" data-name="Group 53">
          <path id="Path_27" data-name="Path 27" d="M1242.79,522.373c-1.627-5.06,12.38-4.518,14.729-4.609,4.157-.181,8.4-.361,12.561-.542,2.259-.09,25.754-.723,25.122.994-.542,1.627,2.078,2.349,2.621.723,2.711-8.042-26.658-4.518-30.453-4.337-7.049.271-14.91-.362-21.778.994-3.615.723-6.687,3.434-5.422,7.41.542,1.717,3.162.994,2.62-.633Z" transform="translate(-1239.88 -513.679)" fill="#e8e8e8"/>
        </g>
      </g>
      <g id="Group_56" data-name="Group 56" transform="translate(410.681 280.547)">
        <g id="Group_55" data-name="Group 55" transform="translate(0 0)">
          <path id="Path_28" data-name="Path 28" d="M1253.41,508.53a30.609,30.609,0,0,1-10.753-8.042c-1.175-1.446-9.488-13.464-4.609-14.187a1.375,1.375,0,0,0,.813-1.988c-2.621-3.8-3.7-8.675-5.06-13.013-1.536-4.7-2.982-9.4-4.518-14.007-.271-.994-.723-1.9-.9-2.892-.452-1.9-.723-1.9,1.536-2.078,2.44-.181,3.7,1.717,5.332,3.344a71.691,71.691,0,0,1,8.223,9.94c9.127,13.193,14.187,28.736,17.983,44.188a1.36,1.36,0,0,0,2.621-.723c-4.88-19.7-12.019-39.941-26.477-54.851-1.988-2.078-5.783-6.868-9.127-6.326-2.53.452-3.253,3.163-3.072,5.422.361,5.06,3.072,10.573,4.7,15.452,1.807,5.6,2.982,12.109,6.416,16.989.271-.633.542-1.355.813-1.988-5.964.9-2.53,9.217-.9,12.47a33.587,33.587,0,0,0,15.633,14.82c1.536.542,2.892-1.807,1.355-2.53Z" transform="translate(-1225.371 -447.853)" fill="#e8e8e8"/>
        </g>
      </g>
      <g id="Group_58" data-name="Group 58" transform="translate(438.946 258.208)">
        <g id="Group_57" data-name="Group 57" transform="translate(0 0)">
          <path id="Path_29" data-name="Path 29" d="M1259.5,481.388c-.271-11.476-.542-23.4,3.344-34.339a56.662,56.662,0,0,1,8.133-14.639c.813-1.175,1.717-3.072,2.982-3.8.9-1.446,2.259-1.627,3.976-.452q3.253-.813,3.253,1.627c1.084,2.44.723,6.6.723,9.127,0,6.054-1.446,11.657-2.892,17.44a17.494,17.494,0,0,0-.813,6.054c.181,2.349,1.446,4.157,2.078,6.326,1.807,6.145-1.356,12.47-3.524,18.073-2.169,5.874-4.428,11.747-6.6,17.711-.633,1.627,1.988,2.349,2.621.723,2.892-7.771,5.964-15.452,8.675-23.314,1.9-5.512,2.8-10.3.633-15.723-2.892-7.32,1.717-15.543,2.349-23.043.361-4.88,1.175-13.193-1.988-17.531-6.868-9.488-17.8,10.753-19.971,15.272-6.145,12.651-6.054,26.838-5.693,40.574.09,1.717,2.8,1.717,2.711-.09Z" transform="translate(-1256.649 -423.132)" fill="#e8e8e8"/>
        </g>
      </g>
      <g id="Group_60" data-name="Group 60" transform="translate(418.781 292.261)">
        <g id="Group_59" data-name="Group 59">
          <path id="Path_30" data-name="Path 30" d="M1234.574,462.79c8.946,12.561,14.278,27.652,20.513,41.658.723,1.627,3.073.181,2.349-1.355-6.145-14.1-11.567-29.1-20.513-41.658-.994-1.446-3.344-.09-2.349,1.355Z" transform="translate(-1234.334 -460.816)" fill="#e8e8e8"/>
        </g>
      </g>
      <g id="Group_62" data-name="Group 62" transform="translate(443.96 286.531)">
        <g id="Group_61" data-name="Group 61" transform="translate(0 0)">
          <path id="Path_31" data-name="Path 31" d="M1262.2,455.763a22.52,22.52,0,0,0,4.97,12.741c1.084,1.355,2.982-.542,1.9-1.9a19.843,19.843,0,0,1-4.157-10.844c-.09-1.717-2.8-1.717-2.711,0Z" transform="translate(-1262.198 -454.475)" fill="#e8e8e8"/>
        </g>
      </g>
      <g id="Group_64" data-name="Group 64" transform="translate(453.699 275.453)">
        <g id="Group_63" data-name="Group 63" transform="translate(0 0)">
          <path id="Path_32" data-name="Path 32" d="M1275.528,453.949c2.169-3.253,4.428-6.506,6.6-9.759.994-1.446-1.355-2.8-2.349-1.355-2.169,3.253-4.428,6.506-6.6,9.759-.9,1.446,1.446,2.8,2.349,1.355Z" transform="translate(-1272.975 -442.216)" fill="#e8e8e8"/>
        </g>
      </g>
      <g id="Group_66" data-name="Group 66" transform="translate(464.509 284.76)">
        <g id="Group_65" data-name="Group 65">
          <path id="Path_33" data-name="Path 33" d="M1303.609,453.134c-2.259,3.615-5.512,6.416-8.494,9.308-3.253,3.072-6.506,6.235-9.76,9.308-1.265,1.175.633,3.163,1.9,1.9,6.235-5.964,14.1-11.747,18.705-19.157.9-1.446-1.446-2.8-2.349-1.355Z" transform="translate(-1284.938 -452.516)" fill="#e8e8e8"/>
        </g>
      </g>
      <g id="Group_68" data-name="Group 68" transform="translate(470.092 287.727)">
        <g id="Group_67" data-name="Group 67" transform="translate(0 0)">
          <path id="Path_34" data-name="Path 34" d="M1303.03,457.065c.181,4.789,8.133,13.645,1.988,16.537a1.421,1.421,0,0,0-.271,2.169c2.078,2.53.723,6.326.452,9.308-.271,3.344,0,6.687-.9,9.94-1.626,6.235-7.41,9.94-12.561,13.193-1.446.9-.09,3.253,1.355,2.349,6.235-3.976,12.651-8.494,14.1-16.266.723-4.157.723-8.494,1.084-12.651.362-2.982.271-5.332-1.717-7.681l-.271,2.169c8.584-4.066-.452-13.284-.633-18.886,0-1.9-2.711-1.9-2.62-.181Z" transform="translate(-1291.116 -455.799)" fill="#e8e8e8"/>
        </g>
      </g>
      <g id="Group_70" data-name="Group 70" transform="translate(461.576 301.601)">
        <g id="Group_69" data-name="Group 69">
          <path id="Path_35" data-name="Path 35" d="M1297.784,471.828a202.561,202.561,0,0,0-15.995,31.537c-.633,1.627,1.988,2.349,2.621.723a198.723,198.723,0,0,1,15.724-30.9,1.356,1.356,0,0,0-2.35-1.355Z" transform="translate(-1281.692 -471.152)" fill="#e8e8e8"/>
        </g>
      </g>
      <g id="Group_72" data-name="Group 72" transform="translate(435.499 370.754)">
        <g id="Group_71" data-name="Group 71">
          <path id="Path_36" data-name="Path 36" d="M1253.074,549.6a24.135,24.135,0,0,0,14.549,9.488c1.717.362,2.44-2.259.723-2.621a20.981,20.981,0,0,1-12.922-8.223c-.994-1.355-3.343,0-2.349,1.355Z" transform="translate(-1252.834 -547.679)" fill="#e8e8e8"/>
        </g>
      </g>
      <g id="Group_74" data-name="Group 74" transform="translate(433.641 358.927)">
        <g id="Group_73" data-name="Group 73">
          <path id="Path_37" data-name="Path 37" d="M1251.34,537.22c9.308,7.139,19.157,17.35,31.086,19.79,1.717.361,2.44-2.259.723-2.621-11.567-2.349-21.326-12.561-30.453-19.519-1.356-1.084-2.711,1.265-1.356,2.349Z" transform="translate(-1250.779 -534.591)" fill="#e8e8e8"/>
        </g>
      </g>
      <g id="Group_76" data-name="Group 76" transform="translate(440.876 352.467)">
        <g id="Group_75" data-name="Group 75">
          <path id="Path_38" data-name="Path 38" d="M1259.25,529.663c5.6,4.609,11.024,9.308,16.717,13.735a32.417,32.417,0,0,0,7.952,4.88c2.8,1.175,5.783,1.717,8.313,3.524,1.446.994,2.8-1.355,1.355-2.349a26.851,26.851,0,0,0-6.145-2.8,31.394,31.394,0,0,1-9.759-5.422c-5.6-4.338-11.025-8.946-16.446-13.464-1.446-1.085-3.343.813-1.988,1.9Z" transform="translate(-1258.785 -527.442)" fill="#e8e8e8"/>
        </g>
      </g>
      <g id="Group_78" data-name="Group 78" transform="translate(455.755 351.066)">
        <g id="Group_77" data-name="Group 77">
          <path id="Path_39" data-name="Path 39" d="M1275.657,528.249a45.442,45.442,0,0,0,18.8,11.747c1.627.542,2.349-2.078.723-2.621a43.068,43.068,0,0,1-17.621-11.115c-1.175-1.175-3.163.723-1.9,1.988Z" transform="translate(-1275.251 -525.892)" fill="#e8e8e8"/>
        </g>
      </g>
      <g id="Group_80" data-name="Group 80" transform="translate(519.138 366.066)">
        <g id="Group_79" data-name="Group 79">
          <path id="Path_40" data-name="Path 40" d="M1348.923,556.144c-.542-1.446-1.355-3.344-1.265-4.88.361-3.976,3.072-4.337,5.693-4.789a62.707,62.707,0,0,1,11.657-.813c6.6-.09,13.284.452,19.88.723a179.452,179.452,0,0,0,19.7-.723c2.711-.271,7.5-1.355,10.121-.452,2.711.994,3.434,2.349,3.524,4.88.09,1.988.09,3.976.181,6.054.09,1.717,2.8,1.717,2.711,0-.09-3.072.813-8.494-.723-11.386-1.446-2.53-4.789-2.259-7.319-2.259-10.3,0-20.332,1.536-30.724,1.084-9.579-.361-19.248-1.175-28.736.271-7.771,1.175-9.759,5.964-7.139,13.193.361,1.446,2.982.723,2.44-.9Z" transform="translate(-1345.391 -542.491)" fill="#e8e8e8"/>
        </g>
      </g>
      <g id="Group_82" data-name="Group 82" transform="translate(538.196 356.569)">
        <g id="Group_81" data-name="Group 81" transform="translate(0 0)">
          <path id="Path_41" data-name="Path 41" d="M1370.113,540.583c.723-1.627,1.355-3.253,2.078-4.88a22.679,22.679,0,0,0,2.44-.362c1.084-.09,2.078,0,3.163-.09,2.349,0,4.609-.09,6.958-.09,4.97-.09,9.85-.09,14.82-.181,4.609-.09,9.308-.09,13.916-.181,1.175,0,2.349,0,3.524-.09,1.446,0,1.9-.361,2.349.723.542,1.355-.452,5.151-.632,6.6-.181,1.717,2.53,1.717,2.711,0,.181-2.169,1.536-6.687.452-8.675-.9-1.627-2.259-1.355-4.066-1.355-8.675,0-17.44.271-26.115.362-4.066.09-8.133.09-12.2.181-3.072,0-6.868-.361-9.669,1.084-3.253,1.717-4.789,6.145-1.627,8.765,1.355,1.175,3.253-.723,1.9-1.807Z" transform="translate(-1366.481 -531.981)" fill="#e8e8e8"/>
        </g>
      </g>
      <g id="Group_84" data-name="Group 84" transform="translate(557.364 348.193)">
        <g id="Group_83" data-name="Group 83">
          <path id="Path_42" data-name="Path 42" d="M1390.772,528.665c-2.349-3.163,7.5-2.8,8.133-2.892,2.169-.181,9.579-1.536,8.133,3.344-.542,1.717,2.078,2.349,2.621.723a5.161,5.161,0,0,0-1.807-5.6c-2.982-2.44-6.687-1.265-10.211-1.084-2.8.09-6.145-.813-8.4,1.355a4.1,4.1,0,0,0-.813,5.512c1.084,1.356,3.434,0,2.35-1.355Z" transform="translate(-1387.693 -522.712)" fill="#e8e8e8"/>
        </g>
      </g>
      <g id="Group_86" data-name="Group 86" transform="translate(421.905 396.149)">
        <g id="Group_85" data-name="Group 85">
          <path id="Path_43" data-name="Path 43" d="M1238.07,577.786a49.35,49.35,0,0,0,12.29,11.838c1.446.994,2.8-1.355,1.355-2.349a44.784,44.784,0,0,1-11.3-10.934c-1.084-1.355-3.434,0-2.349,1.446Z" transform="translate(-1237.791 -575.781)" fill="#e8e8e8"/>
        </g>
      </g>
      <g id="Group_88" data-name="Group 88" transform="translate(432.824 394.976)">
        <g id="Group_87" data-name="Group 87">
          <path id="Path_44" data-name="Path 44" d="M1251.163,588.6h8.946c1.717,0,4.518.452,6.054-.361,1.175-.633,1.536-2.078,2.078-3.163a52.117,52.117,0,0,1,5.151-8.223c1.084-1.355-.813-3.253-1.9-1.9-.994,1.175-1.9,2.44-2.8,3.7-1.084,1.717-1.807,4.157-3.072,5.693-2.53,2.982-10.753,1.627-14.458,1.536a1.357,1.357,0,0,0,0,2.711Z" transform="translate(-1249.875 -574.484)" fill="#e8e8e8"/>
        </g>
      </g>
      <g id="Group_90" data-name="Group 90" transform="translate(444.09 396.268)">
        <g id="Group_89" data-name="Group 89">
          <path id="Path_45" data-name="Path 45" d="M1262.395,577.618c.723,2.711,1.446,5.512,2.259,8.223a1.36,1.36,0,0,0,2.621-.723c-.723-2.711-1.446-5.512-2.259-8.223a1.36,1.36,0,0,0-2.621.723Z" transform="translate(-1262.342 -575.914)" fill="#e8e8e8"/>
        </g>
      </g>
      <g id="Group_92" data-name="Group 92" transform="translate(554.129 395.402)">
        <g id="Group_91" data-name="Group 91">
          <path id="Path_46" data-name="Path 46" d="M1384.282,577.074a61.81,61.81,0,0,0,4.88,8.585c.994,1.446,2.259,3.7,3.976,4.518,1.807.9,4.338.181,6.145,0,3.253-.361,6.506-.633,9.759-.994,1.717-.181,1.717-2.892,0-2.711-2.169.181-4.338.452-6.506.633-1.9.181-4.7.994-6.506.633-4.7-.9-7.591-8.314-9.4-12.109-.813-1.536-3.163-.181-2.35,1.446Z" transform="translate(-1384.113 -574.955)" fill="#e8e8e8"/>
        </g>
      </g>
      <g id="Group_94" data-name="Group 94" transform="translate(577.602 394.345)">
        <g id="Group_93" data-name="Group 93">
          <path id="Path_47" data-name="Path 47" d="M1411.635,574.7a40.586,40.586,0,0,0-1.536,11.838c.09,1.717,2.8,1.717,2.711,0a38.259,38.259,0,0,1,1.355-11.115c.542-1.627-2.078-2.349-2.53-.723Z" transform="translate(-1410.089 -573.785)" fill="#e8e8e8"/>
        </g>
      </g>
      <g id="Group_96" data-name="Group 96" transform="translate(578.007 395.35)">
        <g id="Group_95" data-name="Group 95">
          <path id="Path_48" data-name="Path 48" d="M1412.853,588c3.615-3.434,7.048-7.048,10.392-10.753,1.175-1.265-.723-3.253-1.9-1.9-3.343,3.7-6.777,7.32-10.392,10.753-1.265,1.175.632,3.072,1.9,1.9Z" transform="translate(-1410.538 -574.897)" fill="#e8e8e8"/>
        </g>
      </g>
      <g id="Group_98" data-name="Group 98" transform="translate(0 131.555)">
        <g id="Group_97" data-name="Group 97">
          <path id="Path_49" data-name="Path 49" d="M770.9,284.263v76.358a1.357,1.357,0,0,0,2.711,0V284.263a1.357,1.357,0,0,0-2.711,0Z" transform="translate(-770.9 -282.975)" fill="#e8e8e8"/>
        </g>
      </g>
      <g id="Group_100" data-name="Group 100" transform="translate(0.813 208.569)">
        <g id="Group_99" data-name="Group 99">
          <path id="Path_50" data-name="Path 50" d="M773.156,370.911h96.871a1.357,1.357,0,0,0,0-2.711H773.156a1.355,1.355,0,1,0,0,2.711Z" transform="translate(-771.8 -368.2)" fill="#e8e8e8"/>
        </g>
      </g>
      <g id="Group_102" data-name="Group 102" transform="translate(0.813 131.487)">
        <g id="Group_101" data-name="Group 101">
          <path id="Path_51" data-name="Path 51" d="M773.156,285.611h93.979a1.357,1.357,0,0,0,0-2.711H773.156a1.355,1.355,0,1,0,0,2.711Z" transform="translate(-771.8 -282.9)" fill="#e8e8e8"/>
        </g>
      </g>
      <g id="Group_104" data-name="Group 104" transform="translate(96.148 131.555)">
        <g id="Group_103" data-name="Group 103">
          <path id="Path_52" data-name="Path 52" d="M877.3,284.263v76.358a1.357,1.357,0,0,0,2.711,0V284.263a1.357,1.357,0,0,0-2.711,0Z" transform="translate(-877.3 -282.975)" fill="#e8e8e8"/>
        </g>
      </g>
      <g id="Group_106" data-name="Group 106" transform="translate(47.701 122.425)">
        <g id="Group_105" data-name="Group 105">
          <path id="Path_53" data-name="Path 53" d="M826.41,281.03a6.166,6.166,0,0,1,.633-3.344c.271-.633,1.355-2.259,1.988-1.807.723.452.994,2.53,1.084,3.253a12.3,12.3,0,0,1,.09,4.066c-.181,1.717,2.53,1.717,2.711,0a16.582,16.582,0,0,0-.813-6.958c-.542-1.446-1.265-3.163-2.982-3.344-3.7-.452-5.6,5.241-5.422,8.042.09,1.9,2.8,1.9,2.711.09Z" transform="translate(-823.687 -272.872)" fill="#e8e8e8"/>
        </g>
      </g>
      <g id="Group_108" data-name="Group 108" transform="translate(5.151 140.321)">
        <g id="Group_107" data-name="Group 107">
          <path id="Path_54" data-name="Path 54" d="M776.6,293.963v60.906a1.357,1.357,0,0,0,2.711,0V293.963a1.357,1.357,0,0,0-2.711,0Z" transform="translate(-776.6 -292.675)" fill="#e8e8e8"/>
        </g>
      </g>
      <g id="Group_110" data-name="Group 110" transform="translate(5.219 201.159)">
        <g id="Group_109" data-name="Group 109">
          <path id="Path_55" data-name="Path 55" d="M777.963,362.711h85.124a1.357,1.357,0,0,0,0-2.711H777.963a1.357,1.357,0,0,0,0,2.711Z" transform="translate(-776.675 -360)" fill="#e8e8e8"/>
        </g>
      </g>
      <g id="Group_112" data-name="Group 112" transform="translate(91.088 139.598)">
        <g id="Group_111" data-name="Group 111">
          <path id="Path_56" data-name="Path 56" d="M874.411,354.069V293.163a1.357,1.357,0,0,0-2.711,0v60.906a1.355,1.355,0,1,0,2.711,0Z" transform="translate(-871.7 -291.875)" fill="#e8e8e8"/>
        </g>
      </g>
      <g id="Group_114" data-name="Group 114" transform="translate(5.941 140.976)">
        <g id="Group_113" data-name="Group 113">
          <path id="Path_57" data-name="Path 57" d="M778.763,296.111h82.232a1.357,1.357,0,0,0,0-2.711H778.763a1.357,1.357,0,0,0,0,2.711Z" transform="translate(-777.475 -293.4)" fill="#e8e8e8"/>
        </g>
      </g>
      <g id="Group_116" data-name="Group 116" transform="translate(6.041 182.914)">
        <g id="Group_115" data-name="Group 115">
          <path id="Path_58" data-name="Path 58" d="M779.225,346.4c10.573-3.163,21.326-5.964,31.808-1.084,7.5,3.524,14.007,8.856,22.41,10.392,1.717.271,2.44-2.259.723-2.621-9.579-1.807-16.808-8.765-25.935-11.838-9.85-3.253-20.151-.361-29.73,2.53-1.627.542-.9,3.163.723,2.621Z" transform="translate(-777.585 -339.81)" fill="#e8e8e8"/>
        </g>
      </g>
      <g id="Group_118" data-name="Group 118" transform="translate(41.283 180.003)">
        <g id="Group_117" data-name="Group 117">
          <path id="Path_59" data-name="Path 59" d="M818.225,344.551a92.421,92.421,0,0,1,39.941-4.789c1.717.181,1.717-2.53,0-2.711a94.2,94.2,0,0,0-40.664,4.88c-1.627.633-.9,3.253.723,2.621Z" transform="translate(-816.585 -336.589)" fill="#e8e8e8"/>
        </g>
      </g>
      <g id="Group_120" data-name="Group 120" transform="translate(42.346 158.322)">
        <g id="Group_119" data-name="Group 119">
          <path id="Path_60" data-name="Path 60" d="M821.14,321.275a4.182,4.182,0,0,1,.994-5.422,3.889,3.889,0,0,1,5.06.813,3.489,3.489,0,0,1-1.265,4.88c-1.988.994-4.247-.9-4.247-2.892a1.357,1.357,0,0,0-2.711,0,5.882,5.882,0,0,0,7.229,5.693,6.143,6.143,0,0,0,3.7-8.223c-1.446-3.253-5.783-4.428-8.856-2.8-3.344,1.807-4.157,6.235-2.349,9.4a1.423,1.423,0,0,0,2.44-1.446Z" transform="translate(-817.761 -312.595)" fill="#e8e8e8"/>
        </g>
      </g>
      <g id="Group_122" data-name="Group 122" transform="translate(485.612 143.941)">
        <g id="Group_121" data-name="Group 121">
          <path id="Path_61" data-name="Path 61" d="M1308.57,298.686c3.253,4.338,3.886,10.211,7.862,14.007,3.7,3.615,8.133,3.072,12.651,1.446,1.627-.542.9-3.163-.723-2.621-2.44.813-5.241,1.717-7.771.723-2.169-.9-3.615-2.892-4.7-4.97-1.717-3.344-2.711-6.958-4.97-10.03-1.084-1.355-3.434,0-2.349,1.446Z" transform="translate(-1308.291 -296.681)" fill="#e8e8e8"/>
        </g>
      </g>
      <g id="Group_124" data-name="Group 124" transform="translate(503.679 145.689)">
        <g id="Group_123" data-name="Group 123">
          <path id="Path_62" data-name="Path 62" d="M1330.648,313.241a65.922,65.922,0,0,0,11.386-12.651c.994-1.446-1.355-2.8-2.349-1.355a60.6,60.6,0,0,1-10.934,12.109c-1.355,1.084.542,3.072,1.9,1.9Z" transform="translate(-1328.284 -298.616)" fill="#e8e8e8"/>
        </g>
      </g>
      <g id="Group_126" data-name="Group 126" transform="translate(499.339 142.862)">
        <g id="Group_125" data-name="Group 125">
          <path id="Path_63" data-name="Path 63" d="M1323.589,297.577a21.712,21.712,0,0,1,1.717,9.217c-.09,1.717,2.621,1.717,2.711,0a24.834,24.834,0,0,0-2.078-10.573c-.632-1.627-2.982-.271-2.349,1.355Z" transform="translate(-1323.481 -295.487)" fill="#e8e8e8"/>
        </g>
      </g>
      <g id="Group_128" data-name="Group 128" transform="translate(427.064 497.171)">
        <g id="Group_127" data-name="Group 127">
          <path id="Path_64" data-name="Path 64" d="M1243.5,688.863v36.146a1.357,1.357,0,0,0,2.711,0V688.863a1.357,1.357,0,0,0-2.711,0Z" transform="translate(-1243.5 -687.575)" fill="#e8e8e8"/>
        </g>
      </g>
      <g id="Group_130" data-name="Group 130" transform="translate(392.793 536.864)">
        <g id="Group_129" data-name="Group 129">
          <path id="Path_65" data-name="Path 65" d="M1206.863,734.211h95.787a1.357,1.357,0,0,0,0-2.711h-95.787a1.357,1.357,0,0,0,0,2.711Z" transform="translate(-1205.575 -731.5)" fill="#e8e8e8"/>
        </g>
      </g>
      <g id="Group_132" data-name="Group 132" transform="translate(446.04 540.546)">
        <g id="Group_131" data-name="Group 131">
          <path id="Path_66" data-name="Path 66" d="M1264.5,736.863v22.591a1.357,1.357,0,0,0,2.711,0V736.863a1.357,1.357,0,0,0-2.711,0Z" transform="translate(-1264.5 -735.575)" fill="#e8e8e8"/>
        </g>
      </g>
      <g id="Group_134" data-name="Group 134" transform="translate(391.889 565.78)">
        <g id="Group_133" data-name="Group 133">
          <path id="Path_67" data-name="Path 67" d="M1205.863,766.211h84.943a1.357,1.357,0,0,0,0-2.711h-84.943a1.357,1.357,0,0,0,0,2.711Z" transform="translate(-1204.575 -763.5)" fill="#e8e8e8"/>
        </g>
      </g>
      <g id="Group_136" data-name="Group 136" transform="translate(414.413 569.463)">
        <g id="Group_135" data-name="Group 135">
          <path id="Path_68" data-name="Path 68" d="M1229.5,768.863v17.169a1.357,1.357,0,0,0,2.711,0V768.863a1.357,1.357,0,0,0-2.711,0Z" transform="translate(-1229.5 -767.575)" fill="#e8e8e8"/>
        </g>
      </g>
      <g id="Group_138" data-name="Group 138" transform="translate(420.817 113.683)">
        <g id="Group_137" data-name="Group 137">
          <path id="Path_69" data-name="Path 69" d="M1239.219,282.719c0-3.8-.723-8.585,0-12.29.994-5.241,8.314-4.247,12.561-4.518,1.717-.09,1.717-2.8,0-2.711a102.126,102.126,0,0,0-10.482.723,5.209,5.209,0,0,0-3.8,2.078c-1.084,1.627-.9,3.886-.9,5.783v10.934a1.311,1.311,0,1,0,2.62,0Z" transform="translate(-1236.588 -263.198)" fill="#e8e8e8"/>
        </g>
      </g>
      <g id="Group_140" data-name="Group 140" transform="translate(405.84 28.175)">
        <g id="Group_139" data-name="Group 139">
          <path id="Path_70" data-name="Path 70" d="M1221.718,172.664a37.4,37.4,0,0,1,24.308,1.446c1.627.633,2.349-1.988.723-2.621A39.95,39.95,0,0,0,1221,170.043c-1.717.542-.994,3.163.723,2.621Z" transform="translate(-1220.014 -168.572)" fill="#e8e8e8"/>
        </g>
      </g>
      <g id="Group_142" data-name="Group 142" transform="translate(402.228 16.851)">
        <g id="Group_141" data-name="Group 141">
          <path id="Path_71" data-name="Path 71" d="M1217.99,163.323a25.109,25.109,0,0,1,24.037-2.621c1.626.633,2.349-1.988.723-2.621a27.5,27.5,0,0,0-26.115,2.892c-1.446.994-.09,3.343,1.355,2.349Z" transform="translate(-1216.016 -156.04)" fill="#e8e8e8"/>
        </g>
      </g>
      <g id="Group_144" data-name="Group 144" transform="translate(365.533 71.245)">
        <g id="Group_143" data-name="Group 143">
          <path id="Path_72" data-name="Path 72" d="M1184.708,216.474c-2.892,1.988-8.4,4.609-9.217,8.4-.361,1.988.542,3.8,1.265,5.6,1.265,3.163,2.53,6.326,3.886,9.488a382.958,382.958,0,0,0,17.621,36.236c.813,1.536,3.163.181,2.35-1.355q-7.455-13.555-13.826-27.652c-2.259-4.97-4.428-10.03-6.416-15.091-1.175-2.982-2.8-5.6-.632-8.675,1.265-1.807,4.518-3.343,6.416-4.609,1.355-.994,0-3.344-1.446-2.349Z" transform="translate(-1175.409 -216.234)" fill="#e8e8e8"/>
        </g>
      </g>
    </g>
    <g id="hand_r" transform="translate(556.754 540.516)">
      <path id="Path_73" data-name="Path 73" d="M749.35,706.6c-7.41,5.512-16.356,14.368-19.609,27.019-2.349,9.4-.09,14.91-.9,27.019-.542,8.4-2.711,20.242-9.669,34.339a173.383,173.383,0,0,0-73.738.813A171.207,171.207,0,0,0,600.7,813.05a25.877,25.877,0,0,0,7.048,3.163c16.9,4.609,34.7-9.579,35.242-8.585.542.9-19.88,10.482-18.8,18.8.723,5.6,10.753,8.585,21.145,11.747,8.765,2.621,17.079,5.151,28.194,3.886a57.716,57.716,0,0,0,30.543-13.374,131.83,131.83,0,0,0,19.609,7.862c15.452,4.7,36.778,11.205,50.966,2.349,9.217-5.783,12.018-19.338,17.26-46.267,6.326-32.8,9.308-49.249.813-62.713C781.61,711.932,758.748,707.775,749.35,706.6Z" transform="translate(-600.7 -595.361)" fill="#fff" stroke="#161616" stroke-miterlimit="10" stroke-width="3"/>
      <g id="Group_146" data-name="Group 146" transform="translate(114.634 197.891)">
        <g id="Group_145" data-name="Group 145">
          <path id="Path_74" data-name="Path 74" d="M728.5,805.21a52.462,52.462,0,0,1,26.206,21.326c.9,1.446,3.253.09,2.349-1.355a55.679,55.679,0,0,0-27.832-22.591c-1.717-.633-2.349,1.988-.723,2.621Z" transform="translate(-727.557 -802.492)" fill="#161616"/>
        </g>
      </g>
      <g id="Group_148" data-name="Group 148" transform="translate(33.97 218.392)">
        <g id="Group_147" data-name="Group 147">
          <path id="Path_75" data-name="Path 75" d="M661.7,825.2a30.169,30.169,0,0,0-23.314,19.157c-.633,1.627,1.988,2.349,2.621.723a27.515,27.515,0,0,1,21.417-17.26c1.717-.271.994-2.892-.723-2.621Z" transform="translate(-638.292 -825.178)" fill="#161616"/>
        </g>
      </g>
      <g id="Group_150" data-name="Group 150" transform="translate(54.777 227.207)">
        <g id="Group_149" data-name="Group 149">
          <path id="Path_76" data-name="Path 76" d="M676.573,835.174a86.639,86.639,0,0,0-10.934,7.952c-2.259,1.988-4.789,4.337-4.247,7.591,1.355,8.585,11.657,6.687,17.26,4.518,1.627-.633.9-3.253-.723-2.621-2.44.9-5.151,2.078-7.771,1.988-4.247-.181-8.042-4.247-4.428-7.952,3.434-3.615,7.952-6.506,12.2-9.217,1.446-.9.09-3.253-1.355-2.259Z" transform="translate(-661.318 -834.934)" fill="#161616"/>
        </g>
      </g>
      <path id="Path_77" data-name="Path 77" d="M846.273,583.5a138.454,138.454,0,0,0-17.079,7.139,111.8,111.8,0,0,0-11.838,6.687c-7.952,5.06-13.735,10.392-20.332,17.079-8.4,8.585-16.9,17.169-27.019,30.9-8.494,11.567-21.688,29.73-31.176,56.388A178.781,178.781,0,0,0,731.6,727.9a46.293,46.293,0,0,1,13.013-5.151c20.332-4.609,39.851,5.693,58.376,15.362,6.958,3.615,12.47,7.139,16.266,9.579,1.988-9.759,3.976-19.609,5.964-29.369,1.717-8.223,3.344-16.537,5.06-24.76a111.8,111.8,0,0,0,10.031-9.94c7.32-8.314,21.868-24.85,23.856-47.8C866.6,609.344,850.881,589.1,846.273,583.5Z" transform="translate(-613.313 -583.5)" fill="#ec615b"/>
      <g id="Group_152" data-name="Group 152" transform="translate(139.139 1.065)">
        <g id="Group_151" data-name="Group 151">
          <path id="Path_78" data-name="Path 78" d="M843.165,584.7c-9.669,1.446-17.983,6.6-25.483,12.561a227.47,227.47,0,0,0-24.4,22.23,261.465,261.465,0,0,0-38.4,51.056,1.356,1.356,0,0,0,2.349,1.355A255.969,255.969,0,0,1,794.1,622.47a276.9,276.9,0,0,1,21.959-20.513c8.223-6.777,16.989-13.1,27.832-14.729,1.717-.181.994-2.8-.723-2.53Z" transform="translate(-754.675 -584.678)" fill="#161616"/>
        </g>
      </g>
      <g id="Group_154" data-name="Group 154" transform="translate(202.903 99.345)">
        <g id="Group_153" data-name="Group 153">
          <path id="Path_79" data-name="Path 79" d="M846.168,693.856c-6.687,6.777-13.555,13.374-20.513,19.79-1.265,1.175.633,3.072,1.9,1.9,6.958-6.416,13.826-13.013,20.513-19.79,1.175-1.265-.723-3.163-1.9-1.9Z" transform="translate(-825.238 -693.438)" fill="#161616"/>
        </g>
      </g>
      <g id="Group_156" data-name="Group 156" transform="translate(117.689 111.155)">
        <g id="Group_155" data-name="Group 155">
          <path id="Path_80" data-name="Path 80" d="M827.684,707.495c-3.163,17.35-6.235,34.79-9.4,52.14.633-.271,1.355-.542,1.988-.813a154.666,154.666,0,0,0-47.351-22.23c-13.284-3.615-30.182-7.139-41.568,2.892-1.265,1.175.633,3.072,1.9,1.9,11.567-10.3,30.272-4.88,43.375-.9a152.505,152.505,0,0,1,42.2,20.6,1.375,1.375,0,0,0,1.988-.813c3.163-17.35,6.235-34.79,9.4-52.141.362-1.626-2.259-2.349-2.53-.632Z" transform="translate(-730.938 -706.507)" fill="#161616"/>
        </g>
      </g>
      <g id="Group_158" data-name="Group 158" transform="translate(118.014 84.99)">
        <g id="Group_157" data-name="Group 157">
          <path id="Path_81" data-name="Path 81" d="M753.258,678.228c-9.4,18.344-21.145,37.23-21.959,58.466-.09,1.717,2.621,1.717,2.711,0,.813-20.694,12.38-39.128,21.6-57.111.723-1.536-1.627-2.892-2.349-1.355Z" transform="translate(-731.298 -677.552)" fill="#161616"/>
        </g>
      </g>
      <path id="Path_82" data-name="Path 82" d="M826.64,640.5a413.977,413.977,0,0,0-30.091,78.256c-7.5,27.832-10.121,49.791-29.549,68.045a78.76,78.76,0,0,1-27.109,16.9c-30.724,11.115-53.5-3.886-72.834,12.018-2.169,1.807-8.585,6.326-7.862,11.476.723,4.88,7.41,7.41,8.4,7.862,7.952,3.072,16.175-.09,26.477-4.247,11.657-4.7,10.392-6.326,15.633-7.229,11.024-1.9,16.085,5.06,30.724,9.669,6.235,1.9,24.67,7.681,37.953,0,9.759-5.693,12.741-16.356,17.44-34.339A185.14,185.14,0,0,0,801.88,746.5l10.844,8.4Q819.772,697.7,826.64,640.5Z" transform="translate(-606.331 -588.992)" fill="#3d3d3d" opacity="0.4"/>
      <path id="Path_83" data-name="Path 83" d="M830.984,683.8A243,243,0,0,0,809.3,740.368c-6.506,26.838-4.428,39.489-13.284,58.376-9.488,20.513-24.85,33.525-35.513,40.935,5.964,1.356,20.332,3.886,30.724-4.247,7.32-5.693,9.217-13.826,12.019-27.109,3.524-16.356,7.229-34.971,10.844-55.394l8.4,5.422C825.382,733.591,828.183,708.65,830.984,683.8Z" transform="translate(-616.097 -593.164)" fill="#3d3d3d" opacity="0.38"/>
    </g>
    <g id="torso" transform="translate(746.271 518.524)">
      <path id="Path_84" data-name="Path 84" d="M852.093,579.648q-4.88,31.854-9.488,64.159-17.892,125.11-30.9,245.973a24.632,24.632,0,0,0,3.615,11.386,25.15,25.15,0,0,0,8.042,7.862c16.446,11.747,24.67,17.711,32.983,21.688,39.851,19.248,83.949,16.989,83.949,16.989,9.308-.452,27.832-1.627,47.713-9.579,1.084-.452,8.675-3.976,23.856-11.115,13.735-6.416,16.175-7.681,19.519-10.753,7.952-7.32,11.024-16.356,13.1-22.772a78.538,78.538,0,0,0,3.8-28.013s-.9-22.5-1.536-153.891c-.09-26.748,2.53-66.057,16.627-114.583-14.639-7.139-28.375-13.735-44.911-21.687-11.386-5.512-21.959-10.573-37.14-12.38a93.594,93.594,0,0,0-14.006-.633c-23.495.181-42.833,3.8-51.146,5.241C899.986,570.159,878.118,574.135,852.093,579.648Z" transform="translate(-810.548 -559.462)" fill="#ec615b"/>
      <g id="Group_160" data-name="Group 160" transform="translate(39.137 5.705)">
        <g id="Group_159" data-name="Group 159">
          <path id="Path_85" data-name="Path 85" d="M855.42,583.119c28.013-5.964,56.3-10.753,84.672-14.278,1.265-.181,1.988-1.807.723-2.53-.361-.181-.723-.452-1.175-.633a1.356,1.356,0,0,0-1.355,2.349c.361.181.723.452,1.175.633.271-.813.452-1.717.723-2.53-28.646,3.524-57.2,8.314-85.395,14.368-1.807.361-1.084,2.982.633,2.621Z" transform="translate(-853.735 -565.475)" fill="#161616"/>
        </g>
      </g>
      <g id="Group_162" data-name="Group 162" transform="translate(0 69.718)">
        <g id="Group_161" data-name="Group 161">
          <path id="Path_86" data-name="Path 86" d="M842.843,637.3q-14.91,106.269-27.109,212.9c-.994,8.946-1.988,17.8-2.982,26.748-.813,7.771-3.072,16.537-2.078,24.308.9,6.868,6.326,11.205,11.3,15.362a181.354,181.354,0,0,0,17.079,12.651,169.376,169.376,0,0,0,181.181,2.078c1.446-.9.09-3.253-1.355-2.349-51.689,31.537-117.474,32.8-170.157,2.892A171.051,171.051,0,0,1,831.186,920.5c-5.693-4.247-14.91-10.03-17.26-16.989-1.084-3.344-.542-7.048-.181-10.573.452-4.428.994-8.946,1.446-13.374.9-8.314,1.807-16.627,2.8-24.941,3.886-33.887,7.862-67.683,12.2-101.48q7.32-57.608,15.362-115.125c.181-1.717-2.44-2.44-2.711-.723Z" transform="translate(-810.425 -636.314)" fill="#161616"/>
        </g>
      </g>
      <g id="Group_164" data-name="Group 164" transform="translate(164.544)">
        <g id="Group_163" data-name="Group 163">
          <path id="Path_87" data-name="Path 87" d="M993.5,561.817c15.9,3.163,30.814,10.482,45.634,16.718,14.549,6.145,30.724,11.115,43.556,20.513,1.446.994,2.8-1.355,1.355-2.349-12.561-9.217-28.375-14.1-42.562-20.061-15.362-6.416-30.814-14.1-47.261-17.44-1.717-.362-2.44,2.259-.723,2.62Z" transform="translate(-992.514 -559.162)" fill="#161616"/>
        </g>
      </g>
      <g id="Group_166" data-name="Group 166" transform="translate(207.532 154.558)">
        <g id="Group_165" data-name="Group 165">
          <path id="Path_88" data-name="Path 88" d="M1068.925,731.555c-1.446,38.044-2.892,76.087-1.536,114.04.633,18.434,3.524,37.592.09,55.936-2.892,15.091-11.386,30.182-26.477,35.784-1.627.633-.9,3.253.723,2.621,24.037-8.946,30.272-36.327,29.911-59.279-.181-15.543-1.536-31.086-1.9-46.719-.361-15.9-.181-31.718.09-47.622.361-18.254,1.084-36.507,1.717-54.761.181-1.807-2.53-1.807-2.621,0Z" transform="translate(-1040.085 -730.2)" fill="#161616"/>
        </g>
      </g>
      <path id="Path_89" data-name="Path 89" d="M1036.846,706.752a198.478,198.478,0,0,1-23.856,52.321C961.21,838.685,866.418,854.589,842.2,857.933q48.8,5.151,98.678,11.115,55.032,6.506,108.618,13.645c-2.259-40.393-2.259-73.647-1.717-97.413.994-49.158,4.518-88.919-1.9-90.184C1044.346,694.734,1041.635,696.451,1036.846,706.752Z" transform="translate(-813.487 -572.256)" fill="#3d3d3d" opacity="0.38"/>
      <path id="Path_90" data-name="Path 90" d="M1053.5,740.7a376.252,376.252,0,0,1-15.543,38.767c-10.3,22.139-20.151,43.465-32.893,56.568-35.6,36.6-105.185,20.784-105.365,23.314-.09,1.446,25.392,5.512,154.072,17.35Q1053.772,808.654,1053.5,740.7Z" transform="translate(-819.027 -576.654)" fill="#3d3d3d" opacity="0.42"/>
    </g>
    <g id="table" transform="translate(144.6 752.151)">
      <path id="Path_91" data-name="Path 91" d="M1143.206,1120.693Q645.748,1054.275,148.2,987.947,295,902.824,441.885,817.7q448.8,44.188,897.683,88.467Q1241.3,1013.385,1143.206,1120.693Z" transform="translate(-144.947 -817.7)" fill="#fff" stroke="#161616" stroke-miterlimit="10" stroke-width="3"/>
      <path id="Path_92" data-name="Path 92" d="M144.6,1014.6q498.678,66.147,997.265,132.294" transform="translate(-144.6 -836.672)" fill="none" stroke="#161616" stroke-miterlimit="10" stroke-width="16"/>
      <path id="Path_93" data-name="Path 93" d="M1241.2,1139.632q104.507-110.471,208.923-221.032" transform="translate(-250.26 -827.422)" fill="none" stroke="#161616" stroke-miterlimit="10" stroke-width="16"/>
      <g id="Group_168" data-name="Group 168" transform="translate(779.845 118.334)">
        <g id="Group_167" data-name="Group 167">
          <path id="Path_94" data-name="Path 94" d="M1107.724,948.966q-50.83,39.715-99.672,81.78c-1.355,1.175.633,3.072,1.9,1.9q48.933-42.02,99.672-81.78c1.355-.994-.542-2.982-1.9-1.9Z" transform="translate(-1007.597 -948.652)" fill="#161616"/>
        </g>
      </g>
      <g id="Group_170" data-name="Group 170" transform="translate(780.577 199.292)">
        <g id="Group_169" data-name="Group 169">
          <path id="Path_95" data-name="Path 95" d="M1009.395,1040.825c10.663,2.259,21.507,2.259,32.441,2.349,12.29.181,23.856,1.446,35.6,4.88,22.049,6.416,43.646,10.663,66.689,10.121a1.357,1.357,0,0,0,0-2.711,194,194,0,0,1-35.423-2.349c-11.024-1.807-21.507-5.06-32.26-8.042a122.184,122.184,0,0,0-31.357-4.428c-11.747-.271-23.495.09-35.061-2.349a1.3,1.3,0,0,0-.633,2.53Z" transform="translate(-1008.407 -1038.242)" fill="#161616"/>
        </g>
      </g>
      <g id="Group_172" data-name="Group 172" transform="translate(880.672 117.917)">
        <g id="Group_171" data-name="Group 171">
          <path id="Path_96" data-name="Path 96" d="M1120.463,950.91a680.385,680.385,0,0,1,106.179,17.079,1.36,1.36,0,0,0,.723-2.621,677.3,677.3,0,0,0-106.9-17.169c-1.717-.181-1.717,2.53,0,2.711Z" transform="translate(-1119.175 -948.19)" fill="#161616"/>
        </g>
      </g>
      <g id="Group_174" data-name="Group 174" transform="translate(916.062 137.159)">
        <g id="Group_173" data-name="Group 173">
          <path id="Path_97" data-name="Path 97" d="M1160.653,1049.923c25.212-24.941,49.429-50.966,72.382-78.075,1.084-1.355-.813-3.253-1.9-1.9-22.953,27.019-47.17,53.044-72.382,78.075a1.342,1.342,0,0,0,1.9,1.9Z" transform="translate(-1158.338 -969.484)" fill="#161616"/>
        </g>
      </g>
      <g id="Group_176" data-name="Group 176" transform="translate(811.814 187.015)">
        <g id="Group_175" data-name="Group 175">
          <path id="Path_98" data-name="Path 98" d="M1044.263,1028.762a189.026,189.026,0,0,1,91.72,11.476c1.627.632,2.349-1.988.723-2.621a191.972,191.972,0,0,0-92.443-11.567c-1.717.181-1.717,2.892,0,2.711Z" transform="translate(-1042.975 -1024.656)" fill="#161616"/>
        </g>
      </g>
      <g id="Group_178" data-name="Group 178" transform="translate(858.86 178.468)">
        <g id="Group_177" data-name="Group 177">
          <path id="Path_99" data-name="Path 99" d="M1096.359,1017.911a365.158,365.158,0,0,1,56.749,8.856,1.36,1.36,0,0,0,.723-2.621,362.112,362.112,0,0,0-57.472-8.946c-1.807-.09-1.717,2.621,0,2.711Z" transform="translate(-1095.037 -1015.198)" fill="#161616"/>
        </g>
      </g>
      <g id="Group_180" data-name="Group 180" transform="translate(844.526 158.5)">
        <g id="Group_179" data-name="Group 179">
          <path id="Path_100" data-name="Path 100" d="M1080.463,995.811a348.661,348.661,0,0,1,85.214,12.47,1.36,1.36,0,0,0,.723-2.621,353.916,353.916,0,0,0-85.937-12.561,1.357,1.357,0,0,0,0,2.711Z" transform="translate(-1079.175 -993.1)" fill="#161616"/>
        </g>
      </g>
      <g id="Group_182" data-name="Group 182" transform="translate(880.617 150.257)">
        <g id="Group_181" data-name="Group 181">
          <path id="Path_101" data-name="Path 101" d="M1120.1,986.619c15.543,2.169,30.9,4.88,46.267,8.133,1.717.361,2.44-2.259.723-2.621-15.362-3.253-30.724-5.964-46.267-8.133-1.717-.271-2.44,2.349-.723,2.621Z" transform="translate(-1119.114 -983.978)" fill="#161616"/>
        </g>
      </g>
      <g id="Group_184" data-name="Group 184" transform="translate(844.996 212.914)">
        <g id="Group_183" data-name="Group 183">
          <path id="Path_102" data-name="Path 102" d="M1096.507,1053.934c-5.512,8.494-11.025,16.989-16.627,25.392a1.4,1.4,0,0,0,1.175,2.078,380.357,380.357,0,0,1,133.288,8.494,1.36,1.36,0,0,0,.723-2.621,384.511,384.511,0,0,0-134.011-8.675c.361.723.813,1.355,1.175,2.078,5.512-8.494,11.024-16.989,16.627-25.392.994-1.446-1.356-2.8-2.349-1.356Z" transform="translate(-1079.695 -1053.316)" fill="#161616"/>
        </g>
      </g>
      <g id="Group_186" data-name="Group 186" transform="translate(969.783 158.409)">
        <g id="Group_185" data-name="Group 185">
          <path id="Path_103" data-name="Path 103" d="M1219.064,996.8l52.231-1.084a20.817,20.817,0,0,1-1.265-1.717q-18.028,42.968-36.146,85.846c-.633,1.627,1.988,2.349,2.621.723q18.028-42.968,36.146-85.847c.361-.813-.542-1.717-1.265-1.717l-52.231,1.084c-1.807.09-1.807,2.8-.09,2.711Z" transform="translate(-1217.787 -993)" fill="#161616"/>
        </g>
      </g>
      <g id="Group_188" data-name="Group 188" transform="translate(903.298 225.938)">
        <g id="Group_187" data-name="Group 187">
          <path id="Path_104" data-name="Path 104" d="M1145.918,1071.317a51.274,51.274,0,0,1,13.916-.723c1.717.09,1.717-2.621,0-2.711a56.739,56.739,0,0,0-14.639.813c-1.717.271-.994,2.892.723,2.621Z" transform="translate(-1144.214 -1067.729)" fill="#161616"/>
        </g>
      </g>
      <g id="Group_190" data-name="Group 190" transform="translate(929.379 227.084)">
        <g id="Group_189" data-name="Group 189">
          <path id="Path_105" data-name="Path 105" d="M1174.363,1071.711a373.1,373.1,0,0,1,42.471,4.066c1.717.271,2.44-2.349.723-2.621a363.941,363.941,0,0,0-43.194-4.157c-1.717-.09-1.717,2.621,0,2.711Z" transform="translate(-1173.075 -1068.998)" fill="#161616"/>
        </g>
      </g>
      <g id="Group_192" data-name="Group 192" transform="translate(930.192 210.098)">
        <g id="Group_191" data-name="Group 191">
          <path id="Path_106" data-name="Path 106" d="M1175.263,1052.911h10.121a1.357,1.357,0,0,0,0-2.711h-10.121a1.357,1.357,0,0,0,0,2.711Z" transform="translate(-1173.975 -1050.2)" fill="#161616"/>
        </g>
      </g>
      <g id="Group_194" data-name="Group 194" transform="translate(951.247 209.827)">
        <g id="Group_193" data-name="Group 193">
          <path id="Path_107" data-name="Path 107" d="M1198.563,1052.611a240.862,240.862,0,0,1,33.164,3.163c1.717.271,2.44-2.349.723-2.621a265.505,265.505,0,0,0-33.887-3.253,1.357,1.357,0,0,0,0,2.711Z" transform="translate(-1197.275 -1049.9)" fill="#161616"/>
        </g>
      </g>
      <g id="Group_196" data-name="Group 196" transform="translate(949.53 194.372)">
        <g id="Group_195" data-name="Group 195">
          <path id="Path_108" data-name="Path 108" d="M1196.663,1035.511a376.669,376.669,0,0,1,37.773,2.349c1.717.181,1.717-2.53,0-2.711a351.7,351.7,0,0,0-37.773-2.349c-1.717-.09-1.717,2.62,0,2.711Z" transform="translate(-1195.375 -1032.798)" fill="#161616"/>
        </g>
      </g>
      <g id="Group_198" data-name="Group 198" transform="translate(864.677 222.426)">
        <g id="Group_197" data-name="Group 197">
          <path id="Path_109" data-name="Path 109" d="M1102.763,1068.5a67.385,67.385,0,0,0,17.983-1.988,1.36,1.36,0,0,0-.723-2.621,61.714,61.714,0,0,1-17.26,1.9,1.357,1.357,0,0,0,0,2.711Z" transform="translate(-1101.475 -1063.842)" fill="#161616"/>
        </g>
      </g>
      <g id="Group_200" data-name="Group 200" transform="translate(905.438 84.981)">
        <g id="Group_199" data-name="Group 199">
          <path id="Path_110" data-name="Path 110" d="M1150.032,912.246c-2.349,2.892-5.06,8.765-2.259,12.29,1.717,2.169,4.97,1.717,7.41,1.807,4.428.181,8.856.452,13.284.633,17.983.813,35.875,1.717,53.857,2.53,1.717.09,1.717-2.621,0-2.711-13.284-.633-26.477-1.265-39.76-1.9-6.506-.271-12.922-.633-19.428-.9-3.163-.181-6.506,0-9.669-.452-2.349-.361-4.066-.452-3.976-3.344a10.58,10.58,0,0,1,2.44-6.054c1.084-1.355-.813-3.343-1.9-1.9Z" transform="translate(-1146.581 -911.742)" fill="#161616"/>
        </g>
      </g>
      <g id="Group_202" data-name="Group 202" transform="translate(910.041 86.118)">
        <g id="Group_201" data-name="Group 201">
          <path id="Path_111" data-name="Path 111" d="M1152.963,915.8c15.181.542,30.362.994,45.544,1.536,7.41.271,14.91.452,22.32.723,6.687.271,13.735.723,18.525,5.874,1.175,1.265,3.072-.633,1.9-1.9-3.615-3.976-8.494-5.512-13.735-6.235-7.771-.994-15.814-.813-23.676-1.084-16.989-.542-33.977-1.175-50.875-1.717-1.717.09-1.717,2.8,0,2.8Z" transform="translate(-1151.675 -913)" fill="#161616"/>
        </g>
      </g>
      <g id="Group_204" data-name="Group 204" transform="translate(978.921 94.01)">
        <g id="Group_203" data-name="Group 203">
          <path id="Path_112" data-name="Path 112" d="M1229.255,930.559a31.183,31.183,0,0,0,19.157-6.235c1.355-.994,0-3.344-1.355-2.349a28.674,28.674,0,0,1-17.8,5.874,1.355,1.355,0,0,0,0,2.711Z" transform="translate(-1227.9 -921.734)" fill="#161616"/>
        </g>
      </g>
      <g id="Group_206" data-name="Group 206" transform="translate(977.787 88.678)">
        <g id="Group_205" data-name="Group 205">
          <path id="Path_113" data-name="Path 113" d="M1231.3,916.074a10.426,10.426,0,0,0-4.247,11.567,1.361,1.361,0,0,0,2.621-.723,7.766,7.766,0,0,1,2.982-8.585c1.446-.9.09-3.253-1.356-2.259Z" transform="translate(-1226.645 -915.834)" fill="#161616"/>
        </g>
      </g>
    </g>
    <g id="laptop" transform="translate(380.362 641.002)">
      <path id="Path_182" data-name="Path 182" d="M788.379,1005.183,459,948.8Q559.034,908.4,659.068,868.1q156.421,34.836,312.752,69.671Q880.19,971.522,788.379,1005.183Z" transform="translate(-410.655 -711.408)" fill="#fff" stroke="#161616" stroke-miterlimit="10" stroke-width="3"/>
      <g id="Group_344" data-name="Group 344" transform="translate(373.074 292.758)">
        <g id="Group_343" data-name="Group 343">
          <path id="Path_183" data-name="Path 183" d="M818.486,1021.047c.362,1.084.633,2.259.994,3.343a1.339,1.339,0,0,0,2.621-.361v-2.621a1.357,1.357,0,0,0-2.711,0,7.206,7.206,0,0,1-.633,3.072h2.621a6.643,6.643,0,0,1-.181-3.524,22.7,22.7,0,0,0-2.44.362.478.478,0,0,1,.09.723,22.69,22.69,0,0,1,2.44.361,1.936,1.936,0,0,1,.271-1.717c-.813-.271-1.717-.452-2.53-.723-.181,1.446-.362,2.8-.542,4.247-.09.723.723,1.355,1.355,1.355a1.39,1.39,0,0,0,1.355-1.355c.181-1.446.362-2.8.542-4.247.181-1.355-1.9-1.717-2.53-.723a4.875,4.875,0,0,0-.542,3.886,1.361,1.361,0,0,0,2.44.361,2.845,2.845,0,0,0-.09-3.434c-.633-.813-2.259-.9-2.44.361a10.3,10.3,0,0,0,.181,4.97,1.379,1.379,0,0,0,2.621,0,11.289,11.289,0,0,0,.723-3.8H819.39v2.62c.9-.09,1.807-.271,2.621-.361-.361-1.084-.633-2.259-.994-3.344a1.3,1.3,0,1,0-2.53.542Z" transform="translate(-818.353 -1018.674)" fill="#161616"/>
        </g>
      </g>
      <g id="Group_346" data-name="Group 346" transform="translate(373.223 231.712)">
        <g id="Group_345" data-name="Group 345">
          <path id="Path_184" data-name="Path 184" d="M820.58,1021.044c14.549-7.5,30.453-11.476,46.086-15.9a195.02,195.02,0,0,0,22.591-7.591c7.048-2.892,13.826-6.506,20.784-9.759,15.452-7.229,32.17-11.928,48.345-17.26,16.808-5.6,33.525-11.205,50.333-16.717,1.627-.542.9-3.163-.723-2.621-16.808,5.6-33.525,11.205-50.333,16.717-15.9,5.241-32.26,9.94-47.532,16.9-7.952,3.615-15.724,7.862-23.856,11.024-7.41,2.892-15,5.151-22.682,7.32-15.091,4.338-30.363,8.314-44.459,15.543-1.446.813-.09,3.163,1.446,2.349Z" transform="translate(-818.519 -951.119)" fill="#161616"/>
        </g>
      </g>
      <g id="Group_348" data-name="Group 348" transform="translate(371.605 227.295)">
        <g id="Group_347" data-name="Group 347">
          <path id="Path_185" data-name="Path 185" d="M821.673,1020.031q93.663-32.4,186.965-65.7c4.88-1.717,2.8-9.579-2.169-7.862q-93.257,33.345-186.965,65.7c-4.88,1.717-2.8,9.579,2.169,7.862Z" transform="translate(-816.728 -946.23)" fill="#161616"/>
        </g>
      </g>
      <g id="Group_350" data-name="Group 350" transform="translate(368.214 211.09)">
        <g id="Group_349" data-name="Group 349">
          <path id="Path_186" data-name="Path 186" d="M814.263,931.011c11.747,1.175,21.778,8.314,33.345,10.573,1.717.362,2.44-2.259.723-2.621-11.747-2.349-21.959-9.488-34.068-10.663-1.717-.09-1.717,2.621,0,2.711Z" transform="translate(-812.975 -928.298)" fill="#161616"/>
        </g>
      </g>
      <g id="Group_352" data-name="Group 352" transform="translate(401.628 206.927)">
        <g id="Group_351" data-name="Group 351">
          <path id="Path_187" data-name="Path 187" d="M851.983,939.874a104.746,104.746,0,0,0,19.88-13.916c1.265-1.175-.633-3.072-1.9-1.9a101.556,101.556,0,0,1-19.338,13.464,1.356,1.356,0,0,0,1.355,2.349Z" transform="translate(-849.952 -923.691)" fill="#161616"/>
        </g>
      </g>
      <g id="Group_354" data-name="Group 354" transform="translate(370.329 194.533)">
        <g id="Group_353" data-name="Group 353">
          <path id="Path_188" data-name="Path 188" d="M817.29,924.094c5.693-4.066,11.567-7.952,17.621-11.567,1.536-.9.09-3.253-1.355-2.349-6.054,3.615-11.928,7.41-17.621,11.567-1.446,1.084-.09,3.434,1.355,2.349Z" transform="translate(-815.316 -909.975)" fill="#161616"/>
        </g>
      </g>
      <g id="Group_356" data-name="Group 356" transform="translate(389.459 194.843)">
        <g id="Group_355" data-name="Group 355">
          <path id="Path_189" data-name="Path 189" d="M837.4,913.013c10.3,3.886,20.6,7.681,31,11.567,1.627.633,2.349-1.988.723-2.621-10.3-3.886-20.6-7.681-31-11.567-1.627-.542-2.349,2.078-.723,2.621Z" transform="translate(-836.485 -910.319)" fill="#161616"/>
        </g>
      </g>
      <g id="Group_358" data-name="Group 358" transform="translate(360.387 221.411)">
        <g id="Group_357" data-name="Group 357">
          <path id="Path_190" data-name="Path 190" d="M805.3,942.413q40.8,12.606,80.334,29.007c1.627.633,2.349-1.988.723-2.621q-39.444-16.4-80.334-29.007c-1.717-.542-2.44,2.078-.723,2.621Z" transform="translate(-804.314 -939.719)" fill="#161616"/>
        </g>
      </g>
      <g id="Group_360" data-name="Group 360" transform="translate(363.313 242.674)">
        <g id="Group_359" data-name="Group 359">
          <path id="Path_191" data-name="Path 191" d="M808.228,965.735c16.9,8.133,33.977,15.814,51.237,23.314,1.627.723,2.982-1.627,1.355-2.349q-25.889-11.115-51.237-23.314c-1.536-.723-2.892,1.627-1.355,2.349Z" transform="translate(-807.552 -963.249)" fill="#161616"/>
        </g>
      </g>
      <g id="Group_362" data-name="Group 362" transform="translate(365.753 265.865)">
        <g id="Group_361" data-name="Group 361">
          <path id="Path_192" data-name="Path 192" d="M810.928,991.432c9.217,4.7,18.434,9.488,27.652,14.187,1.536.813,2.892-1.536,1.355-2.349-9.217-4.7-18.434-9.488-27.652-14.187-1.536-.813-2.892,1.536-1.355,2.349Z" transform="translate(-810.252 -988.913)" fill="#161616"/>
        </g>
      </g>
      <g id="Group_364" data-name="Group 364" transform="translate(369.306 236.606)">
        <g id="Group_363" data-name="Group 363">
          <path id="Path_193" data-name="Path 193" d="M816.548,989.125a416.21,416.21,0,0,1,40.032-30c1.446-.994.09-3.344-1.355-2.349a428,428,0,0,0-40.574,30.453c-1.355,1.175.542,3.072,1.9,1.9Z" transform="translate(-814.184 -956.534)" fill="#161616"/>
        </g>
      </g>
      <g id="Group_366" data-name="Group 366" transform="translate(366.41 232.81)">
        <g id="Group_365" data-name="Group 365">
          <path id="Path_194" data-name="Path 194" d="M812.9,970.2c7.229-5.06,14.458-10.121,21.688-15.272,1.446-.994.09-3.344-1.355-2.349-7.229,5.06-14.458,10.121-21.687,15.272-1.355.994,0,3.344,1.355,2.349Z" transform="translate(-810.979 -952.334)" fill="#161616"/>
        </g>
      </g>
      <path id="Path_195" data-name="Path 195" d="M778.345,994.711,437.579,936.7q-15.995-121.044-32.079-242,183.4,24.67,366.7,49.43Q775.318,869.375,778.345,994.711Z" transform="translate(-405.5 -694.7)" fill="#fff" stroke="#161616" stroke-miterlimit="10" stroke-width="3"/>
      <g id="Group_368" data-name="Group 368" transform="translate(151.568 108.091)">
        <g id="Group_367" data-name="Group 367">
          <path id="Path_196" data-name="Path 196" d="M592.089,866.623c-9.85-3.072-15.181-11.386-15.995-21.416-.813-10.211,1.175-20.061,10.663-25.392,8.4-4.7,18.434-3.344,25.935,2.349s14.187,17.35,8.133,26.3c-.994,1.446,1.355,2.8,2.349,1.355,6.506-9.579.362-22.23-7.591-28.826-8.223-6.777-19.338-8.856-29.007-4.066-11.205,5.512-14.1,16.717-13.193,28.375.9,11.3,6.868,20.6,17.983,24.037,1.627.452,2.35-2.169.723-2.711Z" transform="translate(-573.229 -814.317)" fill="#161616"/>
        </g>
      </g>
      <g id="Group_370" data-name="Group 370" transform="translate(167.844 134.821)">
        <g id="Group_369" data-name="Group 369">
          <path id="Path_197" data-name="Path 197" d="M596.355,870.467c-4.157-6.868-2.8-16.446,3.886-21.236s16.266-2.8,21.326,3.344c1.084,1.355,2.982-.542,1.9-1.9-5.964-7.139-17.169-9.127-24.941-3.615-7.771,5.6-9.4,16.808-4.518,24.76.9,1.446,3.253.09,2.349-1.356Z" transform="translate(-591.241 -843.896)" fill="#161616"/>
        </g>
      </g>
      <g id="Group_372" data-name="Group 372" transform="translate(176.875 145.171)">
        <g id="Group_371" data-name="Group 371">
          <path id="Path_198" data-name="Path 198" d="M606.625,875.366c-4.247-4.518-3.615-12.922,2.078-16.175,5.6-3.253,13.193.452,15,6.416.542,1.627,3.163.994,2.621-.723-2.349-7.591-11.838-12.109-18.977-7.952s-8.042,14.639-2.621,20.422c1.175,1.175,3.072-.723,1.9-1.988Z" transform="translate(-601.235 -855.35)" fill="#161616"/>
        </g>
      </g>
      <g id="Group_374" data-name="Group 374" transform="translate(184.965 158.258)">
        <g id="Group_373" data-name="Group 373">
          <path id="Path_199" data-name="Path 199" d="M614.446,883.087a7.324,7.324,0,0,0,8.946-4.157c1.446-3.344-.452-6.958-3.615-8.4s-6.958-.633-8.675,2.44a7.445,7.445,0,0,0,1.627,9.217c1.355,1.084,3.253-.813,1.9-1.9-3.615-2.8-1.084-9.4,3.7-7.41,2.078.813,3.524,2.982,2.53,5.241a4.592,4.592,0,0,1-5.693,2.44c-1.627-.633-2.35,1.988-.723,2.53Z" transform="translate(-610.188 -869.832)" fill="#161616"/>
        </g>
      </g>
      <line id="Line_1" data-name="Line 1" x2="7.952" y2="248.955" transform="translate(366.7 49.339)" fill="none" stroke="#161616" stroke-miterlimit="10" stroke-width="3"/>
      <path id="Path_200" data-name="Path 200" d="M811.9,749.1q3.66,122.806,7.32,245.611" transform="translate(-444.658 -699.942)" fill="none" stroke="#161616" stroke-miterlimit="10" stroke-width="3"/>
      <path id="Path_201" data-name="Path 201" d="M626.3,730.7c5.874,3.072,56.3,30.543,59.821,79.34,1.988,26.929-11.205,47.351-19.519,59.821-44.821,67.412-133.469,79.34-157.506,81.87,34.971,23.224,157.144,99.763,290.7,95.244,29.73-.994,75.816-3.073,125.788-30.543,37.5-20.6,61.809-47.08,75.726-64.7-8.585-5.332-17.079-10.573-25.664-15.9q-94.612,32.4-189.314,64.7-4.88-125.246-9.759-250.4Q701.351,740.64,626.3,730.7Z" transform="translate(-415.482 -698.169)" fill="#3d3d3d" opacity="0.37"/>
      <path id="Path_202" data-name="Path 202" d="M559.3,973.889a385.847,385.847,0,0,0,53.406,29.549c29.278,13.374,115.938,52.954,209.827,31,68.225-15.995,121-59.822,117.564-67.051-2.169-4.518-28.646.181-146.572,47.08q-2.846-57.336-5.6-114.763c-3.253,32.17-6.6,64.34-9.85,96.419Q668.687,985.14,559.3,973.889Z" transform="translate(-420.319 -714.452)" fill="#3d3d3d" opacity="0.5"/>
    </g>
    <g id="color" transform="translate(536.646 754.94)">
      <path id="Path_203" data-name="Path 203" d="M585.453,863.27a25.834,25.834,0,0,1-5.512-26.206c3.344-8.946,12.2-16.627,22.772-16.266a23.143,23.143,0,0,1,19.519,13.013,20.25,20.25,0,0,1,1.536,9.036,15.228,15.228,0,0,1-1.717,5.512,18.7,18.7,0,0,0-18.254-6.235c-8.133,1.9-11.657,8.856-12.018,9.488a18.035,18.035,0,0,0,0,15.452C589.61,865.71,587.532,864.445,585.453,863.27Z" transform="translate(-578.449 -820.786)" fill="#5222d0"/>
    </g>
    <g id="hand_L" transform="translate(853.421 550.728)">
      <path id="Path_204" data-name="Path 204" d="M1076.475,741.109a72.534,72.534,0,0,0-14.91,14.91c-17.8,23.947-15.362,52.05-14.1,61.177a173.383,173.383,0,0,0-73.738.813A171.2,171.2,0,0,0,929,835.269a25.879,25.879,0,0,0,7.048,3.163c16.9,4.609,34.7-9.579,35.242-8.585.542.9-19.88,10.482-18.8,18.8.723,5.6,10.753,8.585,21.145,11.747,8.765,2.621,17.079,5.151,28.194,3.886a57.716,57.716,0,0,0,30.543-13.374,131.83,131.83,0,0,0,19.609,7.862c15.452,4.7,36.778,11.205,50.966,2.349,9.217-5.783,12.019-19.338,17.26-46.267,6.687-34.519,10.031-51.779.813-62.713C1108.826,737.584,1084.337,740.024,1076.475,741.109Z" transform="translate(-929 -608.815)" fill="#fff" stroke="#161616" stroke-miterlimit="10" stroke-width="3"/>
      <g id="Group_376" data-name="Group 376" transform="translate(114.479 206.591)">
        <g id="Group_375" data-name="Group 375">
          <path id="Path_205" data-name="Path 205" d="M1056.6,826.113a52.461,52.461,0,0,1,26.206,21.326c.9,1.446,3.253.09,2.349-1.355a55.679,55.679,0,0,0-27.832-22.591c-1.626-.542-2.349,2.078-.723,2.621Z" transform="translate(-1055.685 -823.419)" fill="#161616"/>
        </g>
      </g>
      <g id="Group_378" data-name="Group 378" transform="translate(33.879 227.157)">
        <g id="Group_377" data-name="Group 377">
          <path id="Path_206" data-name="Path 206" d="M989.9,846.2a30.169,30.169,0,0,0-23.314,19.157c-.633,1.627,1.988,2.349,2.621.723a27.515,27.515,0,0,1,21.417-17.26c1.717-.271.994-2.892-.723-2.621Z" transform="translate(-966.492 -846.178)" fill="#161616"/>
        </g>
      </g>
      <g id="Group_380" data-name="Group 380" transform="translate(34.825 245.736)">
        <g id="Group_379" data-name="Group 379">
          <path id="Path_207" data-name="Path 207" d="M967.956,869.053a20.583,20.583,0,0,0,20.694,4.789c1.627-.542.9-3.163-.723-2.621a17.764,17.764,0,0,1-18.073-4.066,1.342,1.342,0,0,0-1.9,1.9Z" transform="translate(-967.538 -866.738)" fill="#161616"/>
        </g>
      </g>
      <g id="Group_382" data-name="Group 382" transform="translate(54.596 235.919)">
        <g id="Group_381" data-name="Group 381">
          <path id="Path_208" data-name="Path 208" d="M1004.673,856.078a86.645,86.645,0,0,0-10.934,7.952c-2.259,1.988-4.789,4.338-4.247,7.591,1.355,8.585,11.657,6.687,17.26,4.518,1.627-.633.9-3.253-.723-2.621-2.44.9-5.151,2.078-7.771,1.988-4.247-.181-8.042-4.247-4.428-7.952,3.434-3.615,7.952-6.506,12.2-9.217,1.536-.813.181-3.163-1.355-2.259Z" transform="translate(-989.418 -855.875)" fill="#161616"/>
        </g>
      </g>
      <path id="Path_209" data-name="Path 209" d="M1083.633,598.5a136.932,136.932,0,0,1,13.555,12.018,117.849,117.849,0,0,1,8.856,9.94c5.783,7.229,9.488,14.1,13.555,22.5,5.241,10.753,10.482,21.507,15.724,37.592,4.428,13.555,11.205,34.881,12.019,63.255a192.123,192.123,0,0,1-1.084,27.2,42.857,42.857,0,0,0-10.482-8.856c-17.26-10.573-38.224-6.777-58.014-3.163-7.41,1.355-13.555,2.982-17.8,4.157,1.084-9.94,2.078-19.88,3.163-29.82.9-8.314,1.717-16.717,2.62-25.121a100.986,100.986,0,0,1-6.235-12.561c-4.247-10.211-12.741-30.272-7.862-52.773C1057.427,617.025,1077.759,602.386,1083.633,598.5Z" transform="translate(-940.676 -595.156)" fill="#ec615b"/>
      <g id="Group_384" data-name="Group 384" transform="translate(145.447 5.737)">
        <g id="Group_383" data-name="Group 383">
          <path id="Path_210" data-name="Path 210" d="M1090.628,603.725c9.036,4.7,15.091,12.832,20.332,21.236A257.329,257.329,0,0,1,1125.6,651.8a266.208,266.208,0,0,1,19.609,59.008c.362,1.717,2.982.994,2.621-.723a262.343,262.343,0,0,0-20.6-61.177,253.459,253.459,0,0,0-15.452-27.832c-5.151-7.952-11.205-15.362-19.7-19.79-1.626-.723-2.982,1.627-1.446,2.44Z" transform="translate(-1089.955 -601.149)" fill="#161616"/>
        </g>
      </g>
      <g id="Group_386" data-name="Group 386" transform="translate(117.757 98.125)">
        <g id="Group_385" data-name="Group 385">
          <path id="Path_211" data-name="Path 211" d="M1059.482,705.477c4.157,8.494,8.494,16.808,13.013,25.121.813,1.536,3.163.181,2.349-1.355-4.518-8.314-8.856-16.627-13.012-25.121-.813-1.627-3.163-.271-2.349,1.355Z" transform="translate(-1059.313 -703.388)" fill="#161616"/>
        </g>
      </g>
      <g id="Group_388" data-name="Group 388" transform="translate(117.65 114.458)">
        <g id="Group_387" data-name="Group 387">
          <path id="Path_212" data-name="Path 212" d="M1065.886,722.761q-3.389,26.3-6.687,52.592a1.329,1.329,0,0,0,1.717,1.265,140.912,140.912,0,0,1,47.442-6.687c12.741.452,29.64,1.627,36.778,14.1a1.357,1.357,0,0,0,2.349-1.355c-6.777-11.928-21.6-14.368-34.068-15.181A142.834,142.834,0,0,0,1060.284,774a20.82,20.82,0,0,0,1.717,1.265q3.389-26.3,6.687-52.592c.181-1.627-2.53-1.627-2.8.09Z" transform="translate(-1059.194 -721.462)" fill="#161616"/>
        </g>
      </g>
      <g id="Group_390" data-name="Group 390" transform="translate(200.5 112.336)">
        <g id="Group_389" data-name="Group 389">
          <path id="Path_213" data-name="Path 213" d="M1150.9,720.818c3.163,19.88,8.313,40.935,2.982,60.906a1.36,1.36,0,0,0,2.621.723c5.422-20.422.271-41.929-2.982-62.352-.271-1.717-2.892-.994-2.621.723Z" transform="translate(-1150.878 -719.114)" fill="#161616"/>
        </g>
      </g>
      <path id="Path_214" data-name="Path 214" d="M1070.138,594.8a347.055,347.055,0,0,1,23.4,54.761,353.38,353.38,0,0,1,17.531,106.811L1083.422,758c2.982,21.416,6.054,42.923,9.036,64.34a92.111,92.111,0,0,0-26.025-10.121c-3.7-.813-17.35-3.524-31.9-1.084-30.543,5.151-48.978,30.182-53.134,36.146a48.484,48.484,0,0,0,15.9,3.7c19.7,1.175,34.067-10.211,38.315-13.826a130.411,130.411,0,0,0,33.525,11.657c14.549,2.982,31.537,6.416,40.935-2.621.723-.723,2.349-2.44,5.874-11.205,5.512-13.916,8.4-26.929,12.2-50.514.813-5.241,1.988-12.29,3.163-20.694l6.868,6.868a109.552,109.552,0,0,0,3.163-17.531c1.9-19.248-1.807-34.429-5.332-46.809-14.187-50.062-22.681-80.244-51.056-102.112A125.607,125.607,0,0,0,1070.138,594.8Z" transform="translate(-934.049 -594.8)" fill="#3d3d3d" opacity="0.32"/>
      <path id="Path_215" data-name="Path 215" d="M1124.127,663.3a319.091,319.091,0,0,1,6.416,72.563,325.034,325.034,0,0,1-3.976,41.477c-5.332,37.321-8.042,55.936-18.344,64.611-19.519,16.446-54.309,3.976-62.623.813,7.862,5.241,36.146,23.043,63.8,13.193a46.786,46.786,0,0,0,9.127-4.428,94.931,94.931,0,0,0,10.392-25.121,119.411,119.411,0,0,0,2.711-16.989c.994-9.036,2.711-22.23,5.6-38.766,2.621,2.259,5.332,4.518,7.952,6.777a125.025,125.025,0,0,0,2.349-20.332c.813-20.965-3.8-36.869-9.127-55.032A307.505,307.505,0,0,0,1124.127,663.3Z" transform="translate(-940.235 -601.4)" fill="#3d3d3d" opacity="0.29"/>
    </g>
    <g id="head" transform="translate(754.698 286.04)">
      <path id="Path_216" data-name="Path 216" d="M857.6,395.043a304.579,304.579,0,0,0,6.145,39.218c2.349,10.392,3.8,16.989,6.868,25.212,4.609,12.38,13.374,36.056,36.236,51.508a80.471,80.471,0,0,0,27.471,11.838c2.078.181,4.157.452,6.235.633.723,3.8,1.627,9.4,2.53,16.175,2.169,17.44,1.084,22.772,5.6,27.471,5.512,5.693,14.278,5.151,16.175,4.97,15.091-.994,22.682-15.995,23.043-16.808a88.744,88.744,0,0,1-6.868-16.175,91.943,91.943,0,0,1-3.7-34.971,104.943,104.943,0,0,1,22.41-23.676c2.982-2.259,5.512-5.332,9.94-6.868,6.326-2.169,9.579,0,14.278-1.446,7.771-2.44,11.115-12.47,12.561-16.627,5.512-16.446-1.265-32.712-5.6-42.381a111.255,111.255,0,0,0-38.676-47.984c-25.392-17.711-76.177-37.411-109.793-11.838C876.667,357.722,863.474,369.56,857.6,395.043Z" transform="translate(-823.398 -305.664)" fill="#fff"/>
      <path id="Path_217" data-name="Path 217" d="M857.748,428.5c-5.783-.994-20.422-4.428-29.911-16.989-14.458-19.067-6.687-45.725,1.355-59.821,12.651-22.139,35.694-29.82,64.611-39.489,17.169-5.693,33.525-11.115,55.755-10.211,12.29.542,53.948,2.349,78.888,33.345,14.82,18.344,16.446,38.044,19.7,76.9,1.536,17.8.361,27.471-2.711,36.688-2.259,6.687-9.579,28.1-30.634,36.688a49.611,49.611,0,0,1-26.838,2.711c5.06-7.5,10.121-14.91,15.272-22.41,2.892.181,13.193.361,21.055-6.777,10.753-9.85,12.651-29.459,4.789-34.7-5.783-3.886-17.26-.09-27.2,8.856a91.978,91.978,0,0,0-4.789-18.344c-11.386-30.634-36.146-47.441-48.255-54.4-4.789,6.145-19.971,24.127-46.9,31.266a87.47,87.47,0,0,1-46.9-.723Q856.393,409.795,857.748,428.5Z" transform="translate(-819.751 -301.89)" fill="#5222d0"/>
      <g id="Group_392" data-name="Group 392" transform="translate(33.461 90.441)">
        <g id="Group_391" data-name="Group 391">
          <path id="Path_218" data-name="Path 218" d="M856.8,403.263c3.7,27.923,7.591,56.93,21.236,82.051,11.205,20.6,29.278,38.224,52.5,44.1a1.36,1.36,0,0,0,.723-2.621c-22.953-5.874-40.664-23.585-51.508-44.1-12.922-24.4-16.627-52.412-20.242-79.431-.271-1.717-2.982-1.717-2.711,0Z" transform="translate(-856.779 -401.975)" fill="#161616"/>
        </g>
      </g>
      <g id="Group_394" data-name="Group 394" transform="translate(105.862 162.261)">
        <g id="Group_393" data-name="Group 393">
          <path id="Path_219" data-name="Path 219" d="M938.255,537.431c16.356,0,33.525-8.765,46.357-18.163a107.6,107.6,0,0,0,31.085-35.784c.813-1.536-1.536-2.892-2.349-1.355a102.37,102.37,0,0,1-30.092,34.79c-12.561,9.217-29.188,17.8-45,17.8a1.355,1.355,0,1,0,0,2.711Z" transform="translate(-936.9 -481.452)" fill="#161616"/>
        </g>
      </g>
      <g id="Group_396" data-name="Group 396" transform="translate(153.022 196.62)">
        <g id="Group_395" data-name="Group 395">
          <path id="Path_220" data-name="Path 220" d="M989.551,520.763a95.651,95.651,0,0,0,10.03,52.863c.813,1.536,3.163.181,2.349-1.355a93.3,93.3,0,0,1-9.669-51.508c.181-1.717-2.53-1.717-2.711,0Z" transform="translate(-989.089 -519.475)" fill="#161616"/>
        </g>
      </g>
      <g id="Group_398" data-name="Group 398" transform="translate(114.123 216.148)">
        <g id="Group_397" data-name="Group 397">
          <path id="Path_221" data-name="Path 221" d="M946.094,542.725a286.522,286.522,0,0,1,7.229,31.357c1.175,7.048,1.627,15,9.488,17.621,11.747,3.976,29.1-3.072,33.616-14.729.633-1.627-1.988-2.349-2.621-.723-2.53,6.6-8.856,10.211-15.362,12.109-5.422,1.536-13.645,3.163-18.254-1.265-2.711-2.621-3.072-6.777-3.615-10.3-.633-3.7-1.265-7.41-1.988-11.115-1.627-7.952-3.524-15.9-5.783-23.676-.542-1.627-3.163-.9-2.711.723Z" transform="translate(-946.042 -541.085)" fill="#161616"/>
        </g>
      </g>
      <g id="Group_400" data-name="Group 400" transform="translate(116.773 199.401)">
        <g id="Group_399" data-name="Group 399">
          <path id="Path_222" data-name="Path 222" d="M950.263,552.145c16.085-2.078,26.658-14.368,34.429-27.561a1.356,1.356,0,0,0-2.349-1.355c-7.139,12.29-17.079,24.308-32.079,26.206-1.717.271-1.717,2.982,0,2.711Z" transform="translate(-948.975 -522.552)" fill="#161616"/>
        </g>
      </g>
      <g id="Group_402" data-name="Group 402" transform="translate(116.174 200.616)">
        <g id="Group_401" data-name="Group 401">
          <path id="Path_223" data-name="Path 223" d="M949.566,543.057a50.418,50.418,0,0,0,32.26-16.808c1.175-1.265-.723-3.253-1.9-1.9a47.42,47.42,0,0,1-30.363,15.995c-1.627.181-1.717,2.892,0,2.711Z" transform="translate(-948.312 -523.897)" fill="#161616"/>
        </g>
      </g>
      <g id="Group_404" data-name="Group 404" transform="translate(116.176 203.321)">
        <g id="Group_403" data-name="Group 403">
          <path id="Path_224" data-name="Path 224" d="M950.018,541.358a52.808,52.808,0,0,0,27.019-12.2c1.355-1.175-.633-3.072-1.9-1.9A49.974,49.974,0,0,1,949.3,538.827c-1.717.181-.994,2.8.723,2.53Z" transform="translate(-948.314 -526.891)" fill="#161616"/>
        </g>
      </g>
      <g id="Group_406" data-name="Group 406" transform="translate(117.304 204.609)">
        <g id="Group_405" data-name="Group 405">
          <path id="Path_225" data-name="Path 225" d="M949.6,543.754c.452,2.169.362,6.506,3.072,7.229,2.621.723,6.6-2.349,8.675-3.615a58.374,58.374,0,0,0,17.8-17.079c.994-1.446-1.355-2.8-2.349-1.355a53.883,53.883,0,0,1-12.2,13.013,58.221,58.221,0,0,1-7.048,4.518c-.994.542-3.253,2.078-4.247,1.446-.633-.362-.9-4.247-.994-4.88-.452-1.717-3.072-.994-2.711.723Z" transform="translate(-949.562 -528.316)" fill="#161616"/>
        </g>
      </g>
      <g id="Group_408" data-name="Group 408" transform="translate(116.963 208.059)">
        <g id="Group_407" data-name="Group 407">
          <path id="Path_226" data-name="Path 226" d="M950.825,546.652a112.222,112.222,0,0,0,21.959-11.928c1.446-.994.09-3.344-1.355-2.349A106.173,106.173,0,0,1,950.1,544.031c-1.627.633-.9,3.253.723,2.621Z" transform="translate(-949.185 -532.134)" fill="#161616"/>
        </g>
      </g>
      <g id="Group_410" data-name="Group 410" transform="translate(118.319 208.424)">
        <g id="Group_409" data-name="Group 409">
          <path id="Path_227" data-name="Path 227" d="M952.325,549.4a56.637,56.637,0,0,0,22.591-14.549c1.175-1.265-.723-3.163-1.9-1.9A55.1,55.1,0,0,1,951.6,546.781c-1.627.633-.9,3.253.723,2.621Z" transform="translate(-950.685 -532.538)" fill="#161616"/>
        </g>
      </g>
      <g id="Group_412" data-name="Group 412" transform="translate(119.315 210.099)">
        <g id="Group_411" data-name="Group 411">
          <path id="Path_228" data-name="Path 228" d="M953.877,548.135a58.6,58.6,0,0,0,17.35-11.476c1.265-1.175-.633-3.072-1.9-1.9a57.6,57.6,0,0,1-16.808,11.025c-1.627.723-.271,3.072,1.355,2.349Z" transform="translate(-951.787 -534.391)" fill="#161616"/>
        </g>
      </g>
      <g id="Group_414" data-name="Group 414" transform="translate(26.603 92.97)">
        <g id="Group_413" data-name="Group 413">
          <path id="Path_229" data-name="Path 229" d="M870.164,472.21C855.434,466.968,850.555,447.721,852,433.8c1.536-15.272,15.272-31.9,32.079-24.76,8.042,3.434,11.025,12.29,13.193,20.151,2.259,8.314,3.253,17.531,1.084,26.025-1.9,7.5-6.506,14.639-13.735,17.892a17.219,17.219,0,0,1-20.694-4.789c-1.084-1.355-2.982.542-1.9,1.9,8.223,10.573,23.676,8.494,31.989-.813,10.573-11.838,9.488-29.82,4.97-44.008-2.078-6.6-4.789-13.464-10.844-17.26a22.859,22.859,0,0,0-17.8-2.621c-13.735,3.7-20.874,18.254-21.145,31.537-.271,14.549,5.422,32.531,20.422,37.772,1.446.542,2.169-2.078.542-2.621Z" transform="translate(-849.19 -404.773)" fill="#161616"/>
        </g>
      </g>
      <g id="Group_416" data-name="Group 416" transform="translate(76.838 126.279)">
        <g id="Group_415" data-name="Group 415">
          <path id="Path_230" data-name="Path 230" d="M906.786,448.742a29.766,29.766,0,0,1,28.826-1.265c1.536.813,2.892-1.536,1.355-2.35a32.579,32.579,0,0,0-31.628,1.265c-1.355.9,0,3.253,1.446,2.349Z" transform="translate(-904.781 -441.635)" fill="#161616"/>
        </g>
      </g>
      <g id="Group_418" data-name="Group 418" transform="translate(107.216 88.377)">
        <g id="Group_417" data-name="Group 417">
          <path id="Path_231" data-name="Path 231" d="M953.22,463.948a39.463,39.463,0,0,1-10.482-38.857c4.157-14.278,18.434-26.567,33.8-21.507,16.989,5.6,17.892,29.911,13.464,44.188-2.621,8.4-7.862,16.808-16.537,19.88s-16.175-1.536-23.133-6.416c-1.446-.994-2.8,1.355-1.355,2.349,5.693,4.066,11.838,8.133,19.067,7.862,6.868-.271,13.1-4.066,17.35-9.217,9.579-11.567,11.476-29.188,7.5-43.285-3.615-12.832-14.278-21.145-27.923-18.886-13.013,2.078-22.591,13.826-25.483,26.115a42.245,42.245,0,0,0,11.657,39.67c1.446,1.265,3.343-.723,2.078-1.9Z" transform="translate(-938.399 -399.691)" fill="#161616"/>
        </g>
      </g>
      <g id="Group_420" data-name="Group 420" transform="translate(54.896 120.272)">
        <g id="Group_419" data-name="Group 419">
          <path id="Path_232" data-name="Path 232" d="M881.4,437.619a22.833,22.833,0,0,0,3.163,16.085,1.338,1.338,0,0,0,2.44-.361c2.169-6.235-.9-12.38-3.976-17.711a1.374,1.374,0,0,0-2.53.723,38.708,38.708,0,0,0,2.892,13.916c.633,1.627,3.253.9,2.621-.723a36.7,36.7,0,0,1-2.8-13.193c-.813.271-1.717.452-2.53.723,2.8,4.789,5.693,10.03,3.7,15.633a22.705,22.705,0,0,0,2.44-.361,19.627,19.627,0,0,1-2.892-14.007c.361-1.717-2.259-2.44-2.53-.723Z" transform="translate(-880.5 -434.986)" fill="#161616"/>
        </g>
      </g>
      <g id="Group_422" data-name="Group 422" transform="translate(132.128 114.706)">
        <g id="Group_421" data-name="Group 421">
          <path id="Path_233" data-name="Path 233" d="M969.611,434.5a3.82,3.82,0,0,0-.633-2.44,1.374,1.374,0,0,0-2.53.723c.09,5.6.542,11.657,4.88,15.633a1.423,1.423,0,0,0,2.349-.994,24.487,24.487,0,0,0-5.422-18.163c-.9-1.084-2.53.09-2.259,1.355a102.3,102.3,0,0,0,4.066,12.922c.633,1.627,3.253.9,2.621-.723a82.38,82.38,0,0,1-4.066-12.922c-.723.452-1.536.9-2.259,1.355a21.933,21.933,0,0,1,4.609,16.266c.813-.361,1.536-.633,2.349-.994-3.886-3.524-4.066-8.856-4.157-13.735-.813.271-1.717.452-2.53.723l.271,1.084c0,1.627,2.711,1.627,2.711-.09Z" transform="translate(-965.967 -428.827)" fill="#161616"/>
        </g>
      </g>
      <g id="Group_424" data-name="Group 424" transform="translate(81.979 137.254)">
        <g id="Group_423" data-name="Group 423">
          <path id="Path_234" data-name="Path 234" d="M916.371,454.7a117.181,117.181,0,0,0-4.338,16.537c-.542,2.982-2.44,8.585-1.084,11.567,2.711,6.054,14.729,2.349,18.886.361,1.536-.723.181-3.072-1.355-2.349a20.8,20.8,0,0,1-10.663,2.169c-2.169-.181-3.886-.542-4.338-2.982-.271-1.355.633-4.88.9-6.416a125.794,125.794,0,0,1,4.7-18.254c.452-1.536-2.169-2.259-2.711-.633Z" transform="translate(-910.47 -453.779)" fill="#161616"/>
        </g>
      </g>
      <g id="Group_426" data-name="Group 426" transform="translate(99.845 176.769)">
        <g id="Group_425" data-name="Group 425">
          <path id="Path_235" data-name="Path 235" d="M931.921,511.055a20.385,20.385,0,0,0,15.633-11.476c.723-1.536-1.627-2.982-2.349-1.355A17.767,17.767,0,0,1,931.2,508.435c-1.717.271-.9,2.892.723,2.621Z" transform="translate(-930.242 -497.508)" fill="#161616"/>
        </g>
      </g>
      <g id="Group_428" data-name="Group 428" transform="translate(47.839 110.706)">
        <g id="Group_427" data-name="Group 427">
          <path id="Path_236" data-name="Path 236" d="M874.958,428.828a5,5,0,0,1,7.048-.633c1.355,1.175,3.253-.813,1.9-1.9a7.787,7.787,0,0,0-10.844.633c-1.175,1.265.723,3.163,1.9,1.9Z" transform="translate(-872.691 -424.401)" fill="#161616"/>
        </g>
      </g>
      <g id="Group_430" data-name="Group 430" transform="translate(125.246 105.554)">
        <g id="Group_429" data-name="Group 429">
          <path id="Path_237" data-name="Path 237" d="M960.745,423.218a7.651,7.651,0,0,1,9.85-.09c1.355,1.084,3.253-.813,1.9-1.9a10.445,10.445,0,0,0-13.735.09c-1.265,1.175.723,3.072,1.988,1.9Z" transform="translate(-958.352 -418.7)" fill="#161616"/>
        </g>
      </g>
      <g id="Group_432" data-name="Group 432" transform="translate(161.578 113.776)">
        <g id="Group_431" data-name="Group 431">
          <path id="Path_238" data-name="Path 238" d="M1000.222,436.565a107.28,107.28,0,0,1,30.182-6.054c1.717-.09,1.717-2.8,0-2.711a109.776,109.776,0,0,0-30.9,6.145c-1.627.633-.994,3.253.723,2.621Z" transform="translate(-998.557 -427.798)" fill="#161616"/>
        </g>
      </g>
      <path id="Path_239" data-name="Path 239" d="M1014.491,312.9c5.422,6.958,26.3,35.513,22.411,74.732a101.78,101.78,0,0,1-16.9,46.447,65.8,65.8,0,0,1,8.133-5.422c5.512-3.072,9.036-4.97,13.555-4.7,1.355.09,4.609.361,6.958,2.259,6.868,5.783,4.518,26.3-7.681,35.875-6.687,5.241-14.549,5.783-18.525,5.693-5.151,7.32-10.392,14.639-15.543,22.049a48.88,48.88,0,0,0,14.729.09,49.659,49.659,0,0,0,23.043-10.211c9.759-7.862,13.735-17.44,16.356-23.947,7.229-18.073,5.783-33.977,3.253-62.623-1.084-12.741-1.717-19.248-4.247-27.832-2.711-9.308-6.958-23.043-19.067-35.333A70.069,70.069,0,0,0,1014.491,312.9Z" transform="translate(-837.783 -302.951)" fill="#3d3d3d" opacity="0.4"/>
      <path id="Path_240" data-name="Path 240" d="M918.7,392.648a220.43,220.43,0,0,0,28.917-31.176A222.834,222.834,0,0,0,962.888,338.7c-1.536,8.133-3.072,16.266-4.518,24.4a76.775,76.775,0,0,1-39.67,29.549Z" transform="translate(-829.285 -305.437)" fill="#3d3d3d" opacity="0.48"/>
      <path id="Path_241" data-name="Path 241" d="M986.514,387a161.013,161.013,0,0,1,6.777,54.671c-.452,9.4-2.982,58.647-28.917,75.635-2.53,1.627-8.946,5.422-8.675,5.964.362.633,12.38-4.7,18.977-8.314,10.392-5.6,26.386-16.9,41.206-40.754,2.44.271,14.368,1.084,22.953-7.139,10.392-9.85,12.2-29.188,3.976-34.881-5.874-4.066-17.079-.633-26.929,7.5a111.462,111.462,0,0,0-3.976-13.1A115.973,115.973,0,0,0,986.514,387Z" transform="translate(-832.849 -310.091)" fill="#3d3d3d" opacity="0.27"/>
      <path id="Path_242" data-name="Path 242" d="M965.7,535.593c2.349,7.229,4.7,14.458,7.048,21.778,3.253,9.94,6.416,19.971,9.579,29.911a20.034,20.034,0,0,0,10.121-5.6,22.02,22.02,0,0,0,5.6-10.121,90.054,90.054,0,0,1-9.127-30.9,87.545,87.545,0,0,1,0-18.254C981.243,526.828,973.471,531.256,965.7,535.593Z" transform="translate(-833.813 -323.137)" fill="#3d3d3d" opacity="0.36"/>
      <path id="Path_243" data-name="Path 243" d="M914.355,458.3c-4.518,9.669-9.036,19.248-13.555,28.917,7.41-.181,14.729-.271,22.139-.452-4.337-1.355-8.765-2.711-13.1-4.066C911.282,474.566,912.818,466.433,914.355,458.3Z" transform="translate(-827.56 -316.961)" fill="#3d3d3d" opacity="0.43"/>
    </g>
  </g>
</svg>
