<svg xmlns="http://www.w3.org/2000/svg" width="1023.702" height="1034.831" viewBox="0 0 1023.702 1034.831">
  <g id="business_meeting" data-name="business meeting" transform="translate(-822.5 263.265)">
    <g id="background">
      <g id="XMLID_2288_">
        <g id="XMLID_2329_">
          <path id="XMLID_2333_" d="M1721.3,587.3q7.65,46.2,15.4,92.4c.3,1.9,3.2,1.1,2.9-.8q-7.65-46.2-15.4-92.4c-.3-1.9-3.2-1.1-2.9.8Z" fill="#e8e8e8"/>
        </g>
      </g>
      <g id="XMLID_2290_">
        <g id="XMLID_2337_">
          <path id="XMLID_2342_" d="M1723.1,588a688.652,688.652,0,0,1,121,3.2c1.9.2,1.9-2.8,0-3a689.169,689.169,0,0,0-121-3.2c-1.9.1-2,3.1,0,3Z" fill="#e8e8e8"/>
        </g>
      </g>
      <g id="XMLID_2298_">
        <g id="XMLID_2345_">
          <path id="XMLID_2350_" d="M1737.9,682a180.222,180.222,0,0,0,91.9,4.1c1.9-.4,1.1-3.3-.8-2.9a176.638,176.638,0,0,1-90.4-4.1c-1.8-.6-2.6,2.3-.7,2.9Z" fill="#e8e8e8"/>
        </g>
      </g>
      <g id="XMLID_2300_">
        <g id="XMLID_2353_">
          <path id="XMLID_2358_" d="M1843.2,590.4a729.877,729.877,0,0,1-13.4,93.1c-.4,1.9,2.5,2.7,2.9.8a727.228,727.228,0,0,0,13.5-93.9c.1-2-2.9-2-3,0Z" fill="#e8e8e8"/>
        </g>
      </g>
      <g id="XMLID_2307_">
        <g id="XMLID_2361_">
          <path id="XMLID_2366_" d="M1728.4,628.8a347.915,347.915,0,0,0,49.1,59.2c1.4,1.3,3.5-.8,2.1-2.1a341.479,341.479,0,0,1-48.7-58.6c-1-1.6-3.6-.1-2.5,1.5Z" fill="#e8e8e8"/>
        </g>
      </g>
      <g id="XMLID_2308_">
        <g id="XMLID_2370_">
          <path id="XMLID_2374_" d="M1740.9,587.7a548.381,548.381,0,0,0,84,96c1.4,1.3,3.6-.8,2.1-2.1a553.7,553.7,0,0,1-83.5-95.4c-1.1-1.6-3.7-.1-2.6,1.5Z" fill="#e8e8e8"/>
        </g>
      </g>
      <g id="XMLID_2316_">
        <g id="XMLID_2378_">
          <path id="XMLID_2382_" d="M1786.7,589a599.1,599.1,0,0,0,45.9,52.2,1.485,1.485,0,1,0,2.1-2.1,614.148,614.148,0,0,1-45.9-52.2c-1.2-1.5-3.3.6-2.1,2.1Z" fill="#e8e8e8"/>
        </g>
      </g>
      <g id="XMLID_2318_">
        <g id="XMLID_2386_">
          <path id="XMLID_2391_" d="M1755.9,584a91.267,91.267,0,0,1-15.6-24.7,88.855,88.855,0,0,1-4.4-13.2c-.5-2.2-1-4.3-1.3-6.5-.2-1-.9-3.1-.5-4-.2-1.3.7-1.7,2.7-1.3,2.1-1.3,3.6-.9,4.4,1.4.9,1.2,3.4.6,2.7-1.2a163.961,163.961,0,0,1-7-22.6c-.8-3.6-1.5-7.1-2.1-10.7-.4-2.3-.6-4.5-.9-6.8l-.3-3.6c-.4-1.9.5-3.3,2.7-4.3a1.539,1.539,0,0,0,2.6-1.1c-1.4-14-2.7-28-1.5-42a87.269,87.269,0,0,1,4.3-21.5,51.343,51.343,0,0,1,2.4-6.1,9.412,9.412,0,0,1,1.2-2.2h6.2c3,1.2,5.3,8.1,6.2,10.6,4.9,13.8,6.9,28.5,9.1,42.9l7.2,47.4c.2,1.6,2.4,1.2,2.9,0,.9-1,1.8-2.1,2.7-3.1a15.983,15.983,0,0,0-2.1-.5c5.9,10.8,7.1,23.1,7.9,35.2.8,12.9,1.1,25.9,1,38.8a1.5,1.5,0,0,0,3,0c.1-14.2-.2-28.3-1.3-42.5-.8-11.4-2.4-22.9-8-33.1a1.488,1.488,0,0,0-2.1-.5,9,9,0,0,0-4.1,4.9h2.9c-2.9-19.1-5.6-38.3-8.7-57.4a207.6,207.6,0,0,0-5.7-26.9c-1.9-6.5-4-14-9.4-18.4-11.8-9.6-16.3,16.7-17.4,23.5-2.8,16.9-1.2,34.1.4,51,.9-.4,1.7-.7,2.6-1.1a4.314,4.314,0,0,0-6.6.2c-2.8,3.3-1,9.8-.5,13.5a161.941,161.941,0,0,0,9.6,37.4l2.7-1.2c-2.4-3.3-7.3-8-11.2-3.7-3.3,3.7-.7,11.5.2,15.6a91.773,91.773,0,0,0,21,40.1c1.3,1.3,3.4-.9,2.1-2.3Z" fill="#e8e8e8"/>
        </g>
      </g>
      <g id="XMLID_2326_">
        <g id="XMLID_2394_">
          <path id="XMLID_2399_" d="M1773.7,490.4c-.3-5.4.2-36.1,10.5-33.4a1.519,1.519,0,0,0,1.9-1.4c2.2-17.6,9.4-33,16.5-48.9,1.6-3.5,3.2-7.1,4.8-10.6,2.1-4.6,5.2-12.9,11.3-6.5,5.6,5.7,6.3,15.1,6.4,22.6.2,16.6-.6,33.3-1,50-.4,17.8-.8,35.7-1.2,53.5,0,1.6,2.7,2.1,2.9.4.9.2,1.8.5,2.7.7a12.29,12.29,0,0,1,.2,2.7c0,1.2-.1,2.4-.1,3.6-.1,3-.2,5.9-.4,8.9-.3,6.3-.5,12.6-.8,18.8-.5,12.1-.9,24.3-3.4,36.2-.4,1.9,2.5,2.7,2.9.8,3.7-17.6,3.5-35.9,4.2-53.8.2-4.6.5-9.3.6-13.9,0-2.3,0-4.8-1.6-6.5-2.2-2.5-6.6-1.7-7.2,1.7,1,.1,2,.3,2.9.4.7-32.9,1.7-65.8,2.2-98.7.2-9.9.1-27.2-10.8-32.1-4-1.8-7.5.1-9.7,3.7-3.9,6.4-6.5,14.2-9.6,21.1-6.8,15-12.9,29.5-15,46a23.068,23.068,0,0,1,1.9-1.4c-6.1-1.6-9.4,4.5-11,9.4a71.636,71.636,0,0,0-3.3,26.8c.3,1.9,3.3,1.9,3.2-.1Z" fill="#e8e8e8"/>
        </g>
      </g>
      <g id="XMLID_2343_">
        <g id="XMLID_2410_">
          <path id="XMLID_2415_" d="M822.5,265.9V683.5a1.5,1.5,0,0,0,3,0V265.9a1.5,1.5,0,0,0-3,0Z" fill="#e8e8e8"/>
        </g>
      </g>
      <g id="XMLID_2351_">
        <g id="XMLID_2419_">
          <path id="XMLID_2423_" d="M824.9,684.2H1015a1.5,1.5,0,0,0,0-3H824.9a1.5,1.5,0,0,0,0,3Z" fill="#e8e8e8"/>
        </g>
      </g>
      <g id="XMLID_2359_">
        <g id="XMLID_2427_">
          <path id="XMLID_2431_" d="M1015.6,682.7V259.1a1.5,1.5,0,0,0-3,0v13.3a1.5,1.5,0,0,0,3,0V259.1h-3V682.7a1.5,1.5,0,0,0,3,0Z" fill="#e8e8e8"/>
        </g>
      </g>
      <g id="XMLID_2367_">
        <g id="XMLID_2435_">
          <path id="XMLID_2440_" d="M1014.1,256.2H828.6a1.5,1.5,0,0,0,0,3h185.5a1.5,1.5,0,0,0,0-3Z" fill="#e8e8e8"/>
        </g>
      </g>
      <g id="XMLID_2375_">
        <g id="XMLID_2443_">
          <path id="XMLID_2448_" d="M845.6,337.5V288.2a1.5,1.5,0,0,0-3,0v49.3a1.5,1.5,0,0,0,3,0Z" fill="#e8e8e8"/>
        </g>
      </g>
      <g id="XMLID_2384_">
        <g id="XMLID_2451_">
          <path id="XMLID_2456_" d="M844.1,289H987.6a1.5,1.5,0,0,0,0-3H844.1a1.5,1.5,0,0,0,0,3Z" fill="#e8e8e8"/>
        </g>
      </g>
      <g id="XMLID_2392_">
        <g id="XMLID_2459_">
          <path id="XMLID_2464_" d="M987.5,289.7V331a1.5,1.5,0,0,0,3,0V289.7a1.5,1.5,0,0,0-3,0Z" fill="#e8e8e8"/>
        </g>
      </g>
      <g id="XMLID_2400_">
        <g id="XMLID_2468_">
          <path id="XMLID_2472_" d="M845.6,339h142a1.5,1.5,0,0,0,0-3h-142a1.5,1.5,0,0,0,0,3Z" fill="#e8e8e8"/>
        </g>
      </g>
      <g id="XMLID_2408_">
        <g id="XMLID_2476_">
          <path id="XMLID_2480_" d="M908.4,322.2a7.939,7.939,0,0,1-4.8-8.6c.9-4.4,6.1-7.6,10.2-5.3,3.7,2.1,3.8,7.6,1.7,11-2,3.4-7.1,4.5-9.4.8-1-1.6-3.6-.1-2.6,1.5,2.9,4.7,9.5,5,13.2,1.1,3.9-4.1,4.5-12.4-.1-16.2-4.7-3.9-12-1.5-14.8,3.5-3.1,5.4-.4,12.2,5.1,14.8,1.7.9,3.3-1.7,1.5-2.6Z" fill="#e8e8e8"/>
        </g>
      </g>
      <g id="XMLID_2449_">
        <g id="XMLID_2517_">
          <path id="XMLID_2521_" d="M844.6,440.5V391.2a1.5,1.5,0,0,0-3,0v49.3a1.5,1.5,0,0,0,3,0Z" fill="#e8e8e8"/>
        </g>
      </g>
      <g id="XMLID_2441_">
        <g id="XMLID_2510_">
          <path id="XMLID_2514_" d="M843.1,392H986.6a1.5,1.5,0,0,0,0-3H843.1a1.5,1.5,0,0,0,0,3Z" fill="#e8e8e8"/>
        </g>
      </g>
      <g id="XMLID_2433_">
        <g id="XMLID_2503_">
          <path id="XMLID_2507_" d="M986.5,392.7V434a1.5,1.5,0,0,0,3,0V392.7a1.5,1.5,0,0,0-3,0Z" fill="#e8e8e8"/>
        </g>
      </g>
      <g id="XMLID_2424_">
        <g id="XMLID_2496_">
          <path id="XMLID_2500_" d="M844.6,442h142a1.5,1.5,0,0,0,0-3h-142a1.5,1.5,0,0,0,0,3Z" fill="#e8e8e8"/>
        </g>
      </g>
      <g id="XMLID_2416_">
        <g id="XMLID_2489_">
          <path id="XMLID_2493_" d="M907.4,425.2a7.939,7.939,0,0,1-4.8-8.6c.9-4.4,6.1-7.6,10.2-5.3,3.7,2.1,3.8,7.6,1.7,11-2,3.4-7.1,4.5-9.4.8-1-1.6-3.6-.1-2.6,1.5,2.9,4.7,9.5,5,13.2,1.1,3.9-4.1,4.5-12.4-.1-16.2-4.7-3.9-12-1.5-14.8,3.5-3.1,5.4-.4,12.2,5.1,14.8,1.7.9,3.3-1.7,1.5-2.6Z" fill="#e8e8e8"/>
        </g>
      </g>
      <g id="XMLID_2475_">
        <g id="XMLID_2557_">
          <path id="XMLID_2562_" d="M846.5,549.9V500.6a1.5,1.5,0,0,0-3,0v49.3a1.5,1.5,0,0,0,3,0Z" fill="#e8e8e8"/>
        </g>
      </g>
      <g id="XMLID_2473_">
        <g id="XMLID_2550_">
          <path id="XMLID_2555_" d="M845,501.4H988.5a1.5,1.5,0,0,0,0-3H845a1.5,1.5,0,0,0,0,3Z" fill="#e8e8e8"/>
        </g>
      </g>
      <g id="XMLID_2466_">
        <g id="XMLID_2543_">
          <path id="XMLID_2548_" d="M988.4,502.1v41.3a1.5,1.5,0,0,0,3,0V502.1a1.5,1.5,0,1,0-3,0Z" fill="#e8e8e8"/>
        </g>
      </g>
      <g id="XMLID_2465_">
        <g id="XMLID_2536_">
          <path id="XMLID_2541_" d="M846.4,551.4h142a1.5,1.5,0,0,0,0-3h-142a1.5,1.5,0,0,0,0,3Z" fill="#e8e8e8"/>
        </g>
      </g>
      <g id="XMLID_2457_">
        <g id="XMLID_2529_">
          <path id="XMLID_2534_" d="M909.3,534.6a7.939,7.939,0,0,1-4.8-8.6c.9-4.4,6.1-7.6,10.2-5.3,3.7,2.1,3.8,7.6,1.7,11-2,3.4-7.1,4.5-9.4.8-1-1.6-3.6-.1-2.6,1.5,2.9,4.7,9.5,5,13.2,1.1,3.9-4.1,4.5-12.4-.1-16.2-4.7-3.9-12-1.5-14.8,3.5-3.1,5.4-.4,12.2,5.1,14.8,1.7.8,3.2-1.7,1.5-2.6Z" fill="#e8e8e8"/>
        </g>
      </g>
      <g id="XMLID_2482_">
        <g id="XMLID_2566_">
          <path id="XMLID_2570_" d="M825.7,268.5a40.145,40.145,0,0,1,.4-10.4,17.1,17.1,0,0,0-1.4,1.1c3.1,0,6.1,0,9.2-.1a1.5,1.5,0,0,0,0-3c-3.1,0-6.1,0-9.2.1a1.5,1.5,0,0,0-1.4,1.1,46.768,46.768,0,0,0-.5,11.2c.1,1.9,3.1,1.9,2.9,0Z" fill="#e8e8e8"/>
        </g>
      </g>
      <g id="XMLID_2494_">
        <g id="XMLID_2574_">
          <path id="XMLID_2578_" d="M845.7,257.1V244.5a1.5,1.5,0,0,0-3,0v12.6a1.5,1.5,0,0,0,3,0Z" fill="#e8e8e8"/>
        </g>
      </g>
      <g id="XMLID_2501_">
        <g id="XMLID_2582_">
          <path id="XMLID_2587_" d="M844.7,245.4H950.6a1.5,1.5,0,0,0,0-3H844.7a1.5,1.5,0,0,0,0,3Z" fill="#e8e8e8"/>
        </g>
      </g>
      <g id="XMLID_2508_">
        <g id="XMLID_2590_">
          <path id="XMLID_2595_" d="M949.1,245v12.6a1.5,1.5,0,0,0,3,0V245a1.5,1.5,0,0,0-3,0Z" fill="#e8e8e8"/>
        </g>
      </g>
      <g id="XMLID_2515_">
        <g id="XMLID_2598_">
          <path id="XMLID_2603_" d="M865.7,244.5V231.3a1.5,1.5,0,0,0-3,0v13.2a1.5,1.5,0,0,0,3,0Z" fill="#e8e8e8"/>
        </g>
      </g>
      <g id="XMLID_2522_">
        <g id="XMLID_2606_">
          <path id="XMLID_2611_" d="M865.9,231.7h96.7a1.5,1.5,0,0,0,0-3H865.9a1.5,1.5,0,0,0,0,3Z" fill="#e8e8e8"/>
        </g>
      </g>
      <g id="XMLID_2535_">
        <g id="XMLID_2615_">
          <path id="XMLID_2619_" d="M947.6,245.3h13.9a1.5,1.5,0,0,0,0-3H947.6a1.5,1.5,0,0,0,0,3Z" fill="#e8e8e8"/>
        </g>
      </g>
      <g id="XMLID_2549_">
        <g id="XMLID_2623_">
          <path id="XMLID_2627_" d="M961.1,231v11.3a1.5,1.5,0,0,0,3,0V231a1.5,1.5,0,0,0-3,0Z" fill="#e8e8e8"/>
        </g>
      </g>
      <g id="XMLID_2563_">
        <g id="XMLID_2631_">
          <path id="XMLID_2636_" d="M841.8,219.4v11.3a1.5,1.5,0,0,0,3,0V219.4a1.5,1.5,0,1,0-3,0Z" fill="#e8e8e8"/>
        </g>
      </g>
      <g id="XMLID_2571_">
        <g id="XMLID_2639_">
          <path id="XMLID_2644_" d="M844.4,220.1h89a1.5,1.5,0,0,0,0-3h-89a1.5,1.5,0,0,0,0,3Z" fill="#e8e8e8"/>
        </g>
      </g>
      <g id="XMLID_2580_">
        <g id="XMLID_2647_">
          <path id="XMLID_2652_" d="M933,218.6V227a1.5,1.5,0,0,0,3,0v-8.4a1.5,1.5,0,0,0-3,0Z" fill="#e8e8e8"/>
        </g>
      </g>
      <g id="XMLID_2588_">
        <g id="XMLID_2655_">
          <path id="XMLID_2660_" d="M844,232.2h21.9a1.5,1.5,0,0,0,0-3H844a1.5,1.5,0,0,0,0,3Z" fill="#e8e8e8"/>
        </g>
      </g>
      <g id="XMLID_2596_">
        <g id="XMLID_2664_">
          <path id="XMLID_2668_" d="M842.6,672.4H971.7a1.5,1.5,0,0,0,0-3H842.6a1.5,1.5,0,0,0,0,3Z" fill="#e8e8e8"/>
        </g>
      </g>
      <g id="XMLID_2604_">
        <g id="XMLID_2672_">
          <path id="XMLID_2676_" d="M1344.3,418.4V368.1a1.5,1.5,0,0,0-3,0v50.3a1.5,1.5,0,0,0,3,0Z" fill="#e8e8e8"/>
        </g>
      </g>
      <g id="XMLID_2612_">
        <g id="XMLID_2680_">
          <path id="XMLID_2685_" d="M1296.5,419.9h95a1.5,1.5,0,0,0,0-3h-95a1.5,1.5,0,0,0,0,3Z" fill="#e8e8e8"/>
        </g>
      </g>
      <g id="XMLID_2620_">
        <g id="XMLID_2688_">
          <path id="XMLID_2693_" d="M1363.6,418.4v31.1a1.5,1.5,0,0,0,3,0V418.4a1.5,1.5,0,0,0-3,0Z" fill="#e8e8e8"/>
        </g>
      </g>
      <g id="XMLID_2629_">
        <g id="XMLID_2696_">
          <path id="XMLID_2701_" d="M1330.8,455h85.4a1.5,1.5,0,0,0,0-3h-85.4a1.5,1.5,0,0,0,0,3Z" fill="#e8e8e8"/>
        </g>
      </g>
      <g id="XMLID_2637_">
        <g id="XMLID_2704_">
          <path id="XMLID_2709_" d="M919.3-48.1v-78.2a1.5,1.5,0,0,0-3,0v78.2a1.5,1.5,0,0,0,3,0Z" fill="#e8e8e8"/>
        </g>
      </g>
      <g id="XMLID_2645_">
        <g id="XMLID_2713_">
          <path id="XMLID_2717_" d="M917.8-123.3h124.4a1.5,1.5,0,0,0,0-3H917.8a1.5,1.5,0,0,0,0,3Z" fill="#e8e8e8"/>
        </g>
      </g>
      <g id="XMLID_2653_">
        <g id="XMLID_2721_">
          <path id="XMLID_2725_" d="M1040.7-124.1v70a1.5,1.5,0,0,0,3,0v-70a1.5,1.5,0,0,0-3,0Z" fill="#e8e8e8"/>
        </g>
      </g>
      <g id="XMLID_2661_">
        <g id="XMLID_2729_">
          <path id="XMLID_2734_" d="M917.1-46.6h123.6a1.5,1.5,0,0,0,0-3H917.1a1.5,1.5,0,0,0,0,3Z" fill="#e8e8e8"/>
        </g>
      </g>
      <g id="XMLID_2669_">
        <g id="XMLID_2737_">
          <path id="XMLID_2742_" d="M926-54.8v-63.3a1.5,1.5,0,0,0-3,0v63.3a1.5,1.5,0,0,0,3,0Z" fill="#e8e8e8"/>
        </g>
      </g>
      <g id="XMLID_2678_">
        <g id="XMLID_2745_">
          <path id="XMLID_2750_" d="M924.5-116.6h108.7a1.5,1.5,0,0,0,0-3H924.5a1.5,1.5,0,0,0,0,3Z" fill="#e8e8e8"/>
        </g>
      </g>
      <g id="XMLID_2686_">
        <g id="XMLID_2753_">
          <path id="XMLID_2758_" d="M1032.5-115.9v55.1a1.5,1.5,0,0,0,3,0v-55.1a1.5,1.5,0,0,0-3,0Z" fill="#e8e8e8"/>
        </g>
      </g>
      <g id="XMLID_2694_">
        <g id="XMLID_2762_">
          <path id="XMLID_2766_" d="M926.8-52.6h105.8a1.5,1.5,0,0,0,0-3H926.8a1.5,1.5,0,0,0,0,3Z" fill="#e8e8e8"/>
        </g>
      </g>
      <g id="XMLID_2702_">
        <g id="XMLID_2770_">
          <path id="XMLID_2774_" d="M928.3-55.5q30.15-25.95,59.1-53.3c1.4-1.3-.7-3.4-2.1-2.1-19.3,18.3-39,36-59.1,53.3-1.5,1.2.7,3.3,2.1,2.1Z" fill="#e8e8e8"/>
        </g>
      </g>
      <g id="XMLID_2710_">
        <g id="XMLID_2777_">
          <path id="XMLID_2781_" d="M961.2-55.4a625.957,625.957,0,0,1,51.2-53.1c1.4-1.3-.7-3.4-2.1-2.1a625.969,625.969,0,0,0-51.2,53.1c-1.3,1.5.8,3.6,2.1,2.1Z" fill="#e8e8e8"/>
        </g>
      </g>
      <g id="XMLID_2718_">
        <g id="XMLID_2784_">
          <path id="XMLID_2788_" d="M969.8-125a12.68,12.68,0,0,1,2-5.3c1-1.5,3.2-4.1,5.2-4,3,.1,2.4,6.4,3.2,8.4.7,1.8,3.6,1,2.9-.8-1.4-3.6-.2-10.7-6.1-10.6-5.5.1-9.3,6.8-10.1,11.5-.3,1.9,2.6,2.7,2.9.8Z" fill="#e8e8e8"/>
        </g>
      </g>
      <g id="XMLID_2936_">
        <g id="XMLID_2994_">
          <path id="XMLID_2998_" d="M863.5,19.2V62.1a1.5,1.5,0,0,0,3,0V19.2a1.5,1.5,0,0,0-3,0Z" fill="#e8e8e8"/>
        </g>
      </g>
      <g id="XMLID_2943_">
        <g id="XMLID_3001_">
          <path id="XMLID_3005_" d="M841,65.3h67a1.5,1.5,0,0,0,0-3H841a1.5,1.5,0,0,0,0,3Z" fill="#e8e8e8"/>
        </g>
      </g>
      <g id="XMLID_2950_">
        <g id="XMLID_3008_">
          <path id="XMLID_3012_" d="M885.9,65.5V91.3a1.5,1.5,0,0,0,3,0V65.5a1.5,1.5,0,0,0-3,0Z" fill="#e8e8e8"/>
        </g>
      </g>
    </g>
    <g id="girl">
      <g id="leg_right_1_">
        <path id="XMLID_1760_" d="M1515.4,686.4c1.1,6.7,2.2,13.4,3.3,20a182.926,182.926,0,0,1-32.2,28.4c-9.3,6.4-22.4,14.1-33.8,30.1-1.5,2.1-2.6,3.8-3.3,5,11.1-3.2,22.3-6.4,33.4-9.6q37.2-10.8,74.3-21.7c-4-25.1-8.1-50.1-12.1-75.2C1535.1,671.1,1525.3,678.7,1515.4,686.4Z"/>
        <path id="XMLID_1748_" d="M1456.1,356.1c.2,6.3.6,15.4,1.4,26.4,1.1,16.7,4.1,54.9,19.6,135.2,11,56.9,22.4,104.9,33.8,152.8,1.7,7.1,3.1,12.9,4.1,16.9,10.8-2,21.6-4.1,32.4-6.1-1.5-10.8-3.6-27-6.1-46.6-9.6-76.1-15.6-124.5-18.3-181.9-1.1-23.9-1.9-57.7-.7-98.7Q1489.15,355,1456.1,356.1Z" fill="#fff"/>
        <path id="XMLID_1768_" d="M1492.3,366.5c1,7.2,2.5,18.1,4.3,31.2,6.9,49.4,12.3,85.8,13.4,93.6,4.7,31.6,12.3,87.2,25.3,192,3.9-.4,7.9-.7,11.8-1.1-1.7-10.9-4.2-27.8-7-48.4-6.6-49-15.3-114.2-18.3-195.8-.6-16.3-1.2-39.8-1.1-68.3C1511.3,368.7,1501.8,367.6,1492.3,366.5Z" fill="#606060" opacity="0.11"/>
        <g id="XMLID_1717_">
          <g id="XMLID_1771_">
            <path id="XMLID_1775_" d="M1454.3,357.7c6.9,92,25.1,182.6,45.8,272.4,5.9,25.7,12,51.3,18.2,77,.4,1.9,3.3,1.1,2.9-.8-21.3-89.2-42.7-178.6-55.3-269.5-3.7-26.3-6.5-52.6-8.5-79.1-.2-1.9-3.2-1.9-3.1,0Z" fill="#161616"/>
          </g>
        </g>
        <g id="XMLID_1724_">
          <g id="XMLID_1779_">
            <path id="XMLID_1784_" d="M1519.6,372.3A1812.6,1812.6,0,0,0,1542,658.2c4.3,27,9.2,53.8,14.7,80.6.4,1.9,3.3,1.1,2.9-.8a1818.339,1818.339,0,0,1-35.2-284.8c-1.2-27-1.7-53.9-1.7-80.9-.1-1.9-3.1-1.9-3.1,0Z" fill="#161616"/>
          </g>
        </g>
        <g id="XMLID_1725_">
          <g id="XMLID_1787_">
            <path id="XMLID_1792_" d="M1518.9,705.8c-13,10.9-25.9,21.9-38.9,32.8-11,9.3-23.3,18.2-31,30.7a1.5,1.5,0,0,0,1.7,2.2q54.15-15.75,108.3-31.4a1.5,1.5,0,0,0-.8-2.9q-54.15,15.75-108.3,31.4c.6.7,1.1,1.5,1.7,2.2,7.8-12.8,20.7-21.9,32-31.4,12.5-10.5,24.9-21,37.4-31.5,1.5-1.2-.7-3.3-2.1-2.1Z" fill="#161616"/>
          </g>
        </g>
      </g>
      <g id="leg_left_1_">
        <path id="XMLID_1735_" d="M1623.6,670.1c4.5,14.1,8.9,28.1,13.4,42.2-10.4,7.3-19.5,13.8-27.1,19.4-16.4,11.9-22.8,16.9-30.2,24.1-5.1,5-9,9.4-11.6,12.5,10-1.6,32.5-5.3,55.6-10.3,19.1-4.2,15.6-4.3,23.7-5.6,5.3-.8,11.7-1.5,19.4-5.2a48.22,48.22,0,0,0,6.9-3.9c-.4-3.8-.8-7.7-1.3-11.6a344.5,344.5,0,0,0-12.5-57.3C1647.7,672.9,1635.7,671.5,1623.6,670.1Z"/>
        <path id="XMLID_1732_" d="M1543.9,366.2c2,14.8,5.1,34.9,9.6,58.5,3.4,17.8,11.2,56.4,25.6,106.6,11.3,39.4,14.9,44.7,36.1,113,7,22.5,12.5,40.9,16,52.9,10.4-2.9,20.8-5.9,31.2-8.8-2.1-11.2-5.2-27.9-8.8-48.1-12.4-69.7-23.8-133.3-32-209.1-2.9-26.5-6.4-63.5-8.8-108.2Q1578.3,344.45,1543.9,366.2Z" fill="#fff"/>
        <g id="XMLID_1700_">
          <g id="XMLID_1739_">
            <path id="XMLID_1747_" d="M1543,370.6c12.2,90.9,39.5,178.8,67.6,265.8l24.6,75.6c.6,1.8,3.5,1,2.9-.8-28.5-87.6-58.9-175.1-78.7-265.2-5.5-25.2-10.1-50.6-13.6-76.2-.2-1.9-3-1.1-2.8.8Z" fill="#161616"/>
          </g>
        </g>
        <g id="XMLID_1708_">
          <g id="XMLID_1750_">
            <path id="XMLID_1759_" d="M1611.7,339.3a2597.748,2597.748,0,0,0,41.9,312.9c5.8,29.3,12,58.5,18.8,87.6.4,1.9,3.3,1.1,2.9-.8a2588.8,2588.8,0,0,1-52.6-310.4c-3.2-29.7-5.8-59.4-8-89.2-.1-2.1-3.1-2.1-3-.1Z" fill="#161616"/>
          </g>
        </g>
        <g id="XMLID_1716_">
          <g id="XMLID_1763_">
            <path id="XMLID_1767_" d="M1635.3,712.6c-24.6,16.1-49.4,32.5-69.3,54.4a1.526,1.526,0,0,0,1.5,2.5c23.6-4.7,47.2-9.5,70.7-14.2,5.8-1.2,11.6-2.3,17.4-3.5,4.5-.9,9.5-1.4,13.8-3.4,5.3-2.5,8.6-8.9,4.2-13.8-1.3-1.5-3.4.7-2.1,2.1,8.1,9.3-17.4,12.4-21.5,13.2-9.4,1.9-18.7,3.8-28.1,5.7l-55.2,11.1c.5.8,1,1.7,1.5,2.5,19.8-21.7,44.3-38,68.7-54,1.5-1.1,0-3.7-1.6-2.6Z" fill="#161616"/>
          </g>
        </g>
        <path id="XMLID_1737_" d="M1593.3,380.4c1.3,8.8,4.8,32.9,6.1,41.9,19.5,134.4,24.8,173.4,38.5,228.5,2.7,10.8,6.5,25.4,11.5,42.6,4.5-1.4,9-2.7,13.5-4.1-1.8-9.8-4.3-24.4-7.4-41.9-13.7-77.6-20.6-116.3-24.3-140.6-5.3-34.1-11.6-82.3-15.5-142C1608.2,370,1600.7,375.2,1593.3,380.4Z" fill="#606060" opacity="0.1"/>
      </g>
      <g id="skirt">
        <path id="XMLID_1682_" d="M1467.1,186.3a436.614,436.614,0,0,0-14,53,452.974,452.974,0,0,0-6.3,135.7,232.2,232.2,0,0,0,34.9,12.3c16.6,4.3,45.8,11.7,82,5.7a173.4,173.4,0,0,0,59.4-21.7A581.68,581.68,0,0,0,1588,187.1Q1527.55,186.8,1467.1,186.3Z" fill="#ec615b"/>
        <path id="XMLID_1690_" d="M1562.3,189.5c3.3,8.8,6.3,18,9,27.7,18.4,66.5,13.5,127.8,3.7,174.2a166.332,166.332,0,0,0,29.2-10.5,171.938,171.938,0,0,0,17.9-9.7c.2-14.1-.2-29.1-1.5-44.8a470.313,470.313,0,0,0-33.6-139C1578.8,188,1570.6,188.8,1562.3,189.5Z" fill="#606060" opacity="0.11"/>
      </g>
      <g id="arm_right_1_">
        <path id="XMLID_1666_" d="M1486.5-28.3a100.023,100.023,0,0,0-9.9,8.2,103.327,103.327,0,0,0-20.2,26.2c-5.2,10-7.2,18.5-10.3,32.2-3.6,15.6-3,21-8.6,28.3a40.568,40.568,0,0,1-15.5,12c-9.4,4.6-17.8,4.7-22.8,4.7a60.288,60.288,0,0,1-25.8-5.6c-1.1,1.4-2.3,2.9-3.4,4.3-3.2-1.6-8.1-4-14.2-6.4-12-4.8-18.1-7.2-25.3-6.4-1.5.2-14.3,1.7-17.2,9.9-1,2.9-.9,7.1,1.3,9,2.6,2.2,7.6,1,12,0,3.7-.8,5.5-1.8,7.7-.9a6.967,6.967,0,0,1,3.4,3.9c3.1,6.4,1.1,11.4,2.1,21.9.5,5.7.9,8.7,3,10.3.7.6,3.2,2.2,14.2-.9a84.41,84.41,0,0,0,16.3-6.4c-.4,2.7-.9,5.4-1.3,8.2a180.9,180.9,0,0,0,28.8,4.7c17.7,1.5,29.8,2.5,44.2-2.6a75.238,75.238,0,0,0,31.3-21.5,79.361,79.361,0,0,0,15.5-27.9C1505.9,36.4,1489.1-19.7,1486.5-28.3Z" fill="#fff"/>
        <path id="XMLID_1674_" d="M1491.2-14.2c-.8,6.8-2.2,16.8-4.3,28.8-4.6,25.6-6.8,38.4-13.3,51.5-3.7,7.4-11.8,23.9-28.8,34.8-29.3,18.8-64.1,7.7-70.4,5.6-10.3,5.2-20.6,10.3-30.9,15.5a34.442,34.442,0,0,0,9.9.4,39.309,39.309,0,0,0,18.9-6.9v9.4a176.763,176.763,0,0,0,28.8,4.3c17.1,1.1,29.7,1.9,44.2-3.4,25.2-9.3,37.6-30.5,39.9-34.8,7-12.6,8.3-23.5,9.9-38.6A210.754,210.754,0,0,0,1491.2-14.2Z" fill="#606060" opacity="0.1"/>
        <g id="XMLID_1599_">
          <g id="XMLID_1685_">
            <path id="XMLID_1689_" d="M1485.7-30A98.735,98.735,0,0,0,1451,14.7c-7.8,20.5-7.7,43.5-19.2,62.6a1.5,1.5,0,0,0,2.6,1.5c10.5-17.5,11.5-38.1,17.4-57.2a95.271,95.271,0,0,1,35.4-49c1.6-1.1.1-3.7-1.5-2.6Z" fill="#161616"/>
          </g>
        </g>
        <g id="XMLID_1600_">
          <g id="XMLID_1694_">
            <path id="XMLID_1698_" d="M1372.2,78.2a262.052,262.052,0,0,1-1.2,43.4c-.2,1.9,2.8,1.9,3,0a241.992,241.992,0,0,0,1.2-43.4c-.1-2-3.1-2-3,0Z" fill="#161616"/>
          </g>
        </g>
        <g id="XMLID_1601_">
          <g id="XMLID_1702_">
            <path id="XMLID_1707_" d="M1372.4,79.6c14.4,4.6,30.5,7.8,45.3,2.9,11.2-3.7,20.8-11.6,24.9-22.9.7-1.8-2.2-2.6-2.9-.8-4.1,11.2-14.3,18.7-25.6,21.6-13.6,3.5-27.8.5-40.8-3.7-1.9-.6-2.7,2.3-.9,2.9Z" fill="#161616"/>
          </g>
        </g>
        <g id="XMLID_1602_">
          <g id="XMLID_1710_">
            <path id="XMLID_1715_" d="M1372.1,124.8c23.1,6.1,50.6,9.7,74,2.8,21.2-6.3,34.7-24.4,44.8-43,.9-1.7-1.7-3.2-2.6-1.5-10.1,18.5-23.4,36.4-44.7,42.1-22.5,6-48.5,2.6-70.7-3.2-1.8-.6-2.6,2.3-.8,2.8Z" fill="#161616"/>
          </g>
        </g>
        <g id="XMLID_1653_">
          <g id="XMLID_1718_">
            <path id="XMLID_1723_" d="M1371.8,79.7c-6.1.1-12.2-4.1-17.7-6.6a68.253,68.253,0,0,0-13.1-4.7c-8-1.8-16.6-1.2-23.2,4.1-4.1,3.3-9.2,10.9-4.9,15.9a11.591,11.591,0,0,0,8.1,3.3c3.7.1,13.5-5.9,15.3-1.3.7,1.8,3.6,1,2.9-.8-1.8-4.7-6.4-4.7-10.6-3.1-4.1,1.5-14.6,5.4-14.1-3.9.2-4,4.9-7.9,8.1-9.7,8.9-4.8,19.7-1.7,28.3,2.1,6.5,2.9,13.6,7.9,20.9,7.8a1.551,1.551,0,0,0,0-3.1Z" fill="#161616"/>
          </g>
        </g>
        <g id="XMLID_1665_">
          <g id="XMLID_1726_">
            <path id="XMLID_1731_" d="M1344,124.1a34.371,34.371,0,0,0,27.9-6.2c1.5-1.1,0-3.7-1.5-2.6a31.723,31.723,0,0,1-25.6,5.9c-1.9-.4-2.7,2.5-.8,2.9Z" fill="#161616"/>
          </g>
        </g>
      </g>
      <g id="torso_1_">
        <path id="XMLID_1612_" d="M1524.8-47.8h-15.5v9.3a54.558,54.558,0,0,0-15,4.6,49.021,49.021,0,0,0-10.8,7.2c-3.5,18.8-7.1,33.9-9.8,44.4-4,15.3-6.2,21.7-6.7,33.5-.4,8.9.7,10,1,27.3.1,7.5.3,16.8-.5,27.9-.6,8-1.4,13.9-4.1,30.4-4.8,29.2-5.5,30.9-6.7,39.2a229.814,229.814,0,0,0-1.5,50.1,112.326,112.326,0,0,0,11.4,6.7c9.3,4.9,14,6,21.7,9.8a101.533,101.533,0,0,1,17,10.8c2.1-15.5,4.1-31,6.2-46.4,2.8,16.5,5.5,33,8.3,49.5a125.818,125.818,0,0,0,19.6,0c10.7-.8,31-2.7,49.5-16,9.6-6.9,13.9-13.4,15-15a48.159,48.159,0,0,0,7.2-18.6c-1.6-9.1-3.5-21.8-5.2-37.2-2-19.2-2.9-36.7-3.1-65.5-.2-23.7,0-54.6,1.5-91.3,3.3-10.7,6.5-21.3,9.8-32a172.588,172.588,0,0,0-56.2-23.7c.2-3.8.3-7.6.5-11.4a39.061,39.061,0,0,1-22.2,7.7A31.923,31.923,0,0,1,1524.8-47.8Z" fill="#fff"/>
        <path id="XMLID_1620_" d="M1603.8,29.1c-2.3,7.4-5.7,19.3-9.3,34.1-13.2,54.7-11,79.3-19.6,113.5-4.9,19.3-14.6,47.5-36.6,80a121.4,121.4,0,0,0,31-7.2c12.1-4.6,24.2-9.2,33-21.2a51.349,51.349,0,0,0,9.3-22.2c-3-17.2-5.5-35.4-7.2-54.7A686.4,686.4,0,0,1,1603.8,29.1Z" fill="#606060" opacity="0.09"/>
        <path id="XMLID_1628_" d="M1534.6-43.2c-1.1.4.3,4.3-1.5,10.3a25.812,25.812,0,0,1-4.1,7.7c5.9,2.4,11.7,2.2,13.9-.5C1547.1-30.8,1536.9-44,1534.6-43.2Z" fill="#606060" opacity="0.12"/>
        <path id="XMLID_1636_" d="M1508.8,205c-2,6-3.9,12.6-5.7,19.6a223.059,223.059,0,0,0-4.6,23.7c2.8,1.5,5.5,3.1,8.3,4.6C1507.5,237,1508.2,221,1508.8,205Z" fill="#606060" opacity="0.12"/>
        <g id="XMLID_1353_">
          <g id="XMLID_1381_">
            <path id="XMLID_1386_" d="M1523.6-49a119.209,119.209,0,0,0-14.6.9c-.7.1-1.6.6-1.5,1.5.5,4.5,1,9,1.5,13.6.2,1.9,3.2,1.9,3,0-.5-4.5-1-9-1.5-13.6l-1.5,1.5a101.324,101.324,0,0,1,14.6-.9,1.5,1.5,0,0,0,0-3Z" fill="#161616"/>
          </g>
        </g>
        <g id="XMLID_1354_">
          <g id="XMLID_1393_">
            <path id="XMLID_1397_" d="M1509.2-44.9a20.6,20.6,0,0,1,6.9,12.6c.3,1.9,3.2,1.1,2.9-.8a23.613,23.613,0,0,0-7.7-13.9c-1.4-1.3-3.5.8-2.1,2.1Z" fill="#161616"/>
          </g>
        </g>
        <g id="XMLID_1362_">
          <g id="XMLID_1401_">
            <path id="XMLID_1405_" d="M1484.6-25.5a74.164,74.164,0,0,1,25.2-12.4,1.5,1.5,0,0,0-.8-2.9,78.2,78.2,0,0,0-25.9,12.7c-1.6,1.2-.1,3.8,1.5,2.6Z" fill="#161616"/>
          </g>
        </g>
        <g id="XMLID_1363_">
          <g id="XMLID_1409_">
            <path id="XMLID_1414_" d="M1563.8-41.7a143.1,143.1,0,0,1,49,24.2c1.5,1.2,3-1.4,1.5-2.6a147.078,147.078,0,0,0-49.7-24.5,1.5,1.5,0,0,0-.8,2.9Z" fill="#161616"/>
          </g>
        </g>
        <g id="XMLID_1372_">
          <g id="XMLID_1417_">
            <path id="XMLID_1422_" d="M1476.7,7.9c-20,43-5.4,90.8-7.7,136.1-.1,1.9,2.9,1.9,3,0,2.2-44.6-12.4-92.2,7.3-134.6.8-1.7-1.8-3.2-2.6-1.5Z" fill="#161616"/>
          </g>
        </g>
        <g id="XMLID_1373_">
          <g id="XMLID_1425_">
            <path id="XMLID_1430_" d="M1466.8,94.3c.9,22.6-5.6,44.4-9.4,66.5-3.6,21.5-4.4,43.3-3.6,65.1.1,1.9,3.1,1.9,3,0-.8-22.8,0-45.6,4.1-68,3.9-21.1,9.7-41.9,8.8-63.5,0-2-3-2-2.9-.1Z" fill="#161616"/>
          </g>
        </g>
        <g id="XMLID_1374_">
          <g id="XMLID_1433_">
            <path id="XMLID_1438_" d="M1454.7,227.2a146.327,146.327,0,0,0,24.1,12.8,108.122,108.122,0,0,1,25.9,14.5c1.5,1.2,3-1.4,1.5-2.6a94.117,94.117,0,0,0-23.2-13.4,151.783,151.783,0,0,1-26.9-13.8c-1.5-1.2-3,1.4-1.4,2.5Z" fill="#161616"/>
          </g>
        </g>
        <g id="XMLID_1377_">
          <g id="XMLID_1442_">
            <path id="XMLID_1446_" d="M1507.8,253.2c1.6-16.7,3.1-33.4,4.7-50,.2-1.9-2.8-1.9-3,0-1.6,16.7-3.1,33.4-4.7,50-.2,1.9,2.8,1.9,3,0Z" fill="#161616"/>
          </g>
        </g>
        <g id="XMLID_1379_">
          <g id="XMLID_1450_">
            <path id="XMLID_1454_" d="M1509.8,203.9a435.478,435.478,0,0,0,8.2,53.2c.4,1.9,3.3,1.1,2.9-.8a422.529,422.529,0,0,1-8.1-52.4c-.2-1.9-3.2-2-3,0Z" fill="#161616"/>
          </g>
        </g>
        <g id="XMLID_1387_">
          <g id="XMLID_1458_">
            <path id="XMLID_1463_" d="M1520.3,258.9a126.436,126.436,0,0,0,52.3-9.1c13.3-5.4,28.6-13.1,33.9-27.4.7-1.8-2.2-2.6-2.9-.8-5.4,14.6-23.1,22.3-36.7,27.2a125.614,125.614,0,0,1-46.6,7.2c-1.9-.1-1.9,2.9,0,2.9Z" fill="#161616"/>
          </g>
        </g>
        <g id="XMLID_1398_">
          <g id="XMLID_1466_">
            <path id="XMLID_1471_" d="M1602.6,28a930.359,930.359,0,0,0,6.1,179.7c.3,1.9,3.3,1.9,3,0A915.2,915.2,0,0,1,1605.6,28c.1-1.9-2.9-1.9-3,0Z" fill="#161616"/>
          </g>
        </g>
        <g id="XMLID_1407_">
          <g id="XMLID_1474_">
            <path id="XMLID_1479_" d="M1609,205.4a56.866,56.866,0,0,1-8.5,22.8c-1,1.6,1.6,3.1,2.6,1.5a58.348,58.348,0,0,0,8.8-23.5c.3-1.9-2.6-2.7-2.9-.8Z" fill="#161616"/>
          </g>
        </g>
        <g id="XMLID_1415_">
          <g id="XMLID_1482_">
            <path id="XMLID_1487_" d="M1517.1-28.1a13.548,13.548,0,0,0,10.1,4.8,1.5,1.5,0,0,0,0-3,10.668,10.668,0,0,1-8-3.9c-1.3-1.5-3.4.6-2.1,2.1Z" fill="#161616"/>
          </g>
        </g>
        <g id="XMLID_1423_">
          <g id="XMLID_1492_">
            <path id="XMLID_1496_" d="M1526-18.3c-19.3,65.5-3.3,134.4-13.1,201.1-.3,1.9,2.6,2.7,2.9.8,9.8-66.7-6.1-135.6,13.1-201.1.6-1.9-2.3-2.6-2.9-.8Z" fill="#161616"/>
          </g>
        </g>
        <g id="XMLID_1431_">
          <g id="XMLID_1500_">
            <path id="XMLID_1504_" d="M1518.5-9.2h0c-.1,0-.1,0,.1.1-.1-.1-.1-.1,0,.1,0-.1,0-.2-.1-.2.1.2.2.2,0,0,.1-.1.1-.1.1.1,0-.1,0-.1-.1-.1.1.1.1.2,0,0,.1-.2.1-.1,0,0,.1-.1.1,0,0,.1.1-.1.1-.1-.1,0,.1-.1.1-.1-.1,0h-.4l.2.2h0v-.2c0-.1.1-.2.2-.3h0c.1-.1.2-.1.4-.1h.1c-.2-.1-.1,0,.1,0-.1,0-.1-.1-.2-.1.2.1.2.1.1,0,.1.2.1.2,0,.1s-.1-.1,0,.1v.1c0,.2-.1.3,0,.1-.1.2-.1.2,0,.1a1.577,1.577,0,0,0-.5-2.1,1.685,1.685,0,0,0-2.1.5c-1.2,1.7.4,4,2.3,4.1a2.466,2.466,0,0,0,2.3-1.2,2.8,2.8,0,0,0-.1-2.8,2.673,2.673,0,0,0-4.6-.1,2.949,2.949,0,0,0,1.8,4.3,1.512,1.512,0,0,0,1.8-1,1.712,1.712,0,0,0-1.2-1.8Z" fill="#161616"/>
          </g>
        </g>
        <g id="XMLID_1439_">
          <g id="XMLID_1508_">
            <path id="XMLID_1513_" d="M1514.4,23.4c0-.6-.1-1.2-.1-1.8a17.1,17.1,0,0,1-1.1,1.4c.2,0,.2-.1.1,0h.1c-.3-.1.2,0-.1,0a.1.1,0,0,1,.1.1h0v.1c-.1-.1,0-.1,0-.2,0,.2-.1.2,0,0l-.2.2c.1,0,.3,0,0-.1.4.1.7.3,1.1.4a1.007,1.007,0,0,1-.1-.3v-.3a1.5,1.5,0,0,0-2.9-.8,3.691,3.691,0,0,0,.9,3.6c1.1,1.1,3.1.1,3.8-1a3.017,3.017,0,0,0-3.5-4.4c-.6.2-1.2.8-1.1,1.4,0,.6.1,1.2.1,1.8A1.538,1.538,0,0,0,1513,25a1.819,1.819,0,0,0,1.4-1.6Z" fill="#161616"/>
          </g>
        </g>
        <g id="XMLID_1447_">
          <g id="XMLID_1516_">
            <path id="XMLID_1521_" d="M1512.4,52.3c-.2-.3,0,.1-.1-.2V52h0a.1.1,0,0,1,.1-.1l.1-.1-.1.1c-.4-.1-.8-.1-1.2-.2-.3-.2.1.2-.1-.1h0v.3c-.1.3.1-.1-.1.1s.2-.1-.1.1c.2-.1.1,0,0,0-.2,0,.5-.1.1,0l1.5,1.5c0-.6-.1-1.2-.1-1.8a1.5,1.5,0,0,0-3,0c0,.6.1,1.2.1,1.8a1.538,1.538,0,0,0,1.5,1.5,3.428,3.428,0,0,0,2.7-5.1,2.3,2.3,0,0,0-1.7-1.2,2.535,2.535,0,0,0-1.8,1,3.321,3.321,0,0,0-.4,3.8,1.455,1.455,0,1,0,2.6-1.3Z" fill="#161616"/>
          </g>
        </g>
        <g id="XMLID_1456_">
          <g id="XMLID_1524_">
            <path id="XMLID_1529_" d="M1511.8,78.6c.1.2.2.3.2.5v.1h0c0-.1.3-.2,0,0h-.4c.3,0-.2-.2,0,0l-.5-.5a1.933,1.933,0,0,1,0,1.5l1-1h.1c.1.1.1.1,0,.1-.1-.1,0-.1,0,.1h0a1.431,1.431,0,0,0-1-1.8,1.512,1.512,0,0,0-1.8,1,2.75,2.75,0,0,0,2.1,3.5,1.95,1.95,0,0,0,1.3-.1,1.5,1.5,0,0,0,1.1-1.4,4.965,4.965,0,0,0-.1-2.7,2.238,2.238,0,0,0-1.9-1.7,2.7,2.7,0,0,0-2.1.7,2.607,2.607,0,0,0-.3,3.8,1.543,1.543,0,0,0,2.1,0,1.324,1.324,0,0,0,.2-2.1Z" fill="#161616"/>
          </g>
        </g>
        <g id="XMLID_1464_">
          <g id="XMLID_1532_">
            <path id="XMLID_1537_" d="M1511.9,102.1c-.1-.1-.1-.2,0,0l-.1-.2c0,.2.1-.2,0,.1-.4.2-.9.5-1.3.7h.1c-.2-.1-.2-.1-.1,0s.1,0-.1-.1c.2.3-.1-.3.1.1.1.1.1.4,0,.1,0,.1.1.4,0,.1v.1c0,.1-.2.3,0,.1,0-.1.1-.1.1-.2h0c.3-.1.5-.1.8-.2-.3,0,.2.1.2.1l.1.1-.1-.1a.454.454,0,0,1,0,.5,1.6,1.6,0,0,0-.5-2.1,1.577,1.577,0,0,0-2.1.5,2.5,2.5,0,0,0,.8,3.3,2.619,2.619,0,0,0,2.1.4,2.19,2.19,0,0,0,1.2-1.3,3.23,3.23,0,0,0-2.8-4.5,1.561,1.561,0,0,0-1.3.7,3.037,3.037,0,0,0,.6,3.7c1.6,1.6,3.7-.6,2.3-1.9Z" fill="#161616"/>
          </g>
        </g>
        <g id="XMLID_1472_">
          <g id="XMLID_1541_">
            <path id="XMLID_1545_" d="M1511.3,126a.77.77,0,0,1,.3.2.1.1,0,0,0-.1-.1c.1.1.1.2,0,.1h0v-.1c0,.2,0,.3-.2.4-.5.1-1,.3-1.5.4.3.1-.2-.1,0,0-.2-.1-.2-.2-.1,0l-.1-.1c0,.1.1.1.1.2,0-.1,0-.1-.1-.2,0,.1,0,.1.1.2v.1h0c.1-.1,0-.1,0,0,.1-.2.2-.2.1-.1s0,.1.1-.1c-.1.1-.1.1.1,0,.6.2,1.1.5,1.7.7h0v.2c0-.2.1-.2,0,0,0,.1-.1.1-.2.2a1.526,1.526,0,0,0-1.6-2.6,2.731,2.731,0,0,0-.9,3.7,1.622,1.622,0,0,0,1.7.7,2.831,2.831,0,0,0,1.9-2.9,2.909,2.909,0,0,0-2.1-2.8,1.674,1.674,0,0,0-1.5.4,2.81,2.81,0,0,0,1.2,4.5,1.431,1.431,0,0,0,1.8-1,1.347,1.347,0,0,0-.7-2Z" fill="#161616"/>
          </g>
        </g>
        <g id="XMLID_1480_">
          <g id="XMLID_1549_">
            <path id="XMLID_1553_" d="M1509.6,154.8a.9.9,0,0,1-.1.5l-.1.1h0c-.1.1-.3.1-.1.1-.2,0-.8-.2-.5,0-.2-.3-.5-.6-.7-.9,0,.1.1.2.1.3h0v.3c0-.2,0,0-.1.1-.1.2.1-.2,0,.1,0,0-.2.2-.1.2-.1.1-.2.1-.3.2a15.986,15.986,0,0,0,2.1.5,2.19,2.19,0,0,1-.3-.5c-.1-.2,0-.2-.1,0s-.1.5-.3.6c-.5.4-1.2-.2-1.4-.7a1.456,1.456,0,0,0,2.8-.8,2.133,2.133,0,0,0-3.3-1c-1.3,1-.9,2.6-.1,3.8a1.488,1.488,0,0,0,2.1.5,3.789,3.789,0,0,0,1.8-2.3,2.909,2.909,0,0,0-.6-3c-1.8-1.5-4.5.6-3.9,2.7.7,1.9,3.6,1.1,3.1-.8Z" fill="#161616"/>
          </g>
        </g>
        <g id="XMLID_1488_">
          <g id="XMLID_1557_">
            <path id="XMLID_1562_" d="M1507.7,185.7a10.094,10.094,0,0,1,.7-1.5c-.3.2-.6.5-.9.7-.2.1-.3,0-.5-.1h0a.822.822,0,0,1-.1-.7c.1-.2.2-.3.4-.3h.1a.368.368,0,0,1,.3.1,1.6,1.6,0,0,0-2.1.5,1.577,1.577,0,0,0,.5,2.1c1.9,1,4.4-.8,3.5-2.9a2.622,2.622,0,0,0-2.3-1.6,1.624,1.624,0,0,0-1.6,1,5.024,5.024,0,0,0-.5,1.3,1.715,1.715,0,0,0,.5,2.1,1.756,1.756,0,0,0,2-.7Z" fill="#161616"/>
          </g>
        </g>
        <g id="XMLID_1497_">
          <g id="XMLID_1565_">
            <path id="XMLID_1570_" d="M1547.7-52.2c-3.4,1.1-6.7,2.2-10.1,3.3-1.6.5-4.2.9-5.1,2.5-.8,1.4-.1,2.6.2,4a14.956,14.956,0,0,1-2.3,11.4c-1.1,1.6,1.5,3.1,2.6,1.5a17.47,17.47,0,0,0,2.9-12.2c0-.2-.8-2.5-.6-2.8.5-1.1,3.6-1.7,4.6-2,2.9-1,5.7-1.9,8.6-2.9,1.8-.6,1-3.5-.8-2.8Z" fill="#161616"/>
          </g>
        </g>
        <g id="XMLID_1506_">
          <g id="XMLID_1573_">
            <path id="XMLID_1578_" d="M1533.9-44.1a22.943,22.943,0,0,1,5.8,11.5c.4,1.9,3.3,1.1,2.9-.8a25.063,25.063,0,0,0-6.6-12.8c-1.3-1.5-3.4.7-2.1,2.1Z" fill="#161616"/>
          </g>
        </g>
        <g id="XMLID_1514_">
          <g id="XMLID_1581_">
            <path id="XMLID_1586_" d="M1546-48a52.084,52.084,0,0,1,12.7-4,23.07,23.07,0,0,0-1.9-1.4,21.59,21.59,0,0,1-1.9,11.5c-.8,1.7,1.8,3.3,2.6,1.5a23.424,23.424,0,0,0,2.3-13,1.519,1.519,0,0,0-1.9-1.4,52.433,52.433,0,0,0-13.4,4.3c-1.8.7-.3,3.3,1.5,2.5Z" fill="#161616"/>
          </g>
        </g>
        <g id="XMLID_1522_">
          <g id="XMLID_1590_">
            <path id="XMLID_1594_" d="M1558.7-42.5a22.461,22.461,0,0,0,6.3.6,1.5,1.5,0,0,0,0-3,25.029,25.029,0,0,1-5.5-.5,1.5,1.5,0,0,0-.8,2.9Z" fill="#161616"/>
          </g>
        </g>
      </g>
      <g id="arm_left_1_">
        <path id="XMLID_1644_" d="M1614.1-18.9c4.1,0,6.3,8.3,11.4,20.6,10.9,26.7,16.3,40,18.6,48.5a245.008,245.008,0,0,1,8.3,62.4,155.392,155.392,0,0,1-15,25.8c-6.4,8.9-18.1,24.9-39.2,37.7a118.558,118.558,0,0,1-29.9,12.9l-2.1-15c-2.2,1.1-5.4,2.9-9.3,5.2-6.2,3.7-7.6,5-10.3,6.2-3.5,1.5-8.9,2.8-17,1-4.1-11.9-7.5-21.7-10.3-29.4-.9-2.6-2.7-7.3-.5-11.4a10.234,10.234,0,0,1,4.6-4.1,24.561,24.561,0,0,1-2.6-7.7c-.3-2.3-.5-3.9.5-5.2,1.7-2.1,5.3-1.6,5.7-1.5-.7-4.7-1.4-9.6-2.1-14.4-1.8-13.7-3.2-26.9-4.1-39.7,4.3-2.6,8.6-5.2,12.9-7.7q31.95-19.05,63.5-36.1a100.012,100.012,0,0,1,1-10.3A97.069,97.069,0,0,1,1600.8,6C1601.2,3.8,1607.3-18.9,1614.1-18.9Z" fill="#fff"/>
        <path id="XMLID_1530_" d="M1612.6-19.9A287.621,287.621,0,0,1,1625,16.7c6.3,23.9,12.6,46.8,8.8,75.3-2,14.7-4.3,32.2-17.5,49-16.6,21.1-39.7,27.5-48.5,29.4a34.88,34.88,0,0,0-15.5-3.6c-14.4,0-24.1,9.1-26.3,11.4,1.2,2.8,2.4,5.5,3.6,8.3A29.321,29.321,0,0,0,1544,185c5.7-2.2,8.3-5.6,16.5-8.8a52.124,52.124,0,0,1,6.7-2.1c.2,4.1.3,8.3.5,12.4a85.145,85.145,0,0,0,24.3-6.7c22.4-10.1,35.2-28.4,48.5-47.5,5.7-8.1,9.8-15.1,12.4-19.6a250.955,250.955,0,0,0-2.6-33c-3.7-26-10.3-44.8-11.9-49A230.121,230.121,0,0,0,1612.6-19.9Z" fill="#606060" opacity="0.07"/>
        <path id="XMLID_1580_" d="M1589.3,33.7a156.8,156.8,0,0,1,1,25.3c-1.4,33.6-13.7,59.8-23.2,75.9a144.5,144.5,0,0,0,17-12.4,148.891,148.891,0,0,0,24.3-26.3,142.636,142.636,0,0,0-.5-25.3,180.023,180.023,0,0,0-5.7-28.9c-1.5-6-3-10.9-4.1-14.4C1595.2,29.6,1592.3,31.7,1589.3,33.7Z" fill="#606060" opacity="0.1"/>
        <path id="XMLID_1598_" d="M1648.7,71.9c-1.9,0-1.7,17.2-9.8,41.3-2.8,8.2-6.7,19.6-14.4,31.5-5.5,8.4-16.9,23-38.2,35.1a114.4,114.4,0,0,0,25.8-13.4c24.7-17.4,36-40.7,40.8-52.6C1651.5,79.3,1649.9,71.9,1648.7,71.9Z" fill="#606060" opacity="0.1"/>
        <g id="XMLID_1538_">
          <g id="XMLID_1606_">
            <path id="XMLID_1611_" d="M1601.6,37.6c3.5,19.6,6.8,39.3,4.6,59.3-.2,1.9,2.8,1.9,3,0,2.3-20.2-1.1-40.2-4.7-60.1-.3-1.9-3.2-1.1-2.9.8Z" fill="#161616"/>
          </g>
        </g>
        <g id="XMLID_1546_">
          <g id="XMLID_1614_">
            <path id="XMLID_1619_" d="M1606.8,95.5a125.935,125.935,0,0,1-23.7,26.8,119.344,119.344,0,0,1-14.7,10.6c-3.5,2.2-8.4,3.6-9.8,7.8-.6,1.8,2.3,2.6,2.9.8.8-2.7,4.8-3.9,7-5.2,2.5-1.5,5-3.1,7.4-4.8a127.86,127.86,0,0,0,12.3-9.7,127.7,127.7,0,0,0,21.1-24.7,1.484,1.484,0,0,0-2.5-1.6Z" fill="#161616"/>
          </g>
        </g>
        <g id="XMLID_1555_">
          <g id="XMLID_1622_">
            <path id="XMLID_1627_" d="M1558.5,141.9a208.666,208.666,0,0,1,7.6,45c.1,1.9,3.1,1.9,3,0a215.01,215.01,0,0,0-7.7-45.8c-.5-1.8-3.4-1-2.9.8Z" fill="#161616"/>
          </g>
        </g>
        <g id="XMLID_1563_">
          <g id="XMLID_1630_">
            <path id="XMLID_1635_" d="M1612-19.2a237.071,237.071,0,0,1,38.5,131.3,1.5,1.5,0,0,0,3,0,239.667,239.667,0,0,0-38.9-132.8c-1.1-1.6-3.7-.1-2.6,1.5Z" fill="#161616"/>
          </g>
        </g>
        <g id="XMLID_1571_">
          <g id="XMLID_1639_">
            <path id="XMLID_1643_" d="M1568,189.2c41.2-7.2,67.9-42.1,86.7-76.6.9-1.7-1.7-3.2-2.6-1.5-18.5,33.9-44.5,68.2-84.9,75.2-1.9.3-1.1,3.2.8,2.9Z" fill="#161616"/>
          </g>
        </g>
        <g id="XMLID_1579_">
          <g id="XMLID_1647_">
            <path id="XMLID_1651_" d="M1557.8,141c-5.8-3.4-11.6-7.1-17.6-10.2-4.5-2.4-10.4-5.3-15.7-4.9-8.8.7-6.1,12.5-1.7,16.6,1.4,1.3,3.5-.8,2.1-2.1-2.8-2.6-6.1-10.6.2-11.5,3.7-.5,8.8,2.2,12,3.7,6.6,3.2,12.9,7.3,19.2,11a1.5,1.5,0,0,0,1.5-2.6Z" fill="#161616"/>
          </g>
        </g>
        <g id="XMLID_1587_">
          <g id="XMLID_1655_">
            <path id="XMLID_1664_" d="M1523.5,140.1c-6.3,2.2-7.4,8.6-6.1,14.5,1.1,5.1,3,10.1,4.5,15.2,1.5,4.8,2.5,10.1,4.5,14.7,2.8,6.2,11,3.9,16.3,2.7,3.7-.9,7.8-2,10.8-4.4,3.7-3,5.7-6.1,10.8-7.3,1.9-.4,1.1-3.3-.8-2.9-4.8,1.1-7.4,3.5-10.8,6.9-2.5,2.4-5.7,3.5-8.9,4.4-2.6.7-8.1,2.5-10.7,1.7-4.7-1.6-5.3-6.7-6.5-10.8-.9-2.9-1.7-5.7-2.6-8.6-1.8-5.9-8.6-20.1.4-23.1,1.7-.7.9-3.6-.9-3Z" fill="#161616"/>
          </g>
        </g>
        <g id="XMLID_1595_">
          <g id="XMLID_1667_">
            <path id="XMLID_1672_" d="M1556.3,141.8a233.414,233.414,0,0,1,7.1,33.2c.3,1.9,3.2,1.1,2.9-.8a251.479,251.479,0,0,0-7.1-33.2c-.5-1.8-3.4-1-2.9.8Z" fill="#161616"/>
          </g>
        </g>
        <g id="XMLID_1604_">
          <g id="XMLID_1675_">
            <path id="XMLID_1680_" d="M1529,126a255.3,255.3,0,0,1-5.6-35.9l-.6-8.7c-.1-2.4-1-6.4.5-8.5,1.5-2,5.8-3.9,7.9-5.2,2.4-1.5,4.8-3.1,7.2-4.6,19.6-12.2,40-23.1,60.3-34-.7-.3-1.5-.6-2.2-.9a435.562,435.562,0,0,1,9.6,42.5c.3,1.9,3.2,1.1,2.9-.8-2.5-14.3-5.7-28.5-9.6-42.5a1.489,1.489,0,0,0-2.2-.9c-22.3,11.9-44.6,23.9-65.9,37.5-2.7,1.7-5.3,3.4-7.9,5.2-1.2.8-3.2,1.6-3.8,3-.9,1.9.1,6,.2,8.1q.15,4.35.6,8.7a264.745,264.745,0,0,0,5.8,37.6,1.435,1.435,0,1,0,2.8-.6Z" fill="#161616"/>
          </g>
        </g>
      </g>
      <g id="head_1_">
        <path id="XMLID_1328_" d="M1491.3-176.4c-8.2,4.9-13.6,8.3-17.7,15.1-5.6,9.2-5.2,18.8-4.8,23.3L1458-108.6h12.1a49.492,49.492,0,0,0,3,17.3c1.6,4.3,6.5,16.7,19.9,23.8a42.259,42.259,0,0,0,26.8,3.9c1,5.8,2,11.5,3,17.3a50.26,50.26,0,0,0,18.2-4.3c21.3-9.5,28.9-31.2,31.1-37.6,7.8-22.4,2-41.7,0-48-4.6-14.7-12.4-24-17.3-29.8-9.9-11.7-18.3-21.6-31.1-22.9C1513.8-189.9,1506-185.2,1491.3-176.4Z" fill="#fff"/>
        <path id="XMLID_1304_" d="M1468.2-137.9c4.1-8.8,7.5-15.4,7.9-16.2,5.9-11,30.9-28.9,33.3-30.6,3-4.6,5.5-9.9,3.5-12.9-3.8-5.7-23.5-2-36.8,7.9-1.7,1.2-23.5,18.1-18.8,39.1a32.2,32.2,0,0,0,9.4,15.9C1467.1-135.5,1467.6-136.6,1468.2-137.9Z" fill="#5222d0"/>
        <path id="XMLID_1312_" d="M1497.1-190.3c-3.3,6.8-1.4,14,.6,21.5.4,1.4,6.2,22.1,25.9,32.7,5.7,3,13.6,7.3,20.9,4.4,3.8-1.5,5-4.1,8.2-3.8,5.3.4,10,7.1,10.9,13.5.1.7,1.2,10-4.7,13.8-3.8,2.5-8.8,1.5-9.2,1.4-2.9-.6-3.4-1.9-5.5-2-1-.1-3.8.5-9.4,6.5-9.6,10.2-12.2,25-12.9,30.9,1.7-2.8,3.3-5.7,5-8.5a51.11,51.11,0,0,0-1.5,20.9c.5,3.3,2.6,18.9,14.8,29.3,16.7,14.1,44.9,12.5,60.1-2.2,10.3-9.9,11.9-23,12.5-28.1,2.4-18.8-7.3-20.5-13.9-55.8a367.069,367.069,0,0,0-8.3-36,80.876,80.876,0,0,0-5.6-14.3c-6.3-13.1-12.3-25.2-25.3-32.7C1538.3-211.2,1505-206.8,1497.1-190.3Z" fill="#5222d0"/>
        <path id="XMLID_1320_" d="M1480.9-75.2a48.64,48.64,0,0,0-3.9,17.3c-.3,7.2-.7,15.6,4.8,22.1,6.3,7.5,19.9,11.5,30.3,4.8,7.4-4.8,11.3-14,9.9-23.3-.6-2.9-1.2-5.8-1.7-8.6a50.982,50.982,0,0,1-16.9-.9A54.317,54.317,0,0,1,1480.9-75.2Z" fill="#5222d0"/>
        <path id="XMLID_1336_" d="M1509.2-147.2a225.189,225.189,0,0,1,11.1,21c5.5,12,8.3,18.2,8.1,24.7-.2,6.1-2,7.4-5.5,21.8-1.6,6.7-2.7,12.2-3.3,15.9,2-2.1,3.9-4.2,5.9-6.3a45.37,45.37,0,0,0,1.1,17.7c.4,1.5,6.1,21.1,25.1,29.5,17.2,7.6,38.9,3.2,40.2-2.9.6-3.2-4.5-5.1-10.7-11.1-16.1-15.3-25.9-44.1-17.7-64.1,5-12.1,13-12.4,14.7-24,2.1-13.8-7.5-25.8-11.1-30.2-20.7-26-58.8-24.6-65.3-24.3-2,1.8-3.9,3.7-5.9,5.5a87.386,87.386,0,0,0,4.8,12.5A87.066,87.066,0,0,0,1509.2-147.2Z" fill="#606060" opacity="0.06"/>
        <path id="XMLID_1345_" d="M1458.8-109a69.315,69.315,0,0,1,12-2.2c4.7-.4,6.1.1,6.5.9.5,1-.3,2.4-1.9,4.9a25.425,25.425,0,0,1-3.1,4.3c-.5-2-1-3.9-1.5-5.9C1466.8-107.6,1462.8-108.3,1458.8-109Z" fill="#606060" opacity="0.13"/>
        <g id="XMLID_1_">
          <g id="XMLID_1273_">
            <path id="XMLID_1278_" d="M1468.6-139c-3.9,10.4-7.8,20.7-11.9,31a1.519,1.519,0,0,0,1.4,1.9c4.1-.5,8.1-.7,12.2-.8a1.5,1.5,0,0,0,0-3,98.667,98.667,0,0,0-12.2.8,23.076,23.076,0,0,1,1.4,1.9c4-10.3,8-20.6,11.9-31,.8-1.8-2.1-2.6-2.8-.8Z" fill="#161616"/>
          </g>
        </g>
        <g id="XMLID_743_">
          <g id="XMLID_1282_">
            <path id="XMLID_1286_" d="M1469.8-107.7c.8,13.1,5.2,28.5,15.5,37.3,9.5,8.1,22.7,9.8,34.7,9,1.9-.1,1.9-3.1,0-3-11.2.7-23.7-.6-32.6-8.1-9.8-8.2-13.9-22.9-14.6-35.2-.1-1.9-3.1-1.9-3,0Z" fill="#161616"/>
          </g>
        </g>
        <g id="XMLID_749_">
          <g id="XMLID_1290_">
            <path id="XMLID_1294_" d="M1518.7-61.7a29.907,29.907,0,0,1,3,14.7c-.1,1.9,2.9,1.9,3,0a32.432,32.432,0,0,0-3.4-16.2c-.8-1.8-3.4-.2-2.6,1.5Z" fill="#161616"/>
          </g>
        </g>
        <g id="XMLID_755_">
          <g id="XMLID_1298_">
            <path id="XMLID_1303_" d="M1545.6-130.7c6.7-9.5,16.7,4,16.6,11-.1,8.7-9,15-16.7,9.8-1.6-1.1-3.1,1.5-1.5,2.6,10.6,7.3,22.7-3.3,21-14.9-1.4-9.7-14.3-20.9-22-10-1.1,1.6,1.5,3.1,2.6,1.5Z" fill="#161616"/>
          </g>
        </g>
        <g id="XMLID_761_">
          <g id="XMLID_1306_">
            <path id="XMLID_1311_" d="M1486.8-143.4a28.219,28.219,0,0,0,.3,5.8,14.1,14.1,0,0,0,1.2,5c1.1,1.8,3.9,1.1,3.4-1.1-.5-1.9-3.3-1.1-2.9.8v.2c.1-.5.3-1,.4-1.5.1-.1.2-.1.3-.2.5.1,1,.3,1.5.4-.5-.4-.8-3.2-.9-4.2a30.162,30.162,0,0,1-.2-5.2c-.1-1.9-3.1-1.9-3.1,0Z" fill="#161616"/>
          </g>
        </g>
        <g id="XMLID_767_">
          <g id="XMLID_1314_">
            <path id="XMLID_1319_" d="M1487.6-142.3a19.637,19.637,0,0,1,1.5,9.3c-.1,1.9,2.9,1.9,3,0a22.308,22.308,0,0,0-1.9-10.8c-.7-1.8-3.3-.3-2.6,1.5Z" fill="#161616"/>
          </g>
        </g>
        <g id="XMLID_768_">
          <g id="XMLID_1322_">
            <path id="XMLID_1327_" d="M1483.1-151.8c4.4-7,12.4-1.8,15,3.7.8,1.7,3.4.2,2.6-1.5-3.6-7.7-14.7-12.5-20.1-3.7a1.458,1.458,0,1,0,2.5,1.5Z" fill="#161616"/>
          </g>
        </g>
        <g id="XMLID_771_">
          <g id="XMLID_1331_">
            <path id="XMLID_1335_" d="M1474.1-93.2a13.268,13.268,0,0,0,15.7-6.1,1.5,1.5,0,0,0-2.6-1.5,10.242,10.242,0,0,1-12.3,4.7c-1.9-.6-2.7,2.3-.8,2.9Z" fill="#161616"/>
          </g>
        </g>
        <g id="XMLID_1271_">
          <g id="XMLID_1339_">
            <path id="XMLID_1343_" d="M1485.5-99.8a3.594,3.594,0,0,1,3.9,3.3c.1,1.9,3.1,1.9,3,0a6.663,6.663,0,0,0-6.9-6.3c-1.9.1-1.9,3.1,0,3Z" fill="#161616"/>
          </g>
        </g>
        <g id="XMLID_1279_">
          <g id="XMLID_1347_">
            <path id="XMLID_1352_" d="M1492.7-122.4a1.5,1.5,0,0,0,0-3,1.5,1.5,0,0,0,0,3Z" fill="#161616"/>
          </g>
        </g>
        <g id="XMLID_1287_">
          <g id="XMLID_1355_">
            <path id="XMLID_1361_" d="M1500.6-128.4a1.5,1.5,0,0,0,0-3,1.5,1.5,0,0,0,0,3Z" fill="#161616"/>
          </g>
        </g>
        <g id="XMLID_1296_">
          <g id="XMLID_1364_">
            <path id="XMLID_1371_" d="M1497.9-123.5v.4a1.538,1.538,0,0,0,1.5,1.5,1.538,1.538,0,0,0,1.5-1.5v-.4a1.538,1.538,0,0,0-1.5-1.5,1.473,1.473,0,0,0-1.5,1.5Z" fill="#161616"/>
          </g>
        </g>
      </g>
    </g>
    <g id="guy">
      <g id="leg_right">
        <path id="XMLID_2270_" d="M1138.4,660.8c-.9,24.9-1.9,49.8-2.8,74.7q116.7,19.8,120.1,7.6,3-10.65-79.5-45.4,9.45-75.75-2.8-79.5C1166.6,616.2,1155,630.4,1138.4,660.8Z"/>
        <path id="XMLID_2272_" d="M1217.8,227.6v36.9c.1,61.1.8,88,.9,110.7.4,83.2-7.2,151.6-11.4,188.3-3.9,34.2-8.1,62.5-11.4,82.3a50.636,50.636,0,0,1-18,11.9,57.343,57.343,0,0,1-9.7,2.7,74.036,74.036,0,0,1-34.7-2.2,72.907,72.907,0,0,1-17-7.6c4.9-27.7,10.8-64.1,16.1-106.9,4.3-35.1,11.3-99.3,14.2-180.7,1.4-41.2,2-91,0-147.6Q1182.35,221.4,1217.8,227.6Z" fill="#fff"/>
        <path id="XMLID_2279_" d="M1149.7,313.7c5-12.5,11.4-26.4,15.1-25.5,5.5,1.3,2.2,34,0,58.7-5,56-5.7,112.3-9.5,168.4-2.3,34.9-4.9,84.4-5.7,144.7-11-2.8-22.1-5.7-33.1-8.5,11.2-63.7,20.5-132.9,26.5-207.2C1146.7,398.9,1148.8,355.3,1149.7,313.7Z" fill="#606060" opacity="0.09"/>
        <g id="XMLID_2252_">
          <g id="XMLID_2293_">
            <path id="XMLID_2297_" d="M1215.5,238.9a2191.591,2191.591,0,0,1-9.5,316.9q-4.65,44.85-11.1,89.6c-.3,1.9,2.6,2.7,2.9.8a2192.128,2192.128,0,0,0,22.6-316.6q0-45.3-2-90.6c0-2-3-2.1-2.9-.1Z" fill="#161616"/>
          </g>
        </g>
        <g id="XMLID_2254_">
          <g id="XMLID_2301_">
            <path id="XMLID_2305_" d="M1148.7,314.6c-3.3,87.4-10.5,174.7-21.6,261.4q-4.8,37.95-10.7,75.8c-.3,1.9,2.6,2.7,2.9.8q20.25-130.8,28.7-263.1c1.6-24.9,2.8-49.9,3.8-74.9,0-1.9-3-1.9-3.1,0Z" fill="#161616"/>
          </g>
        </g>
        <g id="XMLID_2262_">
          <g id="XMLID_2309_">
            <path id="XMLID_2314_" d="M1117.7,654.2a88.516,88.516,0,0,0,43.6,7.9c12.5-1,27.2-4,34.9-14.8,1.1-1.6-1.5-3.1-2.6-1.5-7.6,10.6-23.6,13-35.7,13.5a86.233,86.233,0,0,1-38.7-7.7c-1.7-.8-3.2,1.8-1.5,2.6Z" fill="#161616"/>
          </g>
        </g>
      </g>
      <g id="leg_left">
        <path id="XMLID_2248_" d="M1026.8,634.3c-9.5,30.3-18.9,60.5-28.4,90.8q112.2,33,116.4,22.7,3.45-8.55-68.1-47.3c24.4-32.4,30.8-61.6,20.8-70.9C1057.3,620.2,1031.6,632,1026.8,634.3Z"/>
        <path id="XMLID_2241_" d="M1078.8,232.3c-.5,2.2-1.3,9.7-2.8,24.6-2.4,23.2-3.7,40.4-3.8,41.6-5,65.8-14.2,123-14.2,123-10.2,63.3-24.3,112.9-34.1,146.6-7.2,25-13.9,45.8-18.9,60.5a98.022,98.022,0,0,0,22.7,20.8c9,5.9,19.7,13,34.1,12.3a44.6,44.6,0,0,0,13.2-2.8c4.3-12.5,11.7-34.2,19.9-61.5,15.1-50.3,27.6-107.4,52-219.5,1.1-5,15.1-69.5,16.1-73.8,8.8-10.4,17.7-20.8,26.5-31.2,14.9-34.8,14.4-70.2-2.8-85.1C1157.9,162.9,1086.9,198.2,1078.8,232.3Z" fill="#fff"/>
        <path id="XMLID_2249_" d="M1077.8,252.2c1.2,8.7,2.7,21.8,3.8,37.8,4.8,74.1-7,126.5-18,185.4-7.6,40.6-17.9,100.6-27.4,176.9-10.4-7.9-20.8-15.8-31.2-23.6,5.3-15.7,12.9-38.8,20.8-67.2,25.6-91.6,35.6-166.5,42.6-220.4C1071.2,318.9,1074.8,288.6,1077.8,252.2Z" fill="#606060" opacity="0.11"/>
        <g id="XMLID_2224_">
          <g id="XMLID_2256_">
            <path id="XMLID_2261_" d="M1074.5,239a1347.787,1347.787,0,0,1-45.3,304.8q-11.25,42.15-25.4,83.5c-.6,1.8,2.3,2.6,2.9.8a1357.27,1357.27,0,0,0,65.1-302q4.2-43.5,5.7-87.1c.1-2-2.9-2-3,0Z" fill="#161616"/>
          </g>
        </g>
        <g id="XMLID_2232_">
          <g id="XMLID_2265_">
            <path id="XMLID_2269_" d="M1184.5,275.9,1162,304.1c-1.2,1.5.9,3.6,2.1,2.1l22.5-28.2c1.2-1.5-.9-3.6-2.1-2.1Z" fill="#161616"/>
          </g>
        </g>
        <g id="XMLID_2233_">
          <g id="XMLID_2273_">
            <path id="XMLID_2277_" d="M1162.3,302.6c-18.2,93.6-37.7,187-64.2,278.7q-11.25,39-24.3,77.4c-.6,1.8,2.3,2.6,2.9.8,30.7-90.3,53.1-183.1,72.5-276.5,5.5-26.5,10.8-53.1,15.9-79.6.4-1.8-2.5-2.7-2.8-.8Z" fill="#161616"/>
          </g>
        </g>
        <g id="XMLID_2240_">
          <g id="XMLID_2281_">
            <path id="XMLID_2286_" d="M1004.5,629.3c4.1,5.8,9.9,10.1,15.4,14.6a134.733,134.733,0,0,0,16.4,11.6c11.5,6.7,26.2,11.4,39.2,6.3,1.8-.7,1-3.6-.8-2.9-12.8,5.1-27.1,0-38.3-6.8a132.674,132.674,0,0,1-15.7-11.3c-4.8-3.9-10-7.8-13.7-12.9-1-1.6-3.6-.1-2.5,1.4Z" fill="#161616"/>
          </g>
        </g>
      </g>
      <g id="arm_right">
        <path id="XMLID_2183_" d="M1194.7-79.9c5.1-1.1,11.9,7.5,15.6,12.1a54.9,54.9,0,0,1,9.8,19.6c5.3,17.6,6.4,35.1,6.3,48.4a77.622,77.622,0,0,0,8.6,25.4,81.3,81.3,0,0,0,30,30A83.962,83.962,0,0,0,1296.1,66l-4.5,4.5a48.427,48.427,0,0,1,9.9,2c5.1,1.6,7.8,2.4,8.7,2.8a39.488,39.488,0,0,1,4,1.9,8.353,8.353,0,0,0-1.9,5.3,8.607,8.607,0,0,0,4.1,7.4c2.4,1.4,5.9.7,12.7-.7,1.3-.3,2.4-.5,3.2-.7a12.728,12.728,0,0,1,6.8,1c4.1,1.9,5.7,5.8,7.9,10.7,1.6,3.6,3.8,8.5,2.8,14.6a13.891,13.891,0,0,1-3.6,7.9c-.6.6-1,.9-5.9,3.6a86.6,86.6,0,0,1-7.9,4c-3.6,1.3-5.4,2-7.5,1.2-2-.7-4-2.7-4-4.7.1-2.4,3.1-2.8,3.2-4.7.1-2.4-4.2-2.9-9.1-7.5-3.4-3.2-2.8-4.2-6.3-7.1a24.5,24.5,0,0,0-7.1-4.3c-1.6-.7-2.6-.8-5.1-2-3.3-1.5-4.1-2.3-4.6-3-1-1.5-.4-2.3-1.3-3.3-1.2-1.2-3.1-.8-5.4-.8a18.155,18.155,0,0,1-8-2c-1.3,9.2-2.6,18.4-4,27.7a78,78,0,0,1-20.5-7.9c-10.9-6.2-22.4-16.3-37.5-45-11.2-21.2-25.4-48.3-28.8-87.3C1184.1-44.6,1185.6-77.9,1194.7-79.9Z" fill="#fff"/>
        <path id="XMLID_2191_" d="M1195.7-79c.2,6.2.8,14.2,2,23.6.6,4.5,1.8,12.5,4.5,24.6a452.464,452.464,0,0,0,14.1,48.2c12.4,35,18.7,52.9,31.4,64.4a85.329,85.329,0,0,0,25.9,16q.15,10.35.3,20.7a32.359,32.359,0,0,1-12.2-1.5c-7.6-2.4-12.3-7-15.4-10.2-13.2-13.4-19.8-20.1-26.2-30.6-26.3-42.9-30-91.4-30-91.4A208.885,208.885,0,0,1,1195.7-79Z" fill="#606060" opacity="0.09"/>
        <path id="XMLID_2199_" d="M1293.3,71.3c.6.5-1.9,3.3-3.5,7.6a27.749,27.749,0,0,0-.9,15.4c-3.8-.8-7.6-1.6-11.4-2.3a32.746,32.746,0,0,1,6.7-13.7C1287.8,74,1292.6,70.6,1293.3,71.3Z" fill="#606060" opacity="0.08"/>
        <path id="XMLID_2207_" d="M1326.2,112.9c4-2.5,4.4-3.1,6.1-4.1,2.6-1.5,7.8-3.7,16.9-2.6.4,2.8.8,8.5-2,13.1a25.921,25.921,0,0,1-2.9,3.8,28.766,28.766,0,0,1-5.2,4.7,17.127,17.127,0,0,1-9,3.5c-2.7.1-7-.4-7.6-2.3-.5-1.8,2.7-3.2,2.3-5.5-.4-2.8-5.5-3.1-5.5-5.2C1319.2,116.8,1321.3,116,1326.2,112.9Z" fill="#606060" opacity="0.09"/>
        <g id="XMLID_2050_">
          <g id="XMLID_2108_">
            <path id="XMLID_2112_" d="M1190.9-79.8c7,4,14.2,8,19.8,14,6.5,6.9,8.8,15.7,10.2,24.8a429.554,429.554,0,0,1,4.8,60,1.5,1.5,0,0,0,3,0c-.3-21.3-1.6-43-5.4-64-1.5-8.3-4.2-16-9.9-22.3-5.8-6.4-13.5-10.8-20.9-15-1.8-1-3.3,1.6-1.6,2.5Z" fill="#161616"/>
          </g>
        </g>
        <g id="XMLID_2060_">
          <g id="XMLID_2116_">
            <path id="XMLID_2121_" d="M1225.2-18a80.894,80.894,0,0,0,58.3,83.1,1.5,1.5,0,0,0,.8-2.9A77.9,77.9,0,0,1,1228.2-18c.2-1.9-2.8-1.9-3,0Z" fill="#161616"/>
          </g>
        </g>
        <g id="XMLID_2068_">
          <g id="XMLID_2124_">
            <path id="XMLID_2133_" d="M1282.6,65a42.622,42.622,0,0,1,13.1,3.2,25.1,25.1,0,0,0-.4-2.7c-18.6,10.6-23.9,30.5-22.1,50.7.2,1.9,3.2,1.9,3,0-1.7-19.2,2.9-38,20.6-48.1a1.48,1.48,0,0,0-.4-2.7,44.947,44.947,0,0,0-13.9-3.4c-1.8-.2-1.8,2.8.1,3Z" fill="#161616"/>
          </g>
        </g>
        <g id="XMLID_2077_">
          <g id="XMLID_2136_">
            <path id="XMLID_2141_" d="M1215.5,71.7a114.6,114.6,0,0,0,24.6,31.6c9.5,8.5,21,17.2,34.4,16.7,1.9-.1,1.9-3.1,0-3-13.4.5-25.4-9.3-34.6-18a111.671,111.671,0,0,1-21.8-28.8c-.9-1.7-3.5-.2-2.6,1.5Z" fill="#161616"/>
          </g>
        </g>
        <g id="XMLID_2087_">
          <g id="XMLID_2144_">
            <path id="XMLID_2149_" d="M1292.6,71c7.6,2.1,15.2,4.2,22.7,6.3a1.5,1.5,0,0,0,.8-2.9c-7.6-2.1-15.2-4.2-22.7-6.3a1.5,1.5,0,0,0-.8,2.9Z" fill="#161616"/>
          </g>
        </g>
        <g id="XMLID_2088_">
          <g id="XMLID_2153_">
            <path id="XMLID_2157_" d="M1333,88.9c6.6.6,11.2,5.9,13.1,12a34.349,34.349,0,0,1,1.3,9c0,1-.1,13.3-3,11.2-1.6-1.1-3.1,1.5-1.5,2.6,9,6.3,7.6-15.4,7.2-18.6-1.2-9.4-7-18.4-17.1-19.3-2-.1-1.9,2.9,0,3.1Z" fill="#161616"/>
          </g>
        </g>
        <g id="XMLID_2095_">
          <g id="XMLID_2161_">
            <path id="XMLID_2165_" d="M1340.7,108.4c1.1,6.3,2.1,13.5-3.6,17.8-1.5,1.2.6,3.3,2.1,2.1,6.5-5.1,5.6-13.5,4.4-20.8-.3-1.8-3.2-1-2.9.9Z" fill="#161616"/>
          </g>
        </g>
        <g id="XMLID_2103_">
          <g id="XMLID_2169_">
            <path id="XMLID_2174_" d="M1333.2,113c1.1,5.3,2.3,12.2-3.1,15.6-1.6,1-.1,3.6,1.5,2.6,6.7-4.2,5.9-12.3,4.5-19-.4-1.8-3.3-1-2.9.8Z" fill="#161616"/>
          </g>
        </g>
        <g id="XMLID_2105_">
          <g id="XMLID_2177_">
            <path id="XMLID_2182_" d="M1326.6,114.3a21,21,0,0,1-1.5,16.3c-.9,1.7,1.7,3.2,2.6,1.5a24.107,24.107,0,0,0,1.8-18.6c-.5-1.8-3.4-1-2.9.8Z" fill="#161616"/>
          </g>
        </g>
        <g id="XMLID_2114_">
          <g id="XMLID_2185_">
            <path id="XMLID_2190_" d="M1277,94c4.2,1,8.5,2,12.7,3,1.9.4,2.7-2.5.8-2.9-4.2-1-8.5-2-12.7-3-1.8-.5-2.6,2.4-.8,2.9Z" fill="#161616"/>
          </g>
        </g>
        <g id="XMLID_2122_">
          <g id="XMLID_2193_">
            <path id="XMLID_2198_" d="M1275.3,119.8a56.434,56.434,0,0,0,11.3-23.5c.4-1.9-2.5-2.7-2.9-.8a54.2,54.2,0,0,1-10.5,22.2c-1.2,1.4.9,3.6,2.1,2.1Z" fill="#161616"/>
          </g>
        </g>
        <g id="XMLID_2134_">
          <g id="XMLID_2202_">
            <path id="XMLID_2206_" d="M1275.1,94.1a66.7,66.7,0,0,1-.7,18.4,1.5,1.5,0,0,0,2.9.8c1.9-6.2,4-12.4,6.2-18.6.6-1.5-1.5-2.3-2.5-1.5-.6,0-1.2-.1-1.8-.1a25.1,25.1,0,0,1-.4,2.7c.9-.2,3-.1,3.3,1.1.2.6-1.5,2.8-1.7,3.3-1,2-2.1,3.9-3.1,5.9a1.5,1.5,0,0,0,2.6,1.5A20.69,20.69,0,0,0,1284,94a1.536,1.536,0,0,0-2.8-.8,36.989,36.989,0,0,0-5.7,15.1c1,.1,2,.3,2.9.4a28.469,28.469,0,0,1,2.3-11.5c-1-.1-2-.3-2.9-.4a85.609,85.609,0,0,1-1.9,10.1c-.4,1.9,2.4,2.7,2.9.8a104.115,104.115,0,0,0,2-10.9c.2-1.8-2.4-1.8-2.9-.4a30.655,30.655,0,0,0-2.4,12.3c0,1.6,2.7,2.1,2.9.4a33.711,33.711,0,0,1,5.4-14.3c-.9-.3-1.9-.5-2.8-.8a18.7,18.7,0,0,1-3.7,12.1c.9.5,1.7,1,2.6,1.5,1.4-2.6,2.8-5.2,4.1-7.9.7-1.4,1.6-2.6,1.3-4.2-.7-3.5-4.6-3.3-7.3-2.6a1.506,1.506,0,0,0-.4,2.7c1.8,1.4,3.8,1.1,5.5-.4-.8-.5-1.7-1-2.5-1.5-2.2,6.1-4.3,12.3-6.2,18.6,1,.3,1.9.5,2.9.8a65.2,65.2,0,0,0,.8-19.2c-.2-1.7-3.2-1.7-3,.2Z" fill="#161616"/>
          </g>
        </g>
      </g>
      <g id="torso">
        <path id="XMLID_1986_" d="M1086.5-73.7a673.518,673.518,0,0,1,17,105.1,679.166,679.166,0,0,1-14.2,203.4,136.484,136.484,0,0,0,131.8-9.7c-2.8-43.2-7.4-89.2-14.2-137.5-9.1-64.4-21-123.9-34.1-177.9-4.3-2.5-25.3-13.8-51.1-6.8A67.746,67.746,0,0,0,1086.5-73.7Z" fill="#ec615b"/>
        <path id="XMLID_1970_" d="M1113.8-105.6a26.8,26.8,0,0,0-6.3,1.1c-6.8,2.1-10.8,6.6-13.1,9.1a206.094,206.094,0,0,1-20.5,18.8,563.268,563.268,0,0,0-5.1,83c.1,7.7.6,21.1.6,42.1,0,13.5,0,28.4-.6,41.5-1.1,25.4-4.5,44.4-11.4,81.3-3.1,16.6-7.5,38.9-13.6,65.4a175.3,175.3,0,0,0,27.3,12.5c13.4,4.7,25.6,8.9,40.9,6.8a63.682,63.682,0,0,0,11.9-2.8c1.9-10.2,4.5-25.5,6.8-44.3,7.4-60,5.9-107.3,4.5-143.2-.7-18.8-1.7-44.4-5.7-78.4A847.152,847.152,0,0,0,1113.8-105.6Z" fill="#fff"/>
        <path id="XMLID_1978_" d="M1143.3-99.3a49.573,49.573,0,0,1,12.5,11.4c9.9,13,10.1,28,10.2,34.1.8,31.7,8.7,62.8,11.4,94.3,1.7,19.7.8,7,6.3,67.1,4.8,52,5.7,64.1,6.3,71.6,1.4,18.4,2.8,41.4,4,68.2a96.252,96.252,0,0,0,17,0c8.2-.7,16.3-1.4,25-6.3a47.455,47.455,0,0,0,12.5-10.2c-.7-11.8-2.1-30.3-4.5-52.8-2.7-24.7-8-65.9-32.4-180.7-4.1-19.2-9.8-45.9-17-77.9-11.4-6.6-20.1-12.3-26.1-16.5-6.9-4.8-12.9-9.3-18.8-7.4A11.309,11.309,0,0,0,1143.3-99.3Z" fill="#fff"/>
        <path id="XMLID_1994_" d="M1068.9.1c1.1,6.8,2.9,17.7,4.5,31.3,7.7,62.2,4.1,95.4,8,167.6.7,12.6,1.9,31.5,4,54.6q-7.95-2.7-16.5-6.3a266.667,266.667,0,0,1-25.6-12.5c2.9-10.7,6.6-25.3,10.2-42.6a761.391,761.391,0,0,0,14.2-98.9A734.529,734.529,0,0,0,1068.9.1Z" fill="#606060" opacity="0.08"/>
        <path id="XMLID_2002_" d="M1145-97.6c-4.8,2,10.4,39.5,18.2,94.9,1.8,13,3.2,26.7,4.5,58.5,2.9,69.5,2.2,141.6,1.1,189.2,8-1.9,15.9-3.8,23.9-5.7-.2-8.3-.5-20.5-1.1-35.2-3.3-79.9-10.9-142.1-17-192.1-2.8-22.4-6.7-52-11.9-86.9C1150.9-94.9,1146.7-98.3,1145-97.6Z" fill="#606060" opacity="0.1"/>
        <path id="XMLID_2013_" d="M1182.5-75.5c.6,4.4,1.4,10.6,2.3,18.2,2.6,23,3.7,40.6,4.5,55.1,1.1,19.9,1.6,35.3,1.7,39.5v.8c1.2,44.7,7.2,209.3,4.8,209.5-1.2.1-5.3-43.4-15.6-187.3.2-10.4.4-20.8.6-31.3-.4-39.8-.3-67.6.9-76.2.3-2.1,1.1-7-1.2-12.1-1.8-4.1-3.6-3.9-5.5-8.4-2.1-5.1-1.8-10.3-1.7-12.7.2-3.8.8-4.3.6-6.9a17.481,17.481,0,0,0-4-9.2c3.8,2.4,7.7,4.8,11.5,7.2C1181.8-84.6,1182.2-80,1182.5-75.5Z" fill="#606060" opacity="0.14"/>
        <g id="XMLID_1841_">
          <g id="XMLID_1925_">
            <path id="XMLID_1930_" d="M1116-102c-2-8.3-13.7-1.6-17.3,1.3-9.3,7.5-18.2,15.7-26.9,23.8-1.4,1.3.7,3.4,2.1,2.1,5.6-5.3,11.3-10.4,17.2-15.5,2.3-2,20.3-18.5,22.1-10.9.4,1.9,3.2,1.1,2.8-.8Z" fill="#161616"/>
          </g>
        </g>
        <g id="XMLID_1887_">
          <g id="XMLID_1933_">
            <path id="XMLID_1944_" d="M1067,3.2a783.5,783.5,0,0,1-2.9,120.6c-.2,1.9,2.8,1.9,3,0A796.3,796.3,0,0,0,1070,3.2c-.1-1.9-3.1-1.9-3,0Z" fill="#161616"/>
          </g>
        </g>
        <g id="XMLID_1895_">
          <g id="XMLID_1947_">
            <path id="XMLID_1952_" d="M1112-106.8a20.638,20.638,0,0,0-14.1,21.9c.7,5.9,4.7,9.6,7.6,14.5,4.3,7,.1,16.3-.2,24.1-.5,16.3,4.3,32.2,8.7,47.7,4.6,16,9.5,31.8,13.4,48,4.6,18.9,7.7,38.2,7.4,57.7a1.5,1.5,0,0,0,3,0c.5-39.5-12.7-77-23.2-114.6-2.8-9.9-5.3-20-6.1-30.3a69.14,69.14,0,0,1,.5-16.4c.6-3.9,2.2-7.8,1.5-11.8-1.3-7.5-8.9-11.8-9.8-19.4a17.52,17.52,0,0,1,11.9-18.4c2.1-.7,1.3-3.6-.6-3Z" fill="#161616"/>
          </g>
        </g>
        <g id="XMLID_1903_">
          <g id="XMLID_1956_">
            <path id="XMLID_1960_" d="M1112.3-102.9c18.3,89.2,26.1,180.6,20.3,271.5-1.7,26.1-4.4,52.1-8.4,78-.3,1.9,2.6,2.7,2.9.8,13.8-91,13.3-183.7,1.1-274.8-3.4-25.6-7.8-51.1-13-76.4-.4-1.8-3.3-1-2.9.9Z" fill="#161616"/>
          </g>
        </g>
        <g id="XMLID_1904_">
          <g id="XMLID_1964_">
            <path id="XMLID_1968_" d="M1146.6-102.6c4.1-3.2,12.3,1.2,15.9,3.7a28.917,28.917,0,0,1,10.4,13c.7,1.8,3.6,1,2.9-.8a33.036,33.036,0,0,0-13.6-15.9c-5-2.9-12.6-6.1-17.7-2.1-1.6,1.2.6,3.3,2.1,2.1Z" fill="#161616"/>
          </g>
        </g>
        <g id="XMLID_1911_">
          <g id="XMLID_1972_">
            <path id="XMLID_1977_" d="M1143.3-96.3c20.4,10.7,20.7,38.6,23.3,58.5q4.5,34.2,8.4,68.6,7.65,68.7,12.9,137.6,3,39.3,5.1,78.8c.1,1.9,3.1,1.9,3,0q-7.8-144.45-26.7-287.9c-2.7-20.4-3.6-47.3-24.4-58.1-1.8-1-3.3,1.6-1.6,2.5Z" fill="#161616"/>
          </g>
        </g>
        <g id="XMLID_1912_">
          <g id="XMLID_1980_">
            <path id="XMLID_1985_" d="M1172.7-87.2c1.1,5.5-2,10.9-.7,16.4,1.2,5.1,5.7,8.6,7.5,13.5,2.1,5.8,1.6,12.3,1.5,18.3-.1,7-.2,13.9-.3,20.9q-.75,40.2-2.9,80.4c-.1,1.9,2.9,1.9,3,0,1.5-27.5,2.5-54.9,3-82.4.1-6.6.2-13.2.3-19.9.1-5.5.3-11.2-1.2-16.6-1.4-4.9-4.9-8.1-7.1-12.6-2.8-5.9,1-12.6-.2-18.8-.4-1.9-3.3-1.1-2.9.8Z" fill="#161616"/>
          </g>
        </g>
        <g id="XMLID_1920_">
          <g id="XMLID_1988_">
            <path id="XMLID_1993_" d="M1168.7-94.1A93.721,93.721,0,0,1,1192.9-78c1.4,1.3,3.5-.8,2.1-2.1a96.152,96.152,0,0,0-24.8-16.6c-1.8-.8-3.3,1.8-1.5,2.6Z" fill="#161616"/>
          </g>
        </g>
        <g id="XMLID_1923_">
          <g id="XMLID_1996_">
            <path id="XMLID_2001_" d="M1215.3,21.1a1554.238,1554.238,0,0,1,31.6,210.2c.2,1.9,3.2,1.9,3,0a1547.949,1547.949,0,0,0-31.7-211c-.5-1.8-3.4-1-2.9.8Z" fill="#161616"/>
          </g>
        </g>
        <g id="XMLID_1931_">
          <g id="XMLID_2008_">
            <path id="XMLID_2012_" d="M1194.5,248.5c10.7,3,21.5.9,31.8-2.6,8.3-2.8,17.9-5.4,23.2-12.9,1.1-1.6-1.5-3.1-2.6-1.5-5,7-15.3,9.6-23.1,12.1-9.3,3-18.9,4.6-28.5,2a1.5,1.5,0,0,0-.8,2.9Z" fill="#161616"/>
          </g>
        </g>
        <g id="XMLID_1945_">
          <g id="XMLID_2016_">
            <path id="XMLID_2020_" d="M1064.9,113.1c-5.7,40.3-13.2,80.4-22.5,120-.4,1.9,2.5,2.7,2.9.8,9.3-39.6,16.8-79.7,22.5-120,.3-1.9-2.6-2.7-2.9-.8Z" fill="#161616"/>
          </g>
        </g>
        <g id="XMLID_1953_">
          <g id="XMLID_2024_">
            <path id="XMLID_2033_" d="M1043.1,236.7a274.2,274.2,0,0,0,25.7,12.2c8.6,3.5,17.6,7.3,26.8,8.6a69.755,69.755,0,0,0,24.1-.7c6.9-1.5,5.8-8,9-13,1-1.6-1.6-3.1-2.6-1.5a25.677,25.677,0,0,0-2.5,6.7c-1.7,5.3-5.4,5-10.1,5.5-8.3.7-16.3.8-24.4-1.5-15.4-4.4-30.4-11.3-44.4-18.9-1.8-.9-3.3,1.7-1.6,2.6Z" fill="#161616"/>
          </g>
        </g>
        <path id="XMLID_1961_" d="M1112.6-105" fill="#fff"/>
      </g>
      <g id="arm_left">
        <path id="XMLID_2040_" d="M1080.2-81a196.109,196.109,0,0,0-24.1,19.1A206.884,206.884,0,0,0,1038-42.8c-17.4,20.1-26.3,30.4-36.1,46.2C990.6,21.5,985,30.6,982.8,44.5c-2.6,16.8,1,31.4,3,39.6,2.9,11.7,6.7,19.9,10.5,28.1,4.6,9.8,12.3,21.2,27.6,43.7,13.3,19.6,18.6,26.5,28.6,32.6a65.252,65.252,0,0,0,14.6,6.5c2.2-5.7,4.3-11.4,6.5-17.1a88.911,88.911,0,0,1,6,7c4,5.2,5,7.6,6.5,7.5,2.4-.1,3.9-5.9,5.5-12,7.5-29.2,7.4-33.6,5-35.1-1.7-1.1-3,.5-7.5,0a21.9,21.9,0,0,1-11.5-5c2.2-6.6,1.2-10.6,0-13-2.4-4.7-6.5-4.6-12.5-10.5-1.3-1.3-1.9-2.1-8-11.5-6.5-10-9.7-15-10.5-16.6a88.467,88.467,0,0,1-7.5-20.1,134.539,134.539,0,0,1,9-23.1,140.944,140.944,0,0,1,39.6-47.7,127.8,127.8,0,0,0,2.5-40.1A127.355,127.355,0,0,0,1080.2-81Z" fill="#fff"/>
        <path id="XMLID_2042_" d="M1076.2-77.5c-3.4,3.8-8.3,9.5-14,16.6-20.5,25.3-35.4,43.6-44.7,67.2a148.212,148.212,0,0,0-9.5,55.2c.7,47.7,24,81.1,33.1,93.8a181.322,181.322,0,0,0,30.1,32.6c-1.3,2.3-2.7,4.7-4,7a139.735,139.735,0,0,1-17.6-11c-24.2-18.1-35.8-40.4-46.7-61.7-11.9-23.3-17.8-35-19.6-50.7-2.4-21.6,1.6-47.7,14.6-63.7,1-1.3,1.9-2.2,5-6,12.4-15.1,20.4-26.7,22.1-29.1C1031.3-36.2,1044.7-51.1,1076.2-77.5Z" fill="#606060" opacity="0.08"/>
        <g id="XMLID_2015_">
          <g id="XMLID_2044_">
            <path id="XMLID_2049_" d="M1074.2-80a477.892,477.892,0,0,0-48.9,50.7c-14,16.9-28.5,34.8-37.4,55-9.1,20.6-8.6,41.4-1.4,62.5,7,20.6,17.3,40.3,29.4,58.4a258.265,258.265,0,0,0,22.2,28.7c7.5,8.4,15.5,16.5,26.3,20.4,1.8.6,2.6-2.3.8-2.9-10.3-3.7-17.9-11.6-25-19.6a268.918,268.918,0,0,1-19.8-25.3,259.934,259.934,0,0,1-29.1-55.2c-4-10.6-7.2-21.8-7.6-33.2a74.991,74.991,0,0,1,6.8-32.3c8.4-19.2,22-36.2,35.2-52.3a477.215,477.215,0,0,1,50.7-52.8c1.4-1.3-.8-3.4-2.2-2.1Z" fill="#161616"/>
          </g>
        </g>
        <g id="XMLID_2022_">
          <g id="XMLID_2052_">
            <path id="XMLID_2059_" d="M1083.6,1a120.976,120.976,0,0,0-45.8,68.2,1.5,1.5,0,0,0,2.9.8,117.44,117.44,0,0,1,44.4-66.4c1.6-1.2.1-3.8-1.5-2.6Z" fill="#161616"/>
          </g>
        </g>
        <g id="XMLID_2023_">
          <g id="XMLID_2063_">
            <path id="XMLID_2067_" d="M1035,62.2a125.956,125.956,0,0,0,41.9,67.3c1.5,1.2,3.6-.9,2.1-2.1a123.547,123.547,0,0,1-41.2-66c-.4-1.9-3.3-1.1-2.8.8Z" fill="#161616"/>
          </g>
        </g>
        <g id="XMLID_2034_">
          <g id="XMLID_2071_">
            <path id="XMLID_2075_" d="M1076.7,127.5a175.453,175.453,0,0,1-1.8,34c-.8,5.2-1.8,10.4-3.1,15.6-.6,2.4-1.2,4.8-1.9,7.2-.4,1.4-1.9,8.9-3.6,9.2.6.2,1.1.5,1.7.7-.1-.2-.2-.3-.3-.5-1-1.6-3.6-.1-2.6,1.5.1.2.2.3.3.5a1.622,1.622,0,0,0,1.7.7c3.7-.6,4.3-6.6,5.2-9.5a170.782,170.782,0,0,0,4.7-20,185.664,185.664,0,0,0,2.6-39.4c0-1.9-3-2-2.9,0Z" fill="#161616"/>
          </g>
        </g>
        <g id="XMLID_2035_">
          <g id="XMLID_2079_">
            <path id="XMLID_2086_" d="M1077.6,140.8a26.064,26.064,0,0,0,16.3,5.9,1.5,1.5,0,0,0,0-3,22.961,22.961,0,0,1-14.2-5c-1.5-1.2-3.6.9-2.1,2.1Z" fill="#161616"/>
          </g>
        </g>
        <g id="XMLID_2036_">
          <g id="XMLID_2089_">
            <path id="XMLID_2094_" d="M1073.4,181.2c3.2.4,4.9,4.2,6.6,6.6,1.6,2.4,3.5,4.6,6.3,5.5,1.8.6,2.6-2.3.8-2.9-3.3-1.1-4.9-4.8-6.8-7.5-1.8-2.5-3.8-4.3-6.9-4.7-1.9-.2-1.9,2.8,0,3Z" fill="#161616"/>
          </g>
        </g>
        <g id="XMLID_2037_">
          <g id="XMLID_2097_">
            <path id="XMLID_2102_" d="M1092,133.3c4.9,11.4,3.1,23.8.8,35.5-2.2,11.4-4.8,22-11.7,31.6-1.1,1.6,1.5,3.1,2.6,1.5,7.6-10.7,10.3-23,12.6-35.8,2.1-11.6,3-23.3-1.8-34.4-.6-1.7-3.2-.2-2.5,1.6Z" fill="#161616"/>
          </g>
        </g>
      </g>
      <g id="head">
        <path id="XMLID_1833_" d="M1105-184.9a16.6,16.6,0,0,0-9.8.4c-1,.4-8.3,3.1-9.3,10.2-.9,5.8,3,11,7.2,13.2a12.9,12.9,0,0,0,4.7,1.3,70.815,70.815,0,0,1,2.1,10.2c1,7.4-.1,7.7.8,11.9,2.3,9.8,10.3,15.9,10.6,16.1,3.4,2.5,4.6,2.1,5.9,4.2,2.2,3.4,1.3,7.8,0,14.4a69.236,69.236,0,0,1-2.1,8.1,21.607,21.607,0,0,0,11,7.2,22.97,22.97,0,0,0,13.2-.4c1.7-6.9,3.4-13.9,5.1-20.8a51.35,51.35,0,0,0,14.9-5.5,43.057,43.057,0,0,0,9.8-7.2c5.5-5.6,7.9-11.8,9.8-18.3,6.3-21.4,3.6-36.8,6.4-54,.2-1.3.9-5.7,1.4-11.6.4-4.7.5-8.5.5-10.6-2.5-2-18.7-14.5-40.3-10.6-20,3.6-30.6,18.8-33.4,22.8A58.351,58.351,0,0,0,1105-184.9Z" fill="#fff"/>
        <path id="XMLID_1834_" d="M1103.2-159.6a83.551,83.551,0,0,1-.4,10.9,90.361,90.361,0,0,1-2.5,13.8,21.326,21.326,0,0,1-8.5,6.2c-9,3.4-17.2-1-18.5-1.8a169.142,169.142,0,0,0-2.6-17.8c-3.3-16.5-7.6-25.6-9.1-31.3-2.9-10.8-.9-27.8,21.8-54.8-6.5-.2-8-1.2-8.3-2.2-.8-3.1,11.5-9.2,21.3-12.6,13.1-4.6,23.6-5,23.5-6.5-.1-1.6-11.7-1.6-11.8-3-.1-1.6,13.1-5.4,27.4-4.4a70.63,70.63,0,0,1,36.6,14.4c5.3,4.1,14.6,11.5,18.7,23.9,1.3,3.9,4.4,13.3-.4,19.2a10.735,10.735,0,0,1-3.9,3,15.959,15.959,0,0,0-1.7-9.1c-2.6-4.5-7-6.3-11.3-7.8-2.1-.8-8.7-3-18.7-2.6-5.7.2-15.9.6-25.7,7-.6.4.1-.1-11.3,10.4-7.8,7.2-11.3,10.3-11.3,14.8,0,2.4,1.1,4.2,0,5.2-1.5,1.5-4.6-1.2-8.7-.9-5.1.4-11.3,5.3-11.8,11.8-.5,7.2,6.7,11.7,7.4,12.2A15.8,15.8,0,0,0,1103.2-159.6Z" fill="#5222d0"/>
        <path id="XMLID_1838_" d="M1136.4-219.3a120.56,120.56,0,0,0-8.4,17.2c-4,10-10.4,25.8-9.6,45.9.9,20.6,9,36.4,14.5,45.2L1126-87.3c-5.9-1.2-8.2-3.4-9.2-5.4-1.6-3.1-.1-6.1.4-12.6a53.257,53.257,0,0,0-.4-11.9,83.405,83.405,0,0,1-13-14.2c-1.4-2-2.7-3.9-3.8-5.7a12.362,12.362,0,0,1-3.1,5c-3.1,3.2-7,3.8-9.6,4.2a25.843,25.843,0,0,1-14.2-1.9c-.4-4.6-1-9.6-1.9-14.9a168.74,168.74,0,0,0-5.7-22.6,12.125,12.125,0,0,0,10,8.8,12.206,12.206,0,0,0,12.3-6.1,13.507,13.507,0,0,1,2.3-17.6,13.247,13.247,0,0,1,14.9-1.1,35.921,35.921,0,0,1,1.1-8C1111.3-209.9,1132.1-217.8,1136.4-219.3Z" fill="#606060" opacity="0.12"/>
        <g id="XMLID_1777_">
          <g id="XMLID_1802_">
            <path id="XMLID_1807_" d="M1184-203.5a324.715,324.715,0,0,1-1.9,44.1c-1.7,13.4-5.6,27.1-15.1,37.1a36.681,36.681,0,0,1-37.2,9.7c-12.5-3.6-22.1-13.3-27.7-24.8-.8-1.7-3.4-.2-2.6,1.5,11.6,23.8,42.4,37.7,65.2,19.7,11-8.7,16.6-22.1,19.2-35.6,3.2-16.9,3.4-34.5,3.1-51.6a1.5,1.5,0,1,0-3-.1Z" fill="#161616"/>
          </g>
        </g>
        <g id="XMLID_1778_">
          <g id="XMLID_1810_">
            <path id="XMLID_1815_" d="M1160.2-198.8c.9,7.4,2.1,14.7,3.6,22,.8,3.5,2.8,8.3,2.3,11.9-.5,4.4-5.6,7.1-9.6,8.5-1.8.7-1,3.6.8,2.9,5-1.8,12.7-6,12.1-12.3-.5-4.9-2.4-9.9-3.3-14.7-1.2-6.1-2.2-12.2-2.9-18.4-.2-1.8-3.2-1.8-3,.1Z" fill="#161616"/>
          </g>
        </g>
        <g id="XMLID_1785_">
          <g id="XMLID_1819_">
            <path id="XMLID_1823_" d="M1146.7-191a35.41,35.41,0,0,1-2.3,9.6c-.7,1.8,2.2,2.6,2.9.8a41.361,41.361,0,0,0,2.4-10.4c.2-1.9-2.8-1.9-3,0Z" fill="#161616"/>
          </g>
        </g>
        <g id="XMLID_1786_">
          <g id="XMLID_1827_">
            <path id="XMLID_1831_" d="M1146-191.9a32.393,32.393,0,0,0-2,11.5,1.5,1.5,0,0,0,3,0,30.183,30.183,0,0,1,1.9-10.7c.7-1.9-2.2-2.6-2.9-.8Z" fill="#161616"/>
          </g>
        </g>
        <g id="XMLID_1795_">
          <g id="XMLID_1851_">
            <path id="XMLID_1856_" d="M1137.2-200.2a11.127,11.127,0,0,1,15.2-.1c1.4,1.3,3.5-.8,2.1-2.1a14.237,14.237,0,0,0-19.5.1c-1.3,1.3.8,3.4,2.2,2.1Z" fill="#161616"/>
          </g>
        </g>
        <g id="XMLID_1798_">
          <g id="XMLID_1859_">
            <path id="XMLID_1864_" d="M1169.6-200.6c3.4-2.6,8.5-1.1,10.4,2.6.9,1.7,3.5.2,2.6-1.5-2.8-5.6-10.3-6.9-15.1-3.2-1.6,1.1.6,3.2,2.1,2.1Z" fill="#161616"/>
          </g>
        </g>
        <g id="XMLID_1800_">
          <g id="XMLID_1873_">
            <path id="XMLID_1877_" d="M1162.9-143.5a13.052,13.052,0,0,1-19.1-6.3c-.7-1.8-3.6-1-2.9.8,3.9,9.5,14.5,13.3,23.5,8,1.7-.9.1-3.5-1.5-2.5Z" fill="#161616"/>
          </g>
        </g>
        <g id="XMLID_1808_">
          <g id="XMLID_1881_">
            <path id="XMLID_1885_" d="M1106.4-184c-7-9.1-20.4.2-22.2,9-2.3,11.2,9.1,20.3,19.4,14.9,1.7-.9.2-3.5-1.5-2.6-8.6,4.5-17.2-4-14.6-12.9,1.8-6.3,11.6-13,16.8-6.3,1.2,1.5,3.3-.6,2.1-2.1Z" fill="#161616"/>
          </g>
        </g>
        <g id="XMLID_1794_">
          <g id="XMLID_1857_">
            <path id="XMLID_1880_" d="M1176.1-188.5a35.41,35.41,0,0,1-2.3,9.6c-.7,1.8,2.2,2.6,2.9.8a41.361,41.361,0,0,0,2.4-10.4c.2-1.9-2.8-1.9-3,0Z" fill="#161616"/>
          </g>
        </g>
        <g id="XMLID_1793_">
          <g id="XMLID_1843_">
            <path id="XMLID_1848_" d="M1175.4-189.5a32.393,32.393,0,0,0-2,11.5,1.5,1.5,0,0,0,3,0,30.183,30.183,0,0,1,1.9-10.7c.6-1.8-2.3-2.6-2.9-.8Z" fill="#161616"/>
          </g>
        </g>
        <g id="XMLID_1816_">
          <g id="XMLID_1889_">
            <path id="XMLID_1894_" d="M1145.8-110.7a65.02,65.02,0,0,0-5.3,16.7c-.3,1.9,2.6,2.7,2.9.8a59.547,59.547,0,0,1,5-16c.8-1.7-1.8-3.2-2.6-1.5Z" fill="#161616"/>
          </g>
        </g>
        <g id="XMLID_1817_">
          <g id="XMLID_1897_">
            <path id="XMLID_1902_" d="M1117-115.1a55.5,55.5,0,0,1-1.2,12.2c-.5,2.3-1.9,4.9-1.4,7.3.8,3.9,5.5,7.1,8.9,8.5,6.3,2.7,19.2,2.4,20.1-6.5.2-1.9-2.8-1.9-3,0-.4,4-6.7,5.1-9.8,5a16.235,16.235,0,0,1-10.5-4.1c-3.9-3.6-1.6-7.8-.8-12.2a58.828,58.828,0,0,0,.8-10.3c-.2-1.9-3.2-1.9-3.1.1Z" fill="#161616"/>
          </g>
        </g>
        <g id="XMLID_1824_">
          <g id="XMLID_1905_">
            <path id="XMLID_1910_" d="M1124.7-111.5a73.092,73.092,0,0,0,18.9,8,1.5,1.5,0,0,0,.8-2.9,69.691,69.691,0,0,1-18.2-7.7c-1.6-1-3.1,1.6-1.5,2.6Z" fill="#161616"/>
          </g>
        </g>
        <g id="XMLID_1826_">
          <g id="XMLID_1913_">
            <path id="XMLID_1918_" d="M1137.6-107.2a33.814,33.814,0,0,0,7,1.6c1.9.3,2.7-2.6.8-2.9a41.771,41.771,0,0,1-7-1.6c-1.9-.6-2.7,2.3-.8,2.9Z" fill="#161616"/>
          </g>
        </g>
      </g>
      <g id="girl_hand">
        <path id="XMLID_2216_" d="M1288.6,99.2c-2.2,1-2.2,4.4-2.3,8.7-.1,3.9-.2,7.8,2.3,9.3,1.7,1,3.9.4,5,0a7.426,7.426,0,0,0,2.9,5,7.625,7.625,0,0,0,7,.6,12.767,12.767,0,0,0,4.7,4.7c.7.4,5,2.9,9.6,1.2,3-1.1,6.3-4,5.8-6.1-.6-2.4-5.5-1.1-8.4-4.7-2.9-3.5-.7-7.8-3.5-9.9-1.8-1.3-4.3-.9-6.4-.3,0-3.4-2.2-6.1-4.7-6.4a5.1,5.1,0,0,0-4.1,1.5C1293.9,99.8,1290.7,98.3,1288.6,99.2Z" fill="#fff"/>
        <g id="XMLID_2142_">
          <g id="XMLID_2210_">
            <path id="XMLID_2214_" d="M1290.5,115.4c-3.7,1.2-3.4-12.4-2-14,1.7-.1,3.3-.2,5-.3a5.547,5.547,0,0,1,.7,2.8,19.309,19.309,0,0,1,0,3.4c-.1,1.5-.1,3-.2,4.5,0,.5-.1,1-.1,1.5a2.725,2.725,0,0,1-2,2.9,1.5,1.5,0,0,0-2.9.8,3.479,3.479,0,0,0,4,2.6c2.2-.3,3.3-2.2,3.7-4.3a42.348,42.348,0,0,0,.5-11.8c-.2-2.7-1.4-5.5-3.9-6.8-6.2-3.1-7.9,4.1-8.4,8.6-.5,3.8-.2,15,6.4,12.8,1.8-.4,1-3.3-.8-2.7Z" fill="#161616"/>
          </g>
        </g>
        <g id="XMLID_2150_">
          <g id="XMLID_2218_">
            <path id="XMLID_2223_" d="M1298.1,121.7a40.676,40.676,0,0,1-1.9-12c0-1.3-.3-3.6.5-4.8,3.4-2.3,5.5-1.7,6.1,1.7a22.256,22.256,0,0,1,.5,3.6c.2,1.9,3.2,1.9,3,0-.3-3.3-.8-6.9-3.6-9.1-2-1.5-4.9-1.9-6.9-.2-5.4,4.4-2.3,16.2-.7,21.6.7,1.9,3.6,1.1,3-.8Z" fill="#161616"/>
          </g>
        </g>
        <g id="XMLID_2158_">
          <g id="XMLID_2226_">
            <path id="XMLID_2231_" d="M1294.7,122.7a9.912,9.912,0,0,0,9.6,2.2,1.4,1.4,0,0,0,1-1.8,20.356,20.356,0,0,1-.8-6.5c.1-1.5.5-5.9,1.8-7,3.4-2.8,7,7.2,8,9.1.9,1.7,3.5.2,2.6-1.5-1.7-3.3-5.4-14-11.2-11.1-5.4,2.7-4.6,13.1-3.4,17.8.3-.6.7-1.2,1-1.8a6.83,6.83,0,0,1-6.7-1.4,1.381,1.381,0,1,0-1.9,2Z" fill="#161616"/>
          </g>
        </g>
        <g id="XMLID_2167_">
          <g id="XMLID_2234_">
            <path id="XMLID_2239_" d="M1313.8,128.5c-1.5-.5-3.2-.9-4.4-2-2.5-2.2-.6-5.2,2.2-6.1a10.9,10.9,0,0,1,10.6,2.6c1.4,1.3,3.5-.8,2.1-2.1-4.5-4.2-12.8-5.9-17.5-1-5.2,5.4,1.3,10.1,6.2,11.6,1.8.4,2.6-2.5.8-3Z" fill="#161616"/>
          </g>
        </g>
        <g id="XMLID_2175_">
          <g id="XMLID_2242_">
            <path id="XMLID_2247_" d="M1310.6,129.3c4.4,4,10.6,1.5,13.8-2.8,4.4-6-4.7-9.8-9.1-11.6-1.8-.7-3.3,1.8-1.5,2.6,2,.9,9.8,3.7,8.5,6.9-1.3,3.3-6.8,5.3-9.5,2.9a1.487,1.487,0,1,0-2.2,2Z" fill="#161616"/>
          </g>
        </g>
      </g>
    </g>
  </g>
</svg>
